{"glyphs":{"0":{"ha":786,"x_min":0,"x_max":0,"o":"m 393 1056 b 33 521 169 1056 33 854 b 393 -14 33 188 169 -14 b 753 521 618 -14 753 188 b 393 1056 753 854 618 1056 z m 393 939 b 571 524 510 939 571 799 b 394 103 571 247 510 103 b 217 524 278 103 217 247 b 393 939 217 799 276 939 z "},"1":{"ha":436,"x_min":0,"x_max":0,"o":"m 42 15 l 19 11 l 19 0 l 414 0 l 414 11 l 393 15 b 300 197 325 29 300 71 l 300 1054 l 293 1054 l 6 853 l 8 840 l 51 856 b 133 729 118 879 133 856 l 133 197 b 42 15 133 71 108 29 z "},"2":{"ha":732,"x_min":0,"x_max":0,"o":"m 356 214 b 692 796 611 497 692 639 b 374 1061 692 975 586 1067 b 44 1019 153 1056 74 953 l 32 1047 l 24 1044 l 111 610 l 125 613 l 118 693 b 353 951 106 838 219 951 b 507 792 449 951 507 892 b 22 17 507 582 256 238 l 22 0 l 576 0 b 661 -64 672 0 661 -28 l 668 -64 l 721 408 l 708 410 l 699 375 b 483 181 665 243 631 181 l 365 181 b 356 214 339 181 336 192 z "},"3":{"ha":713,"x_min":0,"x_max":0,"o":"m 479 804 b 292 618 479 696 407 618 l 231 618 l 231 600 l 292 600 b 496 344 424 600 496 511 b 317 96 496 186 431 96 b 88 335 200 96 106 190 l 75 443 l 61 442 l 58 -6 l 68 -6 l 74 25 b 338 -14 86 99 131 -12 b 679 325 553 -15 679 104 b 390 611 679 521 579 611 b 664 831 565 611 664 679 b 364 1061 664 985 561 1064 b 54 1019 142 1058 83 953 l 42 1047 l 33 1044 l 115 633 l 129 636 l 122 717 b 325 951 111 850 193 951 b 479 804 407 951 479 911 z "},"4":{"ha":838,"x_min":0,"x_max":0,"o":"m 479 656 l 479 381 b 439 331 479 347 465 331 l 204 331 b 190 367 176 331 172 342 l 425 681 b 479 656 471 742 479 751 z m 386 15 l 365 11 l 365 0 l 760 0 l 760 11 l 738 15 b 646 197 671 29 646 71 l 646 210 l 697 210 b 782 146 793 210 782 182 l 789 146 l 832 489 l 819 490 l 813 456 b 646 331 793 357 760 335 l 646 1057 l 638 1057 l 6 210 l 479 210 l 479 197 b 386 15 479 71 454 29 z "},"5":{"ha":688,"x_min":0,"x_max":0,"o":"m 192 740 l 206 813 b 256 861 213 844 229 861 l 354 861 b 571 667 501 861 538 799 l 579 632 l 593 633 l 539 1106 l 532 1106 b 449 1042 532 1069 543 1042 l 131 1042 l 42 633 l 214 633 b 471 353 388 633 471 543 b 293 96 471 190 410 96 b 64 335 175 96 82 190 l 50 443 l 38 442 l 33 -6 l 43 -6 l 49 25 b 314 -14 63 99 107 -12 b 654 325 535 -15 654 110 b 221 692 654 561 508 689 b 192 740 194 692 185 708 z "},"6":{"ha":722,"x_min":0,"x_max":0,"o":"m 260 635 b 233 658 233 621 226 626 b 429 882 261 792 321 882 b 604 667 514 882 564 826 l 614 632 l 626 633 l 574 1106 l 567 1106 b 482 1042 567 1069 578 1042 b 33 472 194 1042 33 838 b 360 -14 33 161 151 -14 b 689 351 553 -14 689 135 b 408 672 689 553 571 672 b 260 635 353 672 300 658 z m 217 494 b 253 572 218 529 231 557 b 368 614 288 599 329 614 b 506 353 467 614 506 517 b 379 96 506 186 465 96 b 215 461 278 96 215 219 b 217 494 215 471 217 482 z "},"7":{"ha":686,"x_min":0,"x_max":0,"o":"m 453 803 b 88 0 265 513 136 228 l 288 0 b 681 1042 325 260 415 528 l 150 1042 b 65 1106 54 1042 65 1069 l 60 1106 l 6 633 l 19 632 l 28 667 b 243 861 61 799 97 861 l 431 861 b 453 803 471 861 478 843 z "},"8":{"ha":760,"x_min":0,"x_max":0,"o":"m 368 -14 b 726 315 575 -14 726 104 b 426 607 726 494 618 607 b 711 821 614 607 711 679 b 382 1061 711 975 593 1061 b 49 819 176 1061 49 981 b 318 607 49 681 146 608 b 33 303 140 607 33 490 b 368 -14 33 94 164 -14 z m 383 963 b 526 808 483 963 526 901 b 379 638 526 710 478 638 b 233 804 283 638 233 708 b 383 963 233 899 282 963 z m 379 571 b 543 329 494 571 543 481 b 383 96 543 165 486 96 b 217 333 285 96 217 160 b 379 571 217 481 265 571 z "},"9":{"ha":710,"x_min":0,"x_max":0,"o":"m 463 497 b 490 476 486 513 493 507 b 282 160 474 293 413 160 b 106 375 197 160 147 215 l 97 410 l 83 408 l 138 -64 l 143 -64 b 228 0 143 -28 132 0 b 676 569 515 0 676 204 b 343 1057 676 882 558 1057 b 33 731 158 1057 33 926 b 297 453 33 557 132 453 b 463 497 361 453 419 469 z m 493 624 b 464 551 494 590 485 565 b 339 511 426 526 379 511 b 217 713 256 511 217 576 b 340 946 217 861 263 946 b 493 624 425 946 486 842 z "}," ":{"ha":289,"x_min":0,"x_max":0,"o":""},"A":{"ha":1100,"x_min":0,"x_max":0,"o":"m 308 57 l 378 324 b 438 376 388 358 407 376 l 582 376 b 642 324 613 376 633 358 l 704 57 b 647 -154 742 -96 721 -139 l 624 -158 l 624 -172 l 1093 -172 l 1093 -158 l 1069 -154 b 907 57 989 -137 943 -86 l 726 806 b 763 1015 692 944 682 999 l 786 1019 l 786 1033 l 286 1033 l 286 1019 l 311 1015 b 372 806 392 999 408 951 l 178 57 b 31 -154 140 -90 107 -139 l 7 -158 l 7 -172 l 406 -172 l 406 -158 l 381 -154 b 308 57 290 -136 276 -74 z m 419 493 l 497 792 b 529 792 513 851 515 851 l 600 493 b 568 440 608 458 597 440 l 453 440 b 419 493 422 440 410 458 z "},"Á":{"ha":1100,"x_min":0,"x_max":0,"o":"m 308 57 l 378 324 b 438 376 388 358 407 376 l 582 376 b 642 324 613 376 633 358 l 704 57 b 647 -154 742 -96 721 -139 l 624 -158 l 624 -172 l 1093 -172 l 1093 -158 l 1069 -154 b 907 57 989 -137 943 -86 l 726 806 b 763 1015 692 944 682 999 l 786 1019 l 786 1033 l 472 1033 l 675 1208 l 496 1208 l 432 1033 l 286 1033 l 286 1019 l 311 1015 b 372 806 392 999 408 951 l 178 57 b 31 -154 140 -90 107 -139 l 7 -158 l 7 -172 l 406 -172 l 406 -158 l 381 -154 b 308 57 290 -136 276 -74 z m 419 493 l 497 792 b 529 792 513 851 515 851 l 600 493 b 568 440 608 458 597 440 l 453 440 b 419 493 422 440 410 458 z "},"Ă":{"ha":1100,"x_min":0,"x_max":0,"o":"m 308 57 l 378 324 b 438 376 388 358 407 376 l 582 376 b 642 324 613 376 633 358 l 704 57 b 647 -154 742 -96 721 -139 l 624 -158 l 624 -172 l 1093 -172 l 1093 -158 l 1069 -154 b 907 57 989 -137 943 -86 l 726 806 b 763 1015 692 944 682 999 l 786 1019 l 786 1033 l 617 1033 b 686 1283 672 1072 700 1163 l 675 1283 b 551 1129 676 1194 624 1129 b 428 1283 479 1129 426 1194 l 417 1283 b 483 1033 403 1163 429 1072 l 286 1033 l 286 1019 l 311 1015 b 372 806 392 999 408 951 l 178 57 b 31 -154 140 -90 107 -139 l 7 -158 l 7 -172 l 406 -172 l 406 -158 l 381 -154 b 308 57 290 -136 276 -74 z m 419 493 l 497 792 b 529 792 513 851 515 851 l 600 493 b 568 440 608 458 597 440 l 453 440 b 419 493 422 440 410 458 z "},"Ắ":{"ha":1100,"x_min":0,"x_max":0,"o":"m 308 57 l 378 324 b 438 376 388 358 407 376 l 582 376 b 642 324 613 376 633 358 l 704 57 b 647 -154 742 -96 721 -139 l 624 -158 l 624 -172 l 1093 -172 l 1093 -158 l 1069 -154 b 907 57 989 -137 943 -86 l 726 806 b 763 1015 692 944 682 999 l 786 1019 l 786 1033 l 617 1033 b 686 1283 672 1072 700 1163 l 675 1283 b 551 1129 676 1194 624 1129 b 428 1283 479 1129 426 1194 l 417 1283 b 483 1033 403 1163 429 1072 l 286 1033 l 286 1019 l 311 1015 b 372 806 392 999 408 951 l 178 57 b 31 -154 140 -90 107 -139 l 7 -158 l 7 -172 l 406 -172 l 406 -158 l 381 -154 b 308 57 290 -136 276 -74 z m 419 493 l 497 792 b 529 792 513 851 515 851 l 600 493 b 568 440 608 458 597 440 l 453 440 b 419 493 422 440 410 458 z m 428 1349 l 461 1349 l 675 1533 l 496 1533 z "},"Ặ":{"ha":1100,"x_min":0,"x_max":0,"o":"m 308 57 l 378 324 b 438 376 388 358 407 376 l 582 376 b 642 324 613 376 633 358 l 704 57 b 647 -154 742 -96 721 -139 l 624 -158 l 624 -172 l 1093 -172 l 1093 -158 l 1069 -154 b 907 57 989 -137 943 -86 l 726 806 b 763 1015 692 944 682 999 l 786 1019 l 786 1033 l 617 1033 b 686 1283 672 1072 700 1163 l 675 1283 b 551 1129 676 1194 624 1129 b 428 1283 479 1129 426 1194 l 417 1283 b 483 1033 403 1163 429 1072 l 286 1033 l 286 1019 l 311 1015 b 372 806 392 999 408 951 l 178 57 b 31 -154 140 -90 107 -139 l 7 -158 l 7 -172 l 406 -172 l 406 -158 l 381 -154 b 308 57 290 -136 276 -74 z m 419 493 l 497 792 b 529 792 513 851 515 851 l 600 493 b 568 440 608 458 597 440 l 453 440 b 419 493 422 440 410 458 z m 653 -337 b 551 -236 653 -276 613 -236 b 450 -337 492 -236 450 -276 b 551 -439 450 -397 492 -439 b 653 -337 613 -439 653 -397 z "},"Ằ":{"ha":1100,"x_min":0,"x_max":0,"o":"m 308 57 l 378 324 b 438 376 388 358 407 376 l 582 376 b 642 324 613 376 633 358 l 704 57 b 647 -154 742 -96 721 -139 l 624 -158 l 624 -172 l 1093 -172 l 1093 -158 l 1069 -154 b 907 57 989 -137 943 -86 l 726 806 b 763 1015 692 944 682 999 l 786 1019 l 786 1033 l 617 1033 b 686 1283 672 1072 700 1163 l 675 1283 b 551 1129 676 1194 624 1129 b 428 1283 479 1129 426 1194 l 417 1283 b 483 1033 403 1163 429 1072 l 286 1033 l 286 1019 l 311 1015 b 372 806 392 999 408 951 l 178 57 b 31 -154 140 -90 107 -139 l 7 -158 l 7 -172 l 406 -172 l 406 -158 l 381 -154 b 308 57 290 -136 276 -74 z m 419 493 l 497 792 b 529 792 513 851 515 851 l 600 493 b 568 440 608 458 597 440 l 453 440 b 419 493 422 440 410 458 z m 428 1533 l 642 1349 l 675 1349 l 607 1533 z "},"Ẳ":{"ha":1100,"x_min":0,"x_max":0,"o":"m 308 57 l 378 324 b 438 376 388 358 407 376 l 582 376 b 642 324 613 376 633 358 l 704 57 b 647 -154 742 -96 721 -139 l 624 -158 l 624 -172 l 1093 -172 l 1093 -158 l 1069 -154 b 907 57 989 -137 943 -86 l 726 806 b 763 1015 692 944 682 999 l 786 1019 l 786 1033 l 617 1033 b 686 1283 672 1072 700 1163 l 675 1283 b 551 1129 676 1194 624 1129 b 428 1283 479 1129 426 1194 l 417 1283 b 483 1033 403 1163 429 1072 l 286 1033 l 286 1019 l 311 1015 b 372 806 392 999 408 951 l 178 57 b 31 -154 140 -90 107 -139 l 7 -158 l 7 -172 l 406 -172 l 406 -158 l 381 -154 b 308 57 290 -136 276 -74 z m 419 493 l 497 792 b 529 792 513 851 515 851 l 600 493 b 568 440 608 458 597 440 l 453 440 b 419 493 422 440 410 458 z m 428 1493 l 431 1492 b 529 1575 444 1536 472 1575 b 599 1500 574 1575 599 1550 b 500 1360 599 1440 563 1389 l 514 1332 b 703 1503 632 1368 703 1432 b 571 1603 703 1563 654 1603 b 428 1493 496 1603 444 1569 z "},"Ẵ":{"ha":1100,"x_min":0,"x_max":0,"o":"m 308 57 l 378 324 b 438 376 388 358 407 376 l 582 376 b 642 324 613 376 633 358 l 704 57 b 647 -154 742 -96 721 -139 l 624 -158 l 624 -172 l 1093 -172 l 1093 -158 l 1069 -154 b 907 57 989 -137 943 -86 l 726 806 b 763 1015 692 944 682 999 l 786 1019 l 786 1033 l 617 1033 b 686 1283 672 1072 700 1163 l 675 1283 b 551 1129 676 1194 624 1129 b 428 1283 479 1129 426 1194 l 417 1283 b 483 1033 403 1163 429 1072 l 286 1033 l 286 1019 l 311 1015 b 372 806 392 999 408 951 l 178 57 b 31 -154 140 -90 107 -139 l 7 -158 l 7 -172 l 406 -172 l 406 -158 l 381 -154 b 308 57 290 -136 276 -74 z m 419 493 l 497 792 b 529 792 513 851 515 851 l 600 493 b 568 440 608 458 597 440 l 453 440 b 419 493 422 440 410 458 z m 328 1361 l 343 1361 b 426 1467 353 1425 386 1467 b 635 1388 490 1467 536 1388 b 774 1607 733 1388 775 1481 l 758 1607 b 675 1500 750 1544 715 1500 b 467 1578 611 1500 565 1578 b 328 1361 368 1578 326 1488 z "},"Ǎ":{"ha":1100,"x_min":0,"x_max":0,"o":"m 308 57 l 378 324 b 438 376 388 358 407 376 l 582 376 b 642 324 613 376 633 358 l 704 57 b 647 -154 742 -96 721 -139 l 624 -158 l 624 -172 l 1093 -172 l 1093 -158 l 1069 -154 b 907 57 989 -137 943 -86 l 726 806 b 763 1015 692 944 682 999 l 786 1019 l 786 1033 l 561 1033 b 738 1275 629 1167 690 1243 l 729 1286 b 550 1175 671 1257 606 1228 b 372 1286 496 1228 431 1257 l 364 1275 b 539 1033 411 1243 472 1167 l 286 1033 l 286 1019 l 311 1015 b 372 806 392 999 408 951 l 178 57 b 31 -154 140 -90 107 -139 l 7 -158 l 7 -172 l 406 -172 l 406 -158 l 381 -154 b 308 57 290 -136 276 -74 z m 419 493 l 497 792 b 529 792 513 851 515 851 l 600 493 b 568 440 608 458 597 440 l 453 440 b 419 493 422 440 410 458 z "},"Â":{"ha":1100,"x_min":0,"x_max":0,"o":"m 308 57 l 378 324 b 438 376 388 358 407 376 l 582 376 b 642 324 613 376 633 358 l 704 57 b 647 -154 742 -96 721 -139 l 624 -158 l 624 -172 l 1093 -172 l 1093 -158 l 1069 -154 b 907 57 989 -137 943 -86 l 726 806 b 763 1015 692 944 682 999 l 786 1019 l 786 1033 l 724 1033 b 550 1286 676 1072 617 1153 b 378 1033 483 1153 425 1072 l 286 1033 l 286 1019 l 311 1015 b 372 806 392 999 408 951 l 178 57 b 31 -154 140 -90 107 -139 l 7 -158 l 7 -172 l 406 -172 l 406 -158 l 381 -154 b 308 57 290 -136 276 -74 z m 419 493 l 497 792 b 529 792 513 851 515 851 l 600 493 b 568 440 608 458 597 440 l 453 440 b 419 493 422 440 410 458 z m 414 1033 b 550 1124 461 1057 508 1083 b 688 1033 593 1083 640 1057 z "},"Ấ":{"ha":1100,"x_min":0,"x_max":0,"o":"m 308 57 l 378 324 b 438 376 388 358 407 376 l 582 376 b 642 324 613 376 633 358 l 704 57 b 647 -154 742 -96 721 -139 l 624 -158 l 624 -172 l 1093 -172 l 1093 -158 l 1069 -154 b 907 57 989 -137 943 -86 l 726 806 b 763 1015 692 944 682 999 l 786 1019 l 786 1033 l 724 1033 b 550 1286 676 1072 617 1153 b 378 1033 483 1153 425 1072 l 286 1033 l 286 1019 l 311 1015 b 372 806 392 999 408 951 l 178 57 b 31 -154 140 -90 107 -139 l 7 -158 l 7 -172 l 406 -172 l 406 -158 l 381 -154 b 308 57 290 -136 276 -74 z m 419 493 l 497 792 b 529 792 513 851 515 851 l 600 493 b 568 440 608 458 597 440 l 453 440 b 419 493 422 440 410 458 z m 428 1351 l 461 1351 l 675 1536 l 496 1536 z m 414 1033 b 550 1124 461 1057 508 1083 b 688 1033 593 1083 640 1057 z "},"Ậ":{"ha":1100,"x_min":0,"x_max":0,"o":"m 308 57 l 378 324 b 438 376 388 358 407 376 l 582 376 b 642 324 613 376 633 358 l 704 57 b 647 -154 742 -96 721 -139 l 624 -158 l 624 -172 l 1093 -172 l 1093 -158 l 1069 -154 b 907 57 989 -137 943 -86 l 726 806 b 763 1015 692 944 682 999 l 786 1019 l 786 1033 l 724 1033 b 550 1286 676 1072 617 1153 b 378 1033 483 1153 425 1072 l 286 1033 l 286 1019 l 311 1015 b 372 806 392 999 408 951 l 178 57 b 31 -154 140 -90 107 -139 l 7 -158 l 7 -172 l 406 -172 l 406 -158 l 381 -154 b 308 57 290 -136 276 -74 z m 419 493 l 497 792 b 529 792 513 851 515 851 l 600 493 b 568 440 608 458 597 440 l 453 440 b 419 493 422 440 410 458 z m 653 -337 b 551 -236 653 -276 613 -236 b 450 -337 492 -236 450 -276 b 551 -439 450 -397 492 -439 b 653 -337 613 -439 653 -397 z m 414 1033 b 550 1124 461 1057 508 1083 b 688 1033 593 1083 640 1057 z "},"Ầ":{"ha":1100,"x_min":0,"x_max":0,"o":"m 308 57 l 378 324 b 438 376 388 358 407 376 l 582 376 b 642 324 613 376 633 358 l 704 57 b 647 -154 742 -96 721 -139 l 624 -158 l 624 -172 l 1093 -172 l 1093 -158 l 1069 -154 b 907 57 989 -137 943 -86 l 726 806 b 763 1015 692 944 682 999 l 786 1019 l 786 1033 l 724 1033 b 550 1286 676 1072 617 1153 b 378 1033 483 1153 425 1072 l 286 1033 l 286 1019 l 311 1015 b 372 806 392 999 408 951 l 178 57 b 31 -154 140 -90 107 -139 l 7 -158 l 7 -172 l 406 -172 l 406 -158 l 381 -154 b 308 57 290 -136 276 -74 z m 419 493 l 497 792 b 529 792 513 851 515 851 l 600 493 b 568 440 608 458 597 440 l 453 440 b 419 493 422 440 410 458 z m 428 1536 l 642 1351 l 675 1351 l 607 1536 z m 414 1033 b 550 1124 461 1057 508 1083 b 688 1033 593 1083 640 1057 z "},"Ẩ":{"ha":1100,"x_min":0,"x_max":0,"o":"m 308 57 l 378 324 b 438 376 388 358 407 376 l 582 376 b 642 324 613 376 633 358 l 704 57 b 647 -154 742 -96 721 -139 l 624 -158 l 624 -172 l 1093 -172 l 1093 -158 l 1069 -154 b 907 57 989 -137 943 -86 l 726 806 b 763 1015 692 944 682 999 l 786 1019 l 786 1033 l 724 1033 b 550 1286 676 1072 617 1153 b 378 1033 483 1153 425 1072 l 286 1033 l 286 1019 l 311 1015 b 372 806 392 999 408 951 l 178 57 b 31 -154 140 -90 107 -139 l 7 -158 l 7 -172 l 406 -172 l 406 -158 l 381 -154 b 308 57 290 -136 276 -74 z m 419 493 l 497 792 b 529 792 513 851 515 851 l 600 493 b 568 440 608 458 597 440 l 453 440 b 419 493 422 440 410 458 z m 428 1496 l 431 1494 b 529 1578 444 1539 472 1578 b 599 1503 574 1578 599 1553 b 500 1363 599 1443 563 1392 l 514 1335 b 703 1506 632 1371 703 1435 b 571 1606 703 1565 654 1606 b 428 1496 496 1606 444 1572 z m 414 1033 b 550 1124 461 1057 508 1083 b 688 1033 593 1083 640 1057 z "},"Ẫ":{"ha":1100,"x_min":0,"x_max":0,"o":"m 308 57 l 378 324 b 438 376 388 358 407 376 l 582 376 b 642 324 613 376 633 358 l 704 57 b 647 -154 742 -96 721 -139 l 624 -158 l 624 -172 l 1093 -172 l 1093 -158 l 1069 -154 b 907 57 989 -137 943 -86 l 726 806 b 763 1015 692 944 682 999 l 786 1019 l 786 1033 l 724 1033 b 550 1286 676 1072 617 1153 b 378 1033 483 1153 425 1072 l 286 1033 l 286 1019 l 311 1015 b 372 806 392 999 408 951 l 178 57 b 31 -154 140 -90 107 -139 l 7 -158 l 7 -172 l 406 -172 l 406 -158 l 381 -154 b 308 57 290 -136 276 -74 z m 419 493 l 497 792 b 529 792 513 851 515 851 l 600 493 b 568 440 608 458 597 440 l 453 440 b 419 493 422 440 410 458 z m 328 1364 l 343 1364 b 426 1469 353 1428 386 1469 b 635 1390 490 1469 536 1390 b 774 1610 733 1390 775 1483 l 758 1610 b 675 1503 750 1547 715 1503 b 467 1581 611 1503 565 1581 b 328 1364 368 1581 326 1490 z m 414 1033 b 550 1124 461 1057 508 1083 b 688 1033 593 1083 640 1057 z "},"Ä":{"ha":1100,"x_min":0,"x_max":0,"o":"m 308 57 l 378 324 b 438 376 388 358 407 376 l 582 376 b 642 324 613 376 633 358 l 704 57 b 647 -154 742 -96 721 -139 l 624 -158 l 624 -172 l 1093 -172 l 1093 -158 l 1069 -154 b 907 57 989 -137 943 -86 l 726 806 b 763 1015 692 944 682 999 l 786 1019 l 786 1033 l 286 1033 l 286 1019 l 311 1015 b 372 806 392 999 408 951 l 178 57 b 31 -154 140 -90 107 -139 l 7 -158 l 7 -172 l 406 -172 l 406 -158 l 381 -154 b 308 57 290 -136 276 -74 z m 419 493 l 497 792 b 529 792 513 851 515 851 l 600 493 b 568 440 608 458 597 440 l 453 440 b 419 493 422 440 410 458 z m 310 1144 b 415 1042 310 1082 353 1042 b 519 1144 478 1042 519 1082 b 415 1249 519 1208 478 1249 b 310 1144 353 1249 310 1208 z m 582 1144 b 688 1042 582 1082 624 1042 b 790 1144 749 1042 790 1082 b 688 1249 790 1208 749 1249 b 582 1144 624 1249 582 1208 z "},"Ǟ":{"ha":1100,"x_min":0,"x_max":0,"o":"m 308 57 l 378 324 b 438 376 388 358 407 376 l 582 376 b 642 324 613 376 633 358 l 704 57 b 647 -154 742 -96 721 -139 l 624 -158 l 624 -172 l 1093 -172 l 1093 -158 l 1069 -154 b 907 57 989 -137 943 -86 l 726 806 b 763 1015 692 944 682 999 l 786 1019 l 786 1033 l 286 1033 l 286 1019 l 311 1015 b 372 806 392 999 408 951 l 178 57 b 31 -154 140 -90 107 -139 l 7 -158 l 7 -172 l 406 -172 l 406 -158 l 381 -154 b 308 57 290 -136 276 -74 z m 419 493 l 497 792 b 529 792 513 851 515 851 l 600 493 b 568 440 608 458 597 440 l 453 440 b 419 493 422 440 410 458 z m 315 1140 b 417 1040 315 1079 357 1040 b 519 1140 478 1040 519 1079 b 417 1243 519 1203 478 1243 b 315 1140 357 1243 315 1203 z m 581 1140 b 685 1040 581 1079 622 1040 b 786 1140 744 1040 786 1079 b 685 1243 786 1203 744 1243 b 581 1140 622 1243 581 1203 z m 304 1436 l 304 1353 l 797 1353 l 797 1436 z "},"Ạ":{"ha":1100,"x_min":0,"x_max":0,"o":"m 308 57 l 378 324 b 438 376 388 358 407 376 l 582 376 b 642 324 613 376 633 358 l 704 57 b 647 -154 742 -96 721 -139 l 624 -158 l 624 -172 l 1093 -172 l 1093 -158 l 1069 -154 b 907 57 989 -137 943 -86 l 726 806 b 763 1015 692 944 682 999 l 786 1019 l 786 1033 l 286 1033 l 286 1019 l 311 1015 b 372 806 392 999 408 951 l 178 57 b 31 -154 140 -90 107 -139 l 7 -158 l 7 -172 l 406 -172 l 406 -158 l 381 -154 b 308 57 290 -136 276 -74 z m 419 493 l 497 792 b 529 792 513 851 515 851 l 600 493 b 568 440 608 458 597 440 l 453 440 b 419 493 422 440 410 458 z m 653 -337 b 551 -236 653 -276 613 -236 b 450 -337 492 -236 450 -276 b 551 -439 450 -397 492 -439 b 653 -337 613 -439 653 -397 z "},"À":{"ha":1100,"x_min":0,"x_max":0,"o":"m 308 57 l 378 324 b 438 376 388 358 407 376 l 582 376 b 642 324 613 376 633 358 l 704 57 b 647 -154 742 -96 721 -139 l 624 -158 l 624 -172 l 1093 -172 l 1093 -158 l 1069 -154 b 907 57 989 -137 943 -86 l 726 806 b 763 1015 692 944 682 999 l 786 1019 l 786 1033 l 671 1033 l 607 1208 l 428 1208 l 631 1033 l 286 1033 l 286 1019 l 311 1015 b 372 806 392 999 408 951 l 178 57 b 31 -154 140 -90 107 -139 l 7 -158 l 7 -172 l 406 -172 l 406 -158 l 381 -154 b 308 57 290 -136 276 -74 z m 419 493 l 497 792 b 529 792 513 851 515 851 l 600 493 b 568 440 608 458 597 440 l 453 440 b 419 493 422 440 410 458 z "},"Ả":{"ha":1100,"x_min":0,"x_max":0,"o":"m 308 57 l 378 324 b 438 376 388 358 407 376 l 582 376 b 642 324 613 376 633 358 l 704 57 b 647 -154 742 -96 721 -139 l 624 -158 l 624 -172 l 1093 -172 l 1093 -158 l 1069 -154 b 907 57 989 -137 943 -86 l 726 806 b 763 1015 692 944 682 999 l 786 1019 l 786 1033 l 582 1033 b 703 1178 658 1071 703 1122 b 571 1278 703 1238 654 1278 b 428 1168 496 1278 444 1244 l 431 1167 b 529 1250 444 1211 472 1250 b 599 1175 574 1250 599 1225 b 500 1035 599 1115 563 1064 l 501 1033 l 286 1033 l 286 1019 l 311 1015 b 372 806 392 999 408 951 l 178 57 b 31 -154 140 -90 107 -139 l 7 -158 l 7 -172 l 406 -172 l 406 -158 l 381 -154 b 308 57 290 -136 276 -74 z m 419 493 l 497 792 b 529 792 513 851 515 851 l 600 493 b 568 440 608 458 597 440 l 453 440 b 419 493 422 440 410 458 z "},"Ɑ":{"ha":986,"x_min":0,"x_max":0,"o":"m 935 1196 l 960 1200 l 960 1214 l 490 1214 b -137 613 25 1214 -137 972 b 490 8 -137 219 56 8 l 960 8 l 960 22 l 935 26 b 826 236 856 43 826 90 l 826 985 b 935 1196 826 1132 856 1179 z m 504 1078 l 557 1078 b 629 990 606 1078 629 1050 l 629 233 b 557 146 629 174 606 146 l 504 146 b 79 613 213 146 79 285 b 504 1078 79 901 182 1078 z "},"Ā":{"ha":1100,"x_min":0,"x_max":0,"o":"m 308 57 l 378 324 b 438 376 388 358 407 376 l 582 376 b 642 324 613 376 633 358 l 704 57 b 647 -154 742 -96 721 -139 l 624 -158 l 624 -172 l 1093 -172 l 1093 -158 l 1069 -154 b 907 57 989 -137 943 -86 l 726 806 b 763 1015 692 944 682 999 l 786 1019 l 786 1033 l 286 1033 l 286 1019 l 311 1015 b 372 806 392 999 408 951 l 178 57 b 31 -154 140 -90 107 -139 l 7 -158 l 7 -172 l 406 -172 l 406 -158 l 381 -154 b 308 57 290 -136 276 -74 z m 419 493 l 497 792 b 529 792 513 851 515 851 l 600 493 b 568 440 608 458 597 440 l 453 440 b 419 493 422 440 410 458 z m 304 1174 l 304 1090 l 797 1090 l 797 1174 z "},"Ą":{"ha":1100,"x_min":0,"x_max":0,"o":"m 308 57 l 378 324 b 438 376 388 358 407 376 l 582 376 b 642 324 613 376 633 358 l 704 57 b 647 -154 742 -96 721 -139 l 624 -158 l 624 -172 l 875 -172 b 788 -299 819 -207 788 -251 b 919 -399 788 -358 836 -399 b 1063 -289 994 -399 1046 -365 l 1060 -287 b 961 -371 1046 -332 1018 -371 b 892 -296 917 -371 892 -346 b 961 -172 892 -246 917 -203 l 1093 -172 l 1093 -158 l 1069 -154 b 907 57 989 -137 943 -86 l 726 806 b 763 1015 692 944 682 999 l 786 1019 l 786 1033 l 286 1033 l 286 1019 l 311 1015 b 372 806 392 999 408 951 l 178 57 b 31 -154 140 -90 107 -139 l 7 -158 l 7 -172 l 406 -172 l 406 -158 l 381 -154 b 308 57 290 -136 276 -74 z m 419 493 l 497 792 b 529 792 513 851 515 851 l 600 493 b 568 440 608 458 597 440 l 453 440 b 419 493 422 440 410 458 z "},"Å":{"ha":1100,"x_min":0,"x_max":0,"o":"m 308 57 l 378 324 b 438 376 388 358 407 376 l 582 376 b 642 324 613 376 633 358 l 704 57 b 647 -154 742 -96 721 -139 l 624 -158 l 624 -172 l 1093 -172 l 1093 -158 l 1069 -154 b 907 57 989 -137 943 -86 l 726 806 b 763 1015 692 944 682 999 l 786 1019 l 786 1033 l 636 1033 b 703 1163 678 1058 703 1104 b 551 1314 703 1253 642 1314 b 400 1163 461 1314 400 1253 b 467 1033 400 1104 425 1058 l 286 1033 l 286 1019 l 311 1015 b 372 806 392 999 408 951 l 178 57 b 31 -154 140 -90 107 -139 l 7 -158 l 7 -172 l 406 -172 l 406 -158 l 381 -154 b 308 57 290 -136 276 -74 z m 419 493 l 497 792 b 529 792 513 851 515 851 l 600 493 b 568 440 608 458 597 440 l 453 440 b 419 493 422 440 410 458 z m 496 1163 b 551 1264 496 1222 518 1264 b 607 1163 585 1264 607 1222 b 551 1061 607 1103 585 1061 b 496 1163 518 1061 496 1103 z "},"Ã":{"ha":1100,"x_min":0,"x_max":0,"o":"m 308 57 l 378 324 b 438 376 388 358 407 376 l 582 376 b 642 324 613 376 633 358 l 704 57 b 647 -154 742 -96 721 -139 l 624 -158 l 624 -172 l 1093 -172 l 1093 -158 l 1069 -154 b 907 57 989 -137 943 -86 l 726 806 b 763 1015 692 944 682 999 l 786 1019 l 786 1033 l 286 1033 l 286 1019 l 311 1015 b 372 806 392 999 408 951 l 178 57 b 31 -154 140 -90 107 -139 l 7 -158 l 7 -172 l 406 -172 l 406 -158 l 381 -154 b 308 57 290 -136 276 -74 z m 419 493 l 497 792 b 529 792 513 851 515 851 l 600 493 b 568 440 608 458 597 440 l 453 440 b 419 493 422 440 410 458 z m 263 1036 l 282 1036 b 390 1142 294 1100 338 1142 b 658 1063 472 1142 532 1063 b 838 1282 786 1063 839 1156 l 818 1282 b 711 1175 807 1219 763 1175 b 442 1253 628 1175 569 1253 b 263 1036 315 1253 261 1163 z "},"Æ":{"ha":1225,"x_min":0,"x_max":0,"o":"m 746 164 l 746 608 b 783 656 746 640 760 657 b 975 332 885 651 947 544 l 992 221 l 1004 222 l 953 856 l 944 856 l 942 829 b 796 711 935 743 896 711 l 783 711 b 746 758 758 711 746 726 l 746 878 b 793 938 746 918 761 938 l 947 938 b 1157 729 1064 938 1129 838 l 1164 703 l 1176 703 l 1133 1094 l 1126 1094 b 1039 1042 1126 1065 1117 1042 l 242 1042 l 242 1031 l 264 1026 b 315 844 331 1013 347 971 l 151 197 b 26 15 119 71 90 28 l 6 11 l 6 0 l 343 0 l 343 11 l 322 15 b 263 197 246 31 235 85 l 319 429 b 368 474 326 460 342 474 l 542 474 b 579 426 567 474 579 458 l 579 197 b 486 15 579 71 554 29 l 465 11 l 465 0 l 1082 0 b 1168 -53 1160 0 1168 -24 l 1175 -53 l 1219 339 l 1206 339 l 1199 313 b 989 104 1171 204 1107 104 l 793 104 b 746 164 761 104 746 124 z m 542 529 l 382 529 b 356 574 357 529 349 543 l 433 893 b 482 938 442 924 457 938 l 542 938 b 579 890 567 938 579 922 l 579 576 b 542 529 579 544 567 529 z "},"Ǣ":{"ha":1225,"x_min":0,"x_max":0,"o":"m 746 164 l 746 608 b 783 656 746 640 760 657 b 975 332 885 651 947 544 l 992 221 l 1004 222 l 953 856 l 944 856 l 942 829 b 796 711 935 743 896 711 l 783 711 b 746 758 758 711 746 726 l 746 878 b 793 938 746 918 761 938 l 947 938 b 1157 729 1064 938 1129 838 l 1164 703 l 1176 703 l 1133 1094 l 1126 1094 b 1039 1042 1126 1065 1117 1042 l 242 1042 l 242 1031 l 264 1026 b 315 844 331 1013 347 971 l 151 197 b 26 15 119 71 90 28 l 6 11 l 6 0 l 343 0 l 343 11 l 322 15 b 263 197 246 31 235 85 l 319 429 b 368 474 326 460 342 474 l 542 474 b 579 426 567 474 579 458 l 579 197 b 486 15 579 71 554 29 l 465 11 l 465 0 l 1082 0 b 1168 -53 1160 0 1168 -24 l 1175 -53 l 1219 339 l 1206 339 l 1199 313 b 989 104 1171 204 1107 104 l 793 104 b 746 164 761 104 746 124 z m 542 529 l 382 529 b 356 574 357 529 349 543 l 433 893 b 482 938 442 924 457 938 l 542 938 b 579 890 567 938 579 922 l 579 576 b 542 529 579 544 567 529 z m 365 1188 l 365 1104 l 858 1104 l 858 1188 z "},"B":{"ha":1036,"x_min":0,"x_max":0,"o":"m 517 1033 l 26 1033 l 26 1019 l 51 1015 b 160 806 131 999 160 951 l 160 57 b 51 -154 160 -90 131 -137 l 26 -158 l 26 -172 l 535 -172 b 996 226 821 -172 996 -24 b 571 583 996 463 840 593 b 925 803 792 592 925 664 b 517 1033 925 943 804 1033 z m 406 913 l 506 913 b 715 776 647 913 715 868 b 506 613 715 679 640 613 l 406 613 b 357 672 372 613 357 632 l 357 853 b 406 913 357 893 372 913 z m 506 -53 l 426 -53 b 357 32 379 -53 357 -25 l 357 488 b 432 540 357 524 381 540 l 506 540 b 786 246 701 540 786 451 b 506 -53 786 39 701 -53 z "},"Ḅ":{"ha":1036,"x_min":0,"x_max":0,"o":"m 517 1033 l 26 1033 l 26 1019 l 51 1015 b 160 806 131 999 160 951 l 160 57 b 51 -154 160 -90 131 -137 l 26 -158 l 26 -172 l 535 -172 b 996 226 821 -172 996 -24 b 571 583 996 463 840 593 b 925 803 792 592 925 664 b 517 1033 925 943 804 1033 z m 406 913 l 506 913 b 715 776 647 913 715 868 b 506 613 715 679 640 613 l 406 613 b 357 672 372 613 357 632 l 357 853 b 406 913 357 893 372 913 z m 506 -53 l 426 -53 b 357 32 379 -53 357 -25 l 357 488 b 432 540 357 524 381 540 l 506 540 b 786 246 701 540 786 451 b 506 -53 786 39 701 -53 z m 619 -337 b 518 -236 619 -276 579 -236 b 417 -337 458 -236 417 -276 b 518 -439 417 -397 458 -439 b 619 -337 579 -439 619 -397 z "},"Ƀ":{"ha":1036,"x_min":0,"x_max":0,"o":"m 517 1033 l 26 1033 l 26 1019 l 51 1015 b 160 806 131 999 160 951 l 160 315 l 43 315 l 43 206 l 160 206 l 160 57 b 51 -154 160 -90 131 -137 l 26 -158 l 26 -172 l 535 -172 b 996 226 821 -172 996 -24 b 571 583 996 463 840 593 b 925 803 792 592 925 664 b 517 1033 925 943 804 1033 z m 406 913 l 506 913 b 715 776 647 913 715 868 b 506 613 715 679 640 613 l 406 613 b 357 672 372 613 357 632 l 357 853 b 406 913 357 893 372 913 z m 506 -53 l 426 -53 b 357 32 379 -53 357 -25 l 357 206 l 658 206 l 658 315 l 357 315 l 357 488 b 432 540 357 524 381 540 l 506 540 b 786 246 701 540 786 451 b 506 -53 786 39 701 -53 z "},"C":{"ha":1097,"x_min":0,"x_max":0,"o":"m 1058 256 l 1044 261 b 665 -53 989 33 840 -53 b 256 431 408 -53 256 133 b 606 915 256 724 404 915 b 886 451 831 915 915 672 l 864 279 l 881 276 l 1040 1044 l 1029 1047 l 1014 1015 b 603 1049 976 940 829 1049 b 39 421 264 1049 39 803 b 558 -187 39 61 238 -187 b 1058 256 811 -187 1003 -33 z "},"Ć":{"ha":1097,"x_min":0,"x_max":0,"o":"m 1058 256 l 1044 261 b 665 -53 989 33 840 -53 b 256 431 408 -53 256 133 b 606 915 256 724 404 915 b 886 451 831 915 915 672 l 864 279 l 881 276 l 1040 1044 l 1029 1047 l 1014 1015 b 603 1049 976 940 829 1049 b 39 421 264 1049 39 803 b 558 -187 39 61 238 -187 b 1058 256 811 -187 1003 -33 z m 479 1067 l 513 1067 l 726 1251 l 547 1251 z "},"Č":{"ha":1097,"x_min":0,"x_max":0,"o":"m 1058 256 l 1044 261 b 665 -53 989 33 840 -53 b 256 431 408 -53 256 133 b 606 915 256 724 404 915 b 886 451 831 915 915 672 l 864 279 l 881 276 l 1040 1044 l 1029 1047 l 1014 1015 b 603 1049 976 940 829 1049 b 39 421 264 1049 39 803 b 558 -187 39 61 238 -187 b 1058 256 811 -187 1003 -33 z m 424 1329 l 415 1318 b 601 1056 465 1285 529 1201 b 789 1318 675 1201 739 1285 l 781 1329 b 601 1218 722 1300 657 1271 b 424 1329 547 1271 482 1300 z "},"Ç":{"ha":1097,"x_min":0,"x_max":0,"o":"m 1058 256 l 1044 261 b 665 -53 989 33 840 -53 b 256 431 408 -53 256 133 b 606 915 256 724 404 915 b 886 451 831 915 915 672 l 864 279 l 881 276 l 1040 1044 l 1029 1047 l 1014 1015 b 603 1049 976 940 829 1049 b 39 421 264 1049 39 803 b 511 -186 39 79 218 -162 l 428 -343 l 436 -349 b 539 -289 457 -310 493 -289 b 628 -376 594 -289 628 -321 b 529 -469 628 -435 590 -469 b 435 -406 486 -469 450 -453 l 432 -407 b 574 -497 444 -465 493 -497 b 732 -374 681 -497 732 -449 b 563 -247 732 -297 678 -247 b 540 -249 554 -247 547 -247 l 574 -187 b 1058 256 819 -181 1004 -28 z "},"Ĉ":{"ha":1097,"x_min":0,"x_max":0,"o":"m 1058 256 l 1044 261 b 665 -53 989 33 840 -53 b 256 431 408 -53 256 133 b 606 915 256 724 404 915 b 886 451 831 915 915 672 l 864 279 l 881 276 l 1040 1044 l 1029 1047 l 1014 1015 b 603 1049 976 940 829 1049 b 39 421 264 1049 39 803 b 558 -187 39 61 238 -187 b 1058 256 811 -187 1003 -33 z m 415 1067 l 424 1056 b 601 1167 482 1085 547 1114 b 781 1056 657 1114 722 1085 l 789 1067 b 601 1329 739 1100 675 1183 b 415 1067 529 1183 465 1100 z "},"Ċ":{"ha":1097,"x_min":0,"x_max":0,"o":"m 1058 256 l 1044 261 b 665 -53 989 33 840 -53 b 256 431 408 -53 256 133 b 606 915 256 724 404 915 b 886 451 831 915 915 672 l 864 279 l 881 276 l 1040 1044 l 1029 1047 l 1014 1015 b 603 1049 976 940 829 1049 b 39 421 264 1049 39 803 b 558 -187 39 61 238 -187 b 1058 256 811 -187 1003 -33 z m 501 1167 b 603 1065 501 1106 542 1065 b 704 1167 663 1065 704 1106 b 603 1268 704 1226 663 1268 b 501 1167 542 1268 501 1226 z "},"D":{"ha":1164,"x_min":0,"x_max":0,"o":"m 51 -154 l 26 -158 l 26 -172 l 496 -172 b 1124 429 961 -172 1124 69 b 496 1033 1124 822 931 1033 l 26 1033 l 26 1019 l 51 1015 b 160 806 131 999 160 951 l 160 57 b 51 -154 160 -90 131 -137 z m 482 -36 l 429 -36 b 357 51 381 -36 357 -8 l 357 808 b 429 896 357 868 381 896 l 482 896 b 907 429 774 896 907 757 b 482 -36 907 140 804 -36 z "},"Ď":{"ha":1164,"x_min":0,"x_max":0,"o":"m 51 -154 l 26 -158 l 26 -172 l 496 -172 b 1124 429 961 -172 1124 69 b 592 1029 1124 792 960 1000 b 768 1269 661 1161 721 1238 l 760 1281 b 581 1169 701 1251 636 1222 b 403 1281 526 1222 461 1251 l 394 1269 b 568 1032 442 1238 501 1163 b 496 1033 544 1032 521 1033 l 26 1033 l 26 1019 l 51 1015 b 160 806 131 999 160 951 l 160 57 b 51 -154 160 -90 131 -137 z m 482 -36 l 429 -36 b 357 51 381 -36 357 -8 l 357 808 b 429 896 357 868 381 896 l 482 896 b 907 429 774 896 907 757 b 482 -36 907 140 804 -36 z "},"Ḓ":{"ha":1164,"x_min":0,"x_max":0,"o":"m 51 -154 l 26 -158 l 26 -172 l 496 -172 b 1124 429 961 -172 1124 69 b 496 1033 1124 822 931 1033 l 26 1033 l 26 1019 l 51 1015 b 160 806 131 999 160 951 l 160 57 b 51 -154 160 -90 131 -137 z m 482 -36 l 429 -36 b 357 51 381 -36 357 -8 l 357 808 b 429 896 357 868 381 896 l 482 896 b 907 429 774 896 907 757 b 482 -36 907 140 804 -36 z m 761 -500 l 769 -489 b 583 -226 719 -456 656 -372 b 396 -489 510 -372 446 -456 l 404 -500 b 583 -389 463 -471 528 -442 b 761 -500 638 -442 703 -471 z "},"Đ":{"ha":997,"x_min":0,"x_max":0,"o":"m 54 15 l 33 11 l 33 0 l 431 0 b 964 519 826 0 964 208 b 431 1042 964 860 799 1042 l 33 1042 l 33 1031 l 54 1026 b 147 844 122 1013 147 971 l 147 572 l 22 572 l 22 463 l 147 463 l 147 197 b 54 15 147 71 122 29 z m 419 117 l 367 117 b 314 183 331 117 314 139 l 314 396 b 367 463 314 440 331 463 l 467 463 l 467 572 l 367 572 b 314 639 331 572 314 594 l 314 857 b 367 924 314 901 331 924 l 419 924 b 781 519 667 924 781 803 b 419 117 781 269 693 117 z "},"Ḍ":{"ha":1164,"x_min":0,"x_max":0,"o":"m 51 -154 l 26 -158 l 26 -172 l 496 -172 b 1124 429 961 -172 1124 69 b 496 1033 1124 822 931 1033 l 26 1033 l 26 1019 l 51 1015 b 160 806 131 999 160 951 l 160 57 b 51 -154 160 -90 131 -137 z m 482 -36 l 429 -36 b 357 51 381 -36 357 -8 l 357 808 b 429 896 357 868 381 896 l 482 896 b 907 429 774 896 907 757 b 482 -36 907 140 804 -36 z m 683 -337 b 582 -236 683 -276 643 -236 b 481 -337 522 -236 481 -276 b 582 -439 481 -397 522 -439 b 683 -337 643 -439 683 -397 z "},"Ḏ":{"ha":1164,"x_min":0,"x_max":0,"o":"m 51 -154 l 26 -158 l 26 -172 l 496 -172 b 1124 429 961 -172 1124 69 b 496 1033 1124 822 931 1033 l 26 1033 l 26 1019 l 51 1015 b 160 806 131 999 160 951 l 160 57 b 51 -154 160 -90 131 -137 z m 482 -36 l 429 -36 b 357 51 381 -36 357 -8 l 357 808 b 429 896 357 868 381 896 l 482 896 b 907 429 774 896 907 757 b 482 -36 907 140 804 -36 z m 829 -387 l 829 -304 l 336 -304 l 336 -387 z "},"Ɖ":{"ha":997,"x_min":0,"x_max":0,"o":"m 54 15 l 33 11 l 33 0 l 431 0 b 964 519 826 0 964 208 b 431 1042 964 860 799 1042 l 33 1042 l 33 1031 l 54 1026 b 147 844 122 1013 147 971 l 147 572 l 22 572 l 22 463 l 147 463 l 147 197 b 54 15 147 71 122 29 z m 419 117 l 367 117 b 314 183 331 117 314 139 l 314 396 b 367 463 314 440 331 463 l 467 463 l 467 572 l 367 572 b 314 639 331 572 314 594 l 314 857 b 367 924 314 901 331 924 l 419 924 b 781 519 667 924 781 803 b 419 117 781 269 693 117 z "},"Ð":{"ha":997,"x_min":0,"x_max":0,"o":"m 54 15 l 33 11 l 33 0 l 431 0 b 964 519 826 0 964 208 b 431 1042 964 860 799 1042 l 33 1042 l 33 1031 l 54 1026 b 147 844 122 1013 147 971 l 147 572 l 22 572 l 22 463 l 147 463 l 147 197 b 54 15 147 71 122 29 z m 419 117 l 367 117 b 314 183 331 117 314 139 l 314 396 b 367 463 314 440 331 463 l 467 463 l 467 572 l 367 572 b 314 639 331 572 314 594 l 314 857 b 367 924 314 901 331 924 l 419 924 b 781 519 667 924 781 803 b 419 117 781 269 693 117 z "},"E":{"ha":922,"x_min":0,"x_max":0,"o":"m 357 18 l 357 526 b 406 586 357 567 374 588 b 628 213 522 578 594 454 l 647 83 l 663 85 l 603 818 l 592 818 l 589 788 b 417 651 581 688 533 651 l 406 651 b 357 710 372 651 357 669 l 357 843 b 414 913 357 890 375 913 l 594 913 b 842 672 733 913 810 797 l 850 642 l 865 642 l 815 1094 l 806 1094 b 703 1033 806 1060 794 1033 l 26 1033 l 26 1019 l 51 1015 b 160 806 131 999 160 951 l 160 57 b 51 -154 160 -90 131 -137 l 26 -158 l 26 -172 l 753 -172 b 854 -207 822 -172 854 -174 l 864 -207 l 915 221 l 899 221 l 892 190 b 643 -51 860 64 783 -51 l 414 -51 b 357 18 375 -51 357 -29 z "},"É":{"ha":922,"x_min":0,"x_max":0,"o":"m 357 18 l 357 526 b 406 586 357 567 374 588 b 628 213 522 578 594 454 l 647 83 l 663 85 l 603 818 l 592 818 l 589 788 b 417 651 581 688 533 651 l 406 651 b 357 710 372 651 357 669 l 357 843 b 414 913 357 890 375 913 l 594 913 b 842 672 733 913 810 797 l 850 642 l 865 642 l 815 1094 l 806 1094 b 703 1033 806 1060 794 1033 l 429 1033 l 625 1203 l 446 1203 l 383 1033 l 26 1033 l 26 1019 l 51 1015 b 160 806 131 999 160 951 l 160 57 b 51 -154 160 -90 131 -137 l 26 -158 l 26 -172 l 753 -172 b 854 -207 822 -172 854 -174 l 864 -207 l 915 221 l 899 221 l 892 190 b 643 -51 860 64 783 -51 l 414 -51 b 357 18 375 -51 357 -29 z "},"Ě":{"ha":922,"x_min":0,"x_max":0,"o":"m 357 18 l 357 526 b 406 586 357 567 374 588 b 628 213 522 578 594 454 l 647 83 l 663 85 l 603 818 l 592 818 l 589 788 b 417 651 581 688 533 651 l 406 651 b 357 710 372 651 357 669 l 357 843 b 414 913 357 890 375 913 l 594 913 b 842 672 733 913 810 797 l 850 642 l 865 642 l 815 1094 l 806 1094 b 703 1033 806 1060 794 1033 l 514 1033 b 688 1269 582 1163 640 1238 l 679 1281 b 500 1169 621 1251 556 1222 b 322 1281 446 1222 381 1251 l 314 1269 b 486 1033 361 1238 419 1163 l 26 1033 l 26 1019 l 51 1015 b 160 806 131 999 160 951 l 160 57 b 51 -154 160 -90 131 -137 l 26 -158 l 26 -172 l 753 -172 b 854 -207 822 -172 854 -174 l 864 -207 l 915 221 l 899 221 l 892 190 b 643 -51 860 64 783 -51 l 414 -51 b 357 18 375 -51 357 -29 z "},"Ȩ":{"ha":922,"x_min":0,"x_max":0,"o":"m 357 18 l 357 526 b 406 586 357 567 374 588 b 628 213 522 578 594 454 l 647 83 l 663 85 l 603 818 l 592 818 l 589 788 b 417 651 581 688 533 651 l 406 651 b 357 710 372 651 357 669 l 357 843 b 414 913 357 890 375 913 l 594 913 b 842 672 733 913 810 797 l 850 642 l 865 642 l 815 1094 l 806 1094 b 703 1033 806 1060 794 1033 l 26 1033 l 26 1019 l 51 1015 b 160 806 131 999 160 951 l 160 57 b 51 -154 160 -90 131 -137 l 26 -158 l 26 -172 l 429 -172 l 339 -343 l 347 -349 b 450 -289 368 -310 404 -289 b 539 -376 506 -289 539 -321 b 440 -469 539 -435 501 -469 b 346 -406 397 -469 361 -453 l 343 -407 b 485 -497 356 -465 404 -497 b 643 -374 592 -497 643 -449 b 474 -247 643 -297 589 -247 b 451 -249 465 -247 458 -247 l 493 -172 l 753 -172 b 854 -207 822 -172 854 -174 l 864 -207 l 915 221 l 899 221 l 892 190 b 643 -51 860 64 783 -51 l 414 -51 b 357 18 375 -51 357 -29 z "},"Ê":{"ha":922,"x_min":0,"x_max":0,"o":"m 357 18 l 357 526 b 406 586 357 567 374 588 b 628 213 522 578 594 454 l 647 83 l 663 85 l 603 818 l 592 818 l 589 788 b 417 651 581 688 533 651 l 406 651 b 357 710 372 651 357 669 l 357 843 b 414 913 357 890 375 913 l 594 913 b 842 672 733 913 810 797 l 850 642 l 865 642 l 815 1094 l 806 1094 b 703 1033 806 1060 794 1033 l 668 1033 b 500 1281 621 1074 564 1153 b 333 1033 438 1153 381 1074 l 26 1033 l 26 1019 l 51 1015 b 160 806 131 999 160 951 l 160 57 b 51 -154 160 -90 131 -137 l 26 -158 l 26 -172 l 753 -172 b 854 -207 822 -172 854 -174 l 864 -207 l 915 221 l 899 221 l 892 190 b 643 -51 860 64 783 -51 l 414 -51 b 357 18 375 -51 357 -29 z m 375 1033 b 500 1118 418 1056 461 1081 b 626 1033 539 1081 583 1056 z "},"Ế":{"ha":922,"x_min":0,"x_max":0,"o":"m 357 18 l 357 526 b 406 586 357 567 374 588 b 628 213 522 578 594 454 l 647 83 l 663 85 l 603 818 l 592 818 l 589 788 b 417 651 581 688 533 651 l 406 651 b 357 710 372 651 357 669 l 357 843 b 414 913 357 890 375 913 l 594 913 b 842 672 733 913 810 797 l 850 642 l 865 642 l 815 1094 l 806 1094 b 703 1033 806 1060 794 1033 l 668 1033 b 500 1281 621 1074 564 1153 b 333 1033 438 1153 381 1074 l 26 1033 l 26 1019 l 51 1015 b 160 806 131 999 160 951 l 160 57 b 51 -154 160 -90 131 -137 l 26 -158 l 26 -172 l 753 -172 b 854 -207 822 -172 854 -174 l 864 -207 l 915 221 l 899 221 l 892 190 b 643 -51 860 64 783 -51 l 414 -51 b 357 18 375 -51 357 -29 z m 378 1346 l 411 1346 l 625 1531 l 446 1531 z m 375 1033 b 500 1118 418 1056 461 1081 b 626 1033 539 1081 583 1056 z "},"Ệ":{"ha":922,"x_min":0,"x_max":0,"o":"m 357 18 l 357 526 b 406 586 357 567 374 588 b 628 213 522 578 594 454 l 647 83 l 663 85 l 603 818 l 592 818 l 589 788 b 417 651 581 688 533 651 l 406 651 b 357 710 372 651 357 669 l 357 843 b 414 913 357 890 375 913 l 594 913 b 842 672 733 913 810 797 l 850 642 l 865 642 l 815 1094 l 806 1094 b 703 1033 806 1060 794 1033 l 668 1033 b 500 1281 621 1074 564 1153 b 333 1033 438 1153 381 1074 l 26 1033 l 26 1019 l 51 1015 b 160 806 131 999 160 951 l 160 57 b 51 -154 160 -90 131 -137 l 26 -158 l 26 -172 l 753 -172 b 854 -207 822 -172 854 -174 l 864 -207 l 915 221 l 899 221 l 892 190 b 643 -51 860 64 783 -51 l 414 -51 b 357 18 375 -51 357 -29 z m 563 -337 b 461 -236 563 -276 522 -236 b 360 -337 401 -236 360 -276 b 461 -439 360 -397 401 -439 b 563 -337 522 -439 563 -397 z m 375 1033 b 500 1118 418 1056 461 1081 b 626 1033 539 1081 583 1056 z "},"Ề":{"ha":922,"x_min":0,"x_max":0,"o":"m 357 18 l 357 526 b 406 586 357 567 374 588 b 628 213 522 578 594 454 l 647 83 l 663 85 l 603 818 l 592 818 l 589 788 b 417 651 581 688 533 651 l 406 651 b 357 710 372 651 357 669 l 357 843 b 414 913 357 890 375 913 l 594 913 b 842 672 733 913 810 797 l 850 642 l 865 642 l 815 1094 l 806 1094 b 703 1033 806 1060 794 1033 l 668 1033 b 500 1281 621 1074 564 1153 b 333 1033 438 1153 381 1074 l 26 1033 l 26 1019 l 51 1015 b 160 806 131 999 160 951 l 160 57 b 51 -154 160 -90 131 -137 l 26 -158 l 26 -172 l 753 -172 b 854 -207 822 -172 854 -174 l 864 -207 l 915 221 l 899 221 l 892 190 b 643 -51 860 64 783 -51 l 414 -51 b 357 18 375 -51 357 -29 z m 378 1531 l 592 1346 l 625 1346 l 557 1531 z m 375 1033 b 500 1118 418 1056 461 1081 b 626 1033 539 1081 583 1056 z "},"Ể":{"ha":922,"x_min":0,"x_max":0,"o":"m 357 18 l 357 526 b 406 586 357 567 374 588 b 628 213 522 578 594 454 l 647 83 l 663 85 l 603 818 l 592 818 l 589 788 b 417 651 581 688 533 651 l 406 651 b 357 710 372 651 357 669 l 357 843 b 414 913 357 890 375 913 l 594 913 b 842 672 733 913 810 797 l 850 642 l 865 642 l 815 1094 l 806 1094 b 703 1033 806 1060 794 1033 l 668 1033 b 500 1281 621 1074 564 1153 b 333 1033 438 1153 381 1074 l 26 1033 l 26 1019 l 51 1015 b 160 806 131 999 160 951 l 160 57 b 51 -154 160 -90 131 -137 l 26 -158 l 26 -172 l 753 -172 b 854 -207 822 -172 854 -174 l 864 -207 l 915 221 l 899 221 l 892 190 b 643 -51 860 64 783 -51 l 414 -51 b 357 18 375 -51 357 -29 z m 378 1490 l 381 1489 b 479 1572 394 1533 422 1572 b 549 1497 524 1572 549 1547 b 450 1357 549 1438 513 1386 l 464 1329 b 653 1500 582 1365 653 1429 b 521 1600 653 1560 604 1600 b 378 1490 446 1600 394 1567 z m 375 1033 b 500 1118 418 1056 461 1081 b 626 1033 539 1081 583 1056 z "},"Ễ":{"ha":922,"x_min":0,"x_max":0,"o":"m 357 18 l 357 526 b 406 586 357 567 374 588 b 628 213 522 578 594 454 l 647 83 l 663 85 l 603 818 l 592 818 l 589 788 b 417 651 581 688 533 651 l 406 651 b 357 710 372 651 357 669 l 357 843 b 414 913 357 890 375 913 l 594 913 b 842 672 733 913 810 797 l 850 642 l 865 642 l 815 1094 l 806 1094 b 703 1033 806 1060 794 1033 l 668 1033 b 500 1281 621 1074 564 1153 b 333 1033 438 1153 381 1074 l 26 1033 l 26 1019 l 51 1015 b 160 806 131 999 160 951 l 160 57 b 51 -154 160 -90 131 -137 l 26 -158 l 26 -172 l 753 -172 b 854 -207 822 -172 854 -174 l 864 -207 l 915 221 l 899 221 l 892 190 b 643 -51 860 64 783 -51 l 414 -51 b 357 18 375 -51 357 -29 z m 278 1358 l 293 1358 b 376 1464 303 1422 336 1464 b 585 1385 440 1464 486 1385 b 724 1604 683 1385 725 1478 l 708 1604 b 625 1497 700 1542 665 1497 b 417 1575 561 1497 515 1575 b 278 1358 318 1575 276 1485 z m 375 1033 b 500 1118 418 1056 461 1081 b 626 1033 539 1081 583 1056 z "},"Ë":{"ha":922,"x_min":0,"x_max":0,"o":"m 357 18 l 357 526 b 406 586 357 567 374 588 b 628 213 522 578 594 454 l 647 83 l 663 85 l 603 818 l 592 818 l 589 788 b 417 651 581 688 533 651 l 406 651 b 357 710 372 651 357 669 l 357 843 b 414 913 357 890 375 913 l 594 913 b 842 672 733 913 810 797 l 850 642 l 865 642 l 815 1094 l 806 1094 b 703 1033 806 1060 794 1033 l 661 1033 b 721 1122 697 1046 721 1078 b 626 1218 721 1181 682 1218 b 529 1122 568 1218 529 1181 b 590 1033 529 1078 553 1046 l 413 1033 b 472 1122 449 1046 472 1078 b 376 1218 472 1181 433 1218 b 281 1122 319 1218 281 1181 b 340 1033 281 1078 304 1046 l 26 1033 l 26 1019 l 51 1015 b 160 806 131 999 160 951 l 160 57 b 51 -154 160 -90 131 -137 l 26 -158 l 26 -172 l 753 -172 b 854 -207 822 -172 854 -174 l 864 -207 l 915 221 l 899 221 l 892 190 b 643 -51 860 64 783 -51 l 414 -51 b 357 18 375 -51 357 -29 z "},"Ė":{"ha":922,"x_min":0,"x_max":0,"o":"m 357 18 l 357 526 b 406 586 357 567 374 588 b 628 213 522 578 594 454 l 647 83 l 663 85 l 603 818 l 592 818 l 589 788 b 417 651 581 688 533 651 l 406 651 b 357 710 372 651 357 669 l 357 843 b 414 913 357 890 375 913 l 594 913 b 842 672 733 913 810 797 l 850 642 l 865 642 l 815 1094 l 806 1094 b 703 1033 806 1060 794 1033 l 561 1033 b 603 1118 588 1050 603 1081 b 501 1219 603 1178 561 1219 b 400 1118 440 1219 400 1178 b 442 1033 400 1081 415 1050 l 26 1033 l 26 1019 l 51 1015 b 160 806 131 999 160 951 l 160 57 b 51 -154 160 -90 131 -137 l 26 -158 l 26 -172 l 753 -172 b 854 -207 822 -172 854 -174 l 864 -207 l 915 221 l 899 221 l 892 190 b 643 -51 860 64 783 -51 l 414 -51 b 357 18 375 -51 357 -29 z "},"Ẹ":{"ha":922,"x_min":0,"x_max":0,"o":"m 357 18 l 357 526 b 406 586 357 567 374 588 b 628 213 522 578 594 454 l 647 83 l 663 85 l 603 818 l 592 818 l 589 788 b 417 651 581 688 533 651 l 406 651 b 357 710 372 651 357 669 l 357 843 b 414 913 357 890 375 913 l 594 913 b 842 672 733 913 810 797 l 850 642 l 865 642 l 815 1094 l 806 1094 b 703 1033 806 1060 794 1033 l 26 1033 l 26 1019 l 51 1015 b 160 806 131 999 160 951 l 160 57 b 51 -154 160 -90 131 -137 l 26 -158 l 26 -172 l 753 -172 b 854 -207 822 -172 854 -174 l 864 -207 l 915 221 l 899 221 l 892 190 b 643 -51 860 64 783 -51 l 414 -51 b 357 18 375 -51 357 -29 z m 563 -337 b 461 -236 563 -276 522 -236 b 360 -337 401 -236 360 -276 b 461 -439 360 -397 401 -439 b 563 -337 522 -439 563 -397 z "},"È":{"ha":922,"x_min":0,"x_max":0,"o":"m 357 18 l 357 526 b 406 586 357 567 374 588 b 628 213 522 578 594 454 l 647 83 l 663 85 l 603 818 l 592 818 l 589 788 b 417 651 581 688 533 651 l 406 651 b 357 710 372 651 357 669 l 357 843 b 414 913 357 890 375 913 l 594 913 b 842 672 733 913 810 797 l 850 642 l 865 642 l 815 1094 l 806 1094 b 703 1033 806 1060 794 1033 l 619 1033 l 557 1203 l 378 1203 l 574 1033 l 26 1033 l 26 1019 l 51 1015 b 160 806 131 999 160 951 l 160 57 b 51 -154 160 -90 131 -137 l 26 -158 l 26 -172 l 753 -172 b 854 -207 822 -172 854 -174 l 864 -207 l 915 221 l 899 221 l 892 190 b 643 -51 860 64 783 -51 l 414 -51 b 357 18 375 -51 357 -29 z "},"Ẻ":{"ha":922,"x_min":0,"x_max":0,"o":"m 357 18 l 357 526 b 406 586 357 567 374 588 b 628 213 522 578 594 454 l 647 83 l 663 85 l 603 818 l 592 818 l 589 788 b 417 651 581 688 533 651 l 406 651 b 357 710 372 651 357 669 l 357 843 b 414 913 357 890 375 913 l 594 913 b 842 672 733 913 810 797 l 850 642 l 865 642 l 815 1094 l 806 1094 b 703 1033 806 1060 794 1033 l 543 1033 b 653 1172 613 1069 653 1119 b 521 1272 653 1232 604 1272 b 378 1163 446 1272 394 1239 l 381 1161 b 479 1244 394 1206 422 1244 b 549 1169 524 1244 549 1219 b 458 1033 549 1113 515 1063 l 26 1033 l 26 1019 l 51 1015 b 160 806 131 999 160 951 l 160 57 b 51 -154 160 -90 131 -137 l 26 -158 l 26 -172 l 753 -172 b 854 -207 822 -172 854 -174 l 864 -207 l 915 221 l 899 221 l 892 190 b 643 -51 860 64 783 -51 l 414 -51 b 357 18 375 -51 357 -29 z "},"Ē":{"ha":922,"x_min":0,"x_max":0,"o":"m 357 18 l 357 526 b 406 586 357 567 374 588 b 628 213 522 578 594 454 l 647 83 l 663 85 l 603 818 l 592 818 l 589 788 b 417 651 581 688 533 651 l 406 651 b 357 710 372 651 357 669 l 357 843 b 414 913 357 890 375 913 l 594 913 b 842 672 733 913 810 797 l 850 642 l 865 642 l 815 1094 l 806 1094 b 703 1033 806 1060 794 1033 l 26 1033 l 26 1019 l 51 1015 b 160 806 131 999 160 951 l 160 57 b 51 -154 160 -90 131 -137 l 26 -158 l 26 -172 l 753 -172 b 854 -207 822 -172 854 -174 l 864 -207 l 915 221 l 899 221 l 892 190 b 643 -51 860 64 783 -51 l 414 -51 b 357 18 375 -51 357 -29 z m 254 1168 l 254 1085 l 747 1085 l 747 1168 z "},"Ę":{"ha":922,"x_min":0,"x_max":0,"o":"m 357 18 l 357 526 b 406 586 357 567 374 588 b 628 213 522 578 594 454 l 647 83 l 663 85 l 603 818 l 592 818 l 589 788 b 417 651 581 688 533 651 l 406 651 b 357 710 372 651 357 669 l 357 843 b 414 913 357 890 375 913 l 594 913 b 842 672 733 913 810 797 l 850 642 l 865 642 l 815 1094 l 806 1094 b 703 1033 806 1060 794 1033 l 26 1033 l 26 1019 l 51 1015 b 160 806 131 999 160 951 l 160 57 b 51 -154 160 -90 131 -137 l 26 -158 l 26 -172 l 715 -172 b 628 -299 660 -207 628 -251 b 760 -399 628 -358 676 -399 b 903 -289 835 -399 886 -365 l 900 -287 b 801 -371 886 -332 858 -371 b 732 -296 757 -371 732 -346 b 800 -174 732 -247 757 -203 b 854 -207 838 -175 854 -182 l 864 -207 l 915 221 l 899 221 l 892 190 b 643 -51 860 64 783 -51 l 414 -51 b 357 18 375 -51 357 -29 z "},"Ǝ":{"ha":782,"x_min":0,"x_max":0,"o":"m 425 1024 l 425 515 b 376 456 425 475 408 454 b 154 829 260 464 188 588 l 135 958 l 119 957 l 179 224 l 190 224 l 193 254 b 365 390 201 354 249 390 l 376 390 b 425 332 410 390 425 372 l 425 199 b 368 129 425 151 407 129 l 188 129 b -60 369 49 129 -28 244 l -68 400 l -83 400 l -33 -53 l -24 -53 b 79 8 -24 -18 -12 8 l 756 8 l 756 22 l 731 26 b 622 236 651 43 622 90 l 622 985 b 731 1196 622 1132 651 1179 l 756 1200 l 756 1214 l 29 1214 b -72 1249 -40 1214 -72 1215 l -82 1249 l -133 821 l -117 821 l -110 851 b 139 1093 -78 978 -1 1093 l 368 1093 b 425 1024 407 1093 425 1071 z "},"Ẽ":{"ha":922,"x_min":0,"x_max":0,"o":"m 357 18 l 357 526 b 406 586 357 567 374 588 b 628 213 522 578 594 454 l 647 83 l 663 85 l 603 818 l 592 818 l 589 788 b 417 651 581 688 533 651 l 406 651 b 357 710 372 651 357 669 l 357 843 b 414 913 357 890 375 913 l 594 913 b 842 672 733 913 810 797 l 850 642 l 865 642 l 815 1094 l 806 1094 b 703 1033 806 1060 794 1033 l 293 1033 b 376 1136 304 1096 336 1136 b 585 1057 440 1136 486 1057 b 724 1276 683 1057 725 1150 l 708 1276 b 625 1169 700 1214 665 1169 b 417 1247 561 1169 515 1247 b 278 1033 319 1247 276 1158 l 26 1033 l 26 1019 l 51 1015 b 160 806 131 999 160 951 l 160 57 b 51 -154 160 -90 131 -137 l 26 -158 l 26 -172 l 753 -172 b 854 -207 822 -172 854 -174 l 864 -207 l 915 221 l 899 221 l 892 190 b 643 -51 860 64 783 -51 l 414 -51 b 357 18 375 -51 357 -29 z "},"Ə":{"ha":931,"x_min":0,"x_max":0,"o":"m -128 786 l -114 781 b 265 1094 -58 1008 90 1094 b 675 611 522 1094 675 908 b 325 126 675 318 526 126 b 44 590 100 126 15 369 l 67 763 l 50 765 l -110 -3 l -99 -6 l -83 26 b 328 -7 -46 101 101 -7 b 892 621 667 -7 892 239 b 372 1229 892 981 693 1229 b -128 786 119 1229 -72 1075 z "},"Ʒ":{"ha":782,"x_min":0,"x_max":0,"o":"m 425 1024 l 425 515 b 376 456 425 475 408 454 b 154 829 260 464 188 588 l 135 958 l 119 957 l 179 224 l 190 224 l 193 254 b 365 390 201 354 249 390 l 376 390 b 425 332 410 390 425 372 l 425 199 b 368 129 425 151 407 129 l 188 129 b -60 369 49 129 -28 244 l -68 400 l -83 400 l -33 -53 l -24 -53 b 79 8 -24 -18 -12 8 l 756 8 l 756 22 l 731 26 b 622 236 651 43 622 90 l 622 985 b 731 1196 622 1132 651 1179 l 756 1200 l 756 1214 l 29 1214 b -72 1249 -40 1214 -72 1215 l -82 1249 l -133 821 l -117 821 l -110 851 b 139 1093 -78 978 -1 1093 l 368 1093 b 425 1024 407 1093 425 1071 z "},"Ǯ":{"ha":782,"x_min":0,"x_max":0,"o":"m 425 1024 l 425 515 b 376 456 425 475 408 454 b 154 829 260 464 188 588 l 135 958 l 119 957 l 179 224 l 190 224 l 193 254 b 365 390 201 354 249 390 l 376 390 b 425 332 410 390 425 372 l 425 199 b 368 129 425 151 407 129 l 188 129 b -60 369 49 129 -28 244 l -68 400 l -83 400 l -33 -53 l -24 -53 b 79 8 -24 -18 -12 8 l 756 8 l 756 22 l 731 26 b 622 236 651 43 622 90 l 622 985 b 731 1196 622 1132 651 1179 l 756 1200 l 756 1214 l 29 1214 b -72 1249 -40 1214 -72 1215 l -82 1249 l -133 821 l -117 821 l -110 851 b 139 1093 -78 978 -1 1093 l 368 1093 b 425 1024 407 1093 425 1071 z m 140 1542 l 132 1531 b 318 1268 182 1497 246 1414 b 506 1531 392 1414 456 1497 l 497 1542 b 318 1431 439 1513 374 1483 b 140 1542 264 1483 199 1513 z "},"F":{"ha":872,"x_min":0,"x_max":0,"o":"m 357 57 l 357 529 b 404 586 357 569 374 590 b 621 213 517 575 588 451 l 640 83 l 656 85 l 596 818 l 585 818 l 582 788 b 408 651 574 688 526 651 l 404 651 b 357 708 372 651 357 669 l 357 843 b 414 913 357 890 375 913 l 588 913 b 836 672 726 913 803 797 l 843 642 l 860 642 l 807 1094 l 799 1094 b 697 1033 799 1060 788 1033 l 26 1033 l 26 1019 l 51 1015 b 160 806 131 999 160 951 l 160 57 b 51 -154 160 -90 131 -137 l 26 -158 l 26 -172 l 490 -172 l 490 -158 l 465 -154 b 357 57 385 -137 357 -90 z "},"G":{"ha":1157,"x_min":0,"x_max":0,"o":"m 826 142 l 826 58 b 756 -51 826 -3 803 -40 b 638 -65 715 -61 676 -65 b 256 418 404 -65 256 107 b 626 914 256 729 404 915 b 894 624 796 913 914 803 l 881 490 l 896 488 l 1019 1079 l 1008 1083 l 993 1050 b 626 1049 956 975 829 1049 b 39 411 264 1049 39 810 b 607 -187 39 26 250 -187 b 1010 -97 728 -187 836 -164 l 1010 142 b 1119 351 1010 288 1039 336 l 1143 357 l 1143 369 l 571 369 l 571 350 l 654 342 b 826 142 760 333 826 261 z "},"Ğ":{"ha":1157,"x_min":0,"x_max":0,"o":"m 826 142 l 826 58 b 756 -51 826 -3 803 -40 b 638 -65 715 -61 676 -65 b 256 418 404 -65 256 107 b 626 914 256 729 404 915 b 894 624 796 913 914 803 l 881 490 l 896 488 l 1019 1079 l 1008 1083 l 993 1050 b 626 1049 956 975 829 1049 b 39 411 264 1049 39 810 b 607 -187 39 26 250 -187 b 1010 -97 728 -187 836 -164 l 1010 142 b 1119 351 1010 288 1039 336 l 1143 357 l 1143 369 l 571 369 l 571 350 l 654 342 b 826 142 760 333 826 261 z m 618 1172 b 494 1326 546 1172 493 1238 l 483 1326 b 617 1056 465 1164 519 1056 b 753 1326 714 1056 771 1164 l 742 1326 b 618 1172 743 1238 690 1172 z "},"Ǧ":{"ha":1157,"x_min":0,"x_max":0,"o":"m 826 142 l 826 58 b 756 -51 826 -3 803 -40 b 638 -65 715 -61 676 -65 b 256 418 404 -65 256 107 b 626 914 256 729 404 915 b 894 624 796 913 914 803 l 881 490 l 896 488 l 1019 1079 l 1008 1083 l 993 1050 b 626 1049 956 975 829 1049 b 39 411 264 1049 39 810 b 607 -187 39 26 250 -187 b 1010 -97 728 -187 836 -164 l 1010 142 b 1119 351 1010 288 1039 336 l 1143 357 l 1143 369 l 571 369 l 571 350 l 654 342 b 826 142 760 333 826 261 z m 439 1329 l 431 1318 b 617 1056 481 1285 544 1201 b 804 1318 690 1201 754 1285 l 796 1329 b 617 1218 738 1300 672 1271 b 439 1329 563 1271 497 1300 z "},"Ĝ":{"ha":1157,"x_min":0,"x_max":0,"o":"m 826 142 l 826 58 b 756 -51 826 -3 803 -40 b 638 -65 715 -61 676 -65 b 256 418 404 -65 256 107 b 626 914 256 729 404 915 b 894 624 796 913 914 803 l 881 490 l 896 488 l 1019 1079 l 1008 1083 l 993 1050 b 626 1049 956 975 829 1049 b 39 411 264 1049 39 810 b 607 -187 39 26 250 -187 b 1010 -97 728 -187 836 -164 l 1010 142 b 1119 351 1010 288 1039 336 l 1143 357 l 1143 369 l 571 369 l 571 350 l 654 342 b 826 142 760 333 826 261 z m 431 1067 l 439 1056 b 617 1167 497 1085 563 1114 b 796 1056 672 1114 738 1085 l 804 1067 b 617 1329 754 1100 690 1183 b 431 1067 544 1183 481 1100 z "},"Ģ":{"ha":1157,"x_min":0,"x_max":0,"o":"m 826 142 l 826 58 b 756 -51 826 -3 803 -40 b 638 -65 715 -61 676 -65 b 256 418 404 -65 256 107 b 626 914 256 729 404 915 b 894 624 796 913 914 803 l 881 490 l 896 488 l 1019 1079 l 1008 1083 l 993 1050 b 626 1049 956 975 829 1049 b 39 411 264 1049 39 810 b 607 -187 39 26 250 -187 b 1010 -97 728 -187 836 -164 l 1010 142 b 1119 351 1010 288 1039 336 l 1143 357 l 1143 369 l 571 369 l 571 350 l 654 342 b 826 142 760 333 826 261 z m 469 -344 b 579 -443 469 -412 521 -454 b 486 -614 576 -497 547 -574 l 490 -622 b 686 -349 604 -571 686 -454 b 582 -233 686 -275 646 -233 b 469 -344 515 -233 469 -279 z "},"Ġ":{"ha":1157,"x_min":0,"x_max":0,"o":"m 826 142 l 826 58 b 756 -51 826 -3 803 -40 b 638 -65 715 -61 676 -65 b 256 418 404 -65 256 107 b 626 914 256 729 404 915 b 894 624 796 913 914 803 l 881 490 l 896 488 l 1019 1079 l 1008 1083 l 993 1050 b 626 1049 956 975 829 1049 b 39 411 264 1049 39 810 b 607 -187 39 26 250 -187 b 1010 -97 728 -187 836 -164 l 1010 142 b 1119 351 1010 288 1039 336 l 1143 357 l 1143 369 l 571 369 l 571 350 l 654 342 b 826 142 760 333 826 261 z m 517 1167 b 618 1065 517 1106 557 1065 b 719 1167 678 1065 719 1106 b 618 1268 719 1226 678 1268 b 517 1167 557 1268 517 1226 z "},"Ḡ":{"ha":1157,"x_min":0,"x_max":0,"o":"m 826 142 l 826 58 b 756 -51 826 -3 803 -40 b 638 -65 715 -61 676 -65 b 256 418 404 -65 256 107 b 626 914 256 729 404 915 b 894 624 796 913 914 803 l 881 490 l 896 488 l 1019 1079 l 1008 1083 l 993 1050 b 626 1049 956 975 829 1049 b 39 411 264 1049 39 810 b 607 -187 39 26 250 -187 b 1010 -97 728 -187 836 -164 l 1010 142 b 1119 351 1010 288 1039 336 l 1143 357 l 1143 369 l 571 369 l 571 350 l 654 342 b 826 142 760 333 826 261 z m 371 1217 l 371 1133 l 864 1133 l 864 1217 z "},"Ǥ":{"ha":1157,"x_min":0,"x_max":0,"o":"m 826 142 l 826 58 b 756 -51 826 -3 803 -40 b 638 -65 715 -61 676 -65 b 256 418 404 -65 256 107 b 626 914 256 729 404 915 b 894 624 796 913 914 803 l 881 490 l 896 488 l 1019 1079 l 1008 1083 l 993 1050 b 626 1049 956 975 829 1049 b 39 411 264 1049 39 810 b 607 -187 39 26 250 -187 b 1010 -97 728 -187 836 -164 l 1010 142 b 1119 351 1010 288 1039 336 l 1143 357 l 1143 369 l 571 369 l 571 350 l 442 350 l 442 257 l 799 257 b 826 142 817 226 826 188 z "},"H":{"ha":1157,"x_min":0,"x_max":0,"o":"m 357 57 l 357 556 b 394 603 357 586 369 603 l 763 603 b 800 556 786 603 800 586 l 800 57 b 692 -154 800 -90 771 -137 l 665 -158 l 665 -172 l 1131 -172 l 1131 -158 l 1106 -154 b 996 57 1025 -137 996 -90 l 996 806 b 1106 1015 996 951 1025 999 l 1131 1019 l 1131 1033 l 665 1033 l 665 1019 l 692 1015 b 800 806 771 999 800 951 l 800 721 b 763 675 800 690 786 675 l 394 675 b 357 721 369 675 357 690 l 357 806 b 465 1015 357 951 385 999 l 490 1019 l 490 1033 l 26 1033 l 26 1019 l 51 1015 b 160 806 131 999 160 951 l 160 57 b 51 -154 160 -90 131 -137 l 26 -158 l 26 -172 l 490 -172 l 490 -158 l 465 -154 b 357 57 385 -137 357 -90 z "},"Ħ":{"ha":1157,"x_min":0,"x_max":0,"o":"m 357 57 l 357 358 l 800 358 l 800 57 b 692 -154 800 -90 771 -137 l 665 -158 l 665 -172 l 1131 -172 l 1131 -158 l 1106 -154 b 996 57 1025 -137 996 -90 l 996 358 l 1010 358 l 1010 422 l 996 422 l 996 806 b 1106 1015 996 951 1025 999 l 1131 1019 l 1131 1033 l 665 1033 l 665 1019 l 692 1015 b 800 806 771 999 800 951 l 800 721 b 763 675 800 690 786 675 l 394 675 b 357 721 369 675 357 690 l 357 806 b 465 1015 357 951 385 999 l 490 1019 l 490 1033 l 26 1033 l 26 1019 l 51 1015 b 160 806 131 999 160 951 l 160 422 l 146 422 l 146 358 l 160 358 l 160 57 b 51 -154 160 -90 131 -137 l 26 -158 l 26 -172 l 490 -172 l 490 -158 l 465 -154 b 357 57 385 -137 357 -90 z m 357 422 l 357 556 b 394 603 357 586 369 603 l 763 603 b 800 556 786 603 800 586 l 800 422 z "},"Ḫ":{"ha":1157,"x_min":0,"x_max":0,"o":"m 357 57 l 357 556 b 394 603 357 586 369 603 l 763 603 b 800 556 786 603 800 586 l 800 57 b 692 -154 800 -90 771 -137 l 665 -158 l 665 -172 l 1131 -172 l 1131 -158 l 1106 -154 b 996 57 1025 -137 996 -90 l 996 806 b 1106 1015 996 951 1025 999 l 1131 1019 l 1131 1033 l 665 1033 l 665 1019 l 692 1015 b 800 806 771 999 800 951 l 800 721 b 763 675 800 690 786 675 l 394 675 b 357 721 369 675 357 690 l 357 806 b 465 1015 357 951 385 999 l 490 1019 l 490 1033 l 26 1033 l 26 1019 l 51 1015 b 160 806 131 999 160 951 l 160 57 b 51 -154 160 -90 131 -137 l 26 -158 l 26 -172 l 490 -172 l 490 -158 l 465 -154 b 357 57 385 -137 357 -90 z m 578 -369 b 454 -215 506 -369 453 -304 l 443 -215 b 576 -486 425 -378 479 -486 b 713 -215 674 -486 731 -378 l 701 -215 b 578 -369 703 -304 650 -369 z "},"Ĥ":{"ha":1157,"x_min":0,"x_max":0,"o":"m 357 57 l 357 556 b 394 603 357 586 369 603 l 763 603 b 800 556 786 603 800 586 l 800 57 b 692 -154 800 -90 771 -137 l 665 -158 l 665 -172 l 1131 -172 l 1131 -158 l 1106 -154 b 996 57 1025 -137 996 -90 l 996 806 b 1106 1015 996 951 1025 999 l 1131 1019 l 1131 1033 l 744 1033 b 576 1281 697 1074 640 1153 b 410 1033 514 1153 457 1074 l 26 1033 l 26 1019 l 51 1015 b 160 806 131 999 160 951 l 160 57 b 51 -154 160 -90 131 -137 l 26 -158 l 26 -172 l 490 -172 l 490 -158 l 465 -154 b 357 57 385 -137 357 -90 z m 357 721 l 357 806 b 465 1015 357 951 385 999 l 490 1019 l 490 1033 l 451 1033 b 576 1118 494 1056 538 1081 b 703 1033 615 1081 660 1056 l 665 1033 l 665 1019 l 692 1015 b 800 806 771 999 800 951 l 800 721 b 763 675 800 690 786 675 l 394 675 b 357 721 369 675 357 690 z "},"Ḥ":{"ha":1157,"x_min":0,"x_max":0,"o":"m 357 57 l 357 556 b 394 603 357 586 369 603 l 763 603 b 800 556 786 603 800 586 l 800 57 b 692 -154 800 -90 771 -137 l 665 -158 l 665 -172 l 1131 -172 l 1131 -158 l 1106 -154 b 996 57 1025 -137 996 -90 l 996 806 b 1106 1015 996 951 1025 999 l 1131 1019 l 1131 1033 l 665 1033 l 665 1019 l 692 1015 b 800 806 771 999 800 951 l 800 721 b 763 675 800 690 786 675 l 394 675 b 357 721 369 675 357 690 l 357 806 b 465 1015 357 951 385 999 l 490 1019 l 490 1033 l 26 1033 l 26 1019 l 51 1015 b 160 806 131 999 160 951 l 160 57 b 51 -154 160 -90 131 -137 l 26 -158 l 26 -172 l 490 -172 l 490 -158 l 465 -154 b 357 57 385 -137 357 -90 z m 679 -337 b 578 -236 679 -276 639 -236 b 476 -337 518 -236 476 -276 b 578 -439 476 -397 518 -439 b 679 -337 639 -439 679 -397 z "},"I":{"ha":517,"x_min":0,"x_max":0,"o":"m 490 1033 l 26 1033 l 26 1019 l 51 1015 b 160 806 131 999 160 951 l 160 57 b 51 -154 160 -90 131 -137 l 26 -158 l 26 -172 l 490 -172 l 490 -158 l 465 -154 b 357 57 385 -137 357 -90 l 357 806 b 465 1015 357 951 385 999 l 490 1019 z "},"Ĳ":{"ha":1453,"x_min":0,"x_max":0,"o":"m 490 1033 l 26 1033 l 26 1019 l 51 1015 b 160 806 131 999 160 951 l 160 57 b 51 -154 160 -90 131 -137 l 26 -158 l 26 -172 l 490 -172 l 490 -158 l 465 -154 b 357 57 385 -137 357 -90 l 357 806 b 465 1015 357 951 385 999 l 490 1019 z m 1415 1015 l 1440 1019 l 1440 1033 l 969 1033 l 969 1019 l 994 1015 b 1103 806 1075 999 1103 951 l 1103 257 b 910 -56 1103 49 1039 -56 b 719 410 742 -56 671 119 l 747 582 l 732 585 l 531 -181 l 540 -186 l 556 -154 b 899 -187 592 -78 694 -187 b 1306 258 1151 -187 1306 -19 l 1306 806 b 1415 1015 1306 951 1335 999 z "},"Í":{"ha":517,"x_min":0,"x_max":0,"o":"m 490 1033 l 26 1033 l 26 1019 l 51 1015 b 160 806 131 999 160 951 l 160 57 b 51 -154 160 -90 131 -137 l 26 -158 l 26 -172 l 490 -172 l 490 -158 l 465 -154 b 357 57 385 -137 357 -90 l 357 806 b 465 1015 357 951 385 999 l 490 1019 z m 135 1067 l 168 1067 l 382 1251 l 203 1251 z "},"Ǐ":{"ha":517,"x_min":0,"x_max":0,"o":"m 490 1033 l 26 1033 l 26 1019 l 51 1015 b 160 806 131 999 160 951 l 160 57 b 51 -154 160 -90 131 -137 l 26 -158 l 26 -172 l 490 -172 l 490 -158 l 465 -154 b 357 57 385 -137 357 -90 l 357 806 b 465 1015 357 951 385 999 l 490 1019 z m 79 1329 l 71 1318 b 257 1056 121 1285 185 1201 b 444 1318 331 1201 394 1285 l 436 1329 b 257 1218 378 1300 313 1271 b 79 1329 203 1271 138 1300 z "},"Î":{"ha":517,"x_min":0,"x_max":0,"o":"m 490 1033 l 26 1033 l 26 1019 l 51 1015 b 160 806 131 999 160 951 l 160 57 b 51 -154 160 -90 131 -137 l 26 -158 l 26 -172 l 490 -172 l 490 -158 l 465 -154 b 357 57 385 -137 357 -90 l 357 806 b 465 1015 357 951 385 999 l 490 1019 z m 71 1067 l 79 1056 b 257 1167 138 1085 203 1114 b 436 1056 313 1114 378 1085 l 444 1067 b 257 1329 394 1100 331 1183 b 71 1067 185 1183 121 1100 z "},"Ï":{"ha":517,"x_min":0,"x_max":0,"o":"m 490 1033 l 26 1033 l 26 1019 l 51 1015 b 160 806 131 999 160 951 l 160 57 b 51 -154 160 -90 131 -137 l 26 -158 l 26 -172 l 490 -172 l 490 -158 l 465 -154 b 357 57 385 -137 357 -90 l 357 806 b 465 1015 357 951 385 999 l 490 1019 z m 38 1171 b 133 1076 38 1114 76 1076 b 229 1171 190 1076 229 1114 b 133 1267 229 1229 190 1267 b 38 1171 76 1267 38 1229 z m 286 1171 b 383 1076 286 1114 325 1076 b 478 1171 439 1076 478 1114 b 383 1267 478 1229 439 1267 b 286 1171 325 1267 286 1229 z "},"Ḯ":{"ha":517,"x_min":0,"x_max":0,"o":"m 490 1033 l 26 1033 l 26 1019 l 51 1015 b 160 806 131 999 160 951 l 160 57 b 51 -154 160 -90 131 -137 l 26 -158 l 26 -172 l 490 -172 l 490 -158 l 465 -154 b 357 57 385 -137 357 -90 l 357 806 b 465 1015 357 951 385 999 l 490 1019 z m 38 1171 b 133 1076 38 1114 76 1076 b 229 1171 190 1076 229 1114 b 133 1267 229 1229 190 1267 b 38 1171 76 1267 38 1229 z m 286 1171 b 383 1076 286 1114 325 1076 b 478 1171 439 1076 478 1114 b 383 1267 478 1229 439 1267 b 286 1171 325 1267 286 1229 z m 135 1311 l 168 1311 l 382 1496 l 203 1496 z "},"İ":{"ha":517,"x_min":0,"x_max":0,"o":"m 490 1033 l 26 1033 l 26 1019 l 51 1015 b 160 806 131 999 160 951 l 160 57 b 51 -154 160 -90 131 -137 l 26 -158 l 26 -172 l 490 -172 l 490 -158 l 465 -154 b 357 57 385 -137 357 -90 l 357 806 b 465 1015 357 951 385 999 l 490 1019 z m 157 1167 b 258 1065 157 1106 197 1065 b 360 1167 318 1065 360 1106 b 258 1268 360 1226 318 1268 b 157 1167 197 1268 157 1226 z "},"Ị":{"ha":517,"x_min":0,"x_max":0,"o":"m 490 1033 l 26 1033 l 26 1019 l 51 1015 b 160 806 131 999 160 951 l 160 57 b 51 -154 160 -90 131 -137 l 26 -158 l 26 -172 l 490 -172 l 490 -158 l 465 -154 b 357 57 385 -137 357 -90 l 357 806 b 465 1015 357 951 385 999 l 490 1019 z m 360 -337 b 258 -236 360 -276 319 -236 b 157 -337 199 -236 157 -276 b 258 -439 157 -397 199 -439 b 360 -337 319 -439 360 -397 z "},"Ì":{"ha":517,"x_min":0,"x_max":0,"o":"m 490 1033 l 26 1033 l 26 1019 l 51 1015 b 160 806 131 999 160 951 l 160 57 b 51 -154 160 -90 131 -137 l 26 -158 l 26 -172 l 490 -172 l 490 -158 l 465 -154 b 357 57 385 -137 357 -90 l 357 806 b 465 1015 357 951 385 999 l 490 1019 z m 135 1251 l 349 1067 l 382 1067 l 314 1251 z "},"Ỉ":{"ha":517,"x_min":0,"x_max":0,"o":"m 490 1033 l 26 1033 l 26 1019 l 51 1015 b 160 806 131 999 160 951 l 160 57 b 51 -154 160 -90 131 -137 l 26 -158 l 26 -172 l 490 -172 l 490 -158 l 465 -154 b 357 57 385 -137 357 -90 l 357 806 b 465 1015 357 951 385 999 l 490 1019 z m 135 1211 l 138 1210 b 236 1293 151 1254 179 1293 b 306 1218 281 1293 306 1268 b 207 1078 306 1158 269 1107 l 221 1050 b 410 1221 339 1086 410 1150 b 278 1321 410 1281 361 1321 b 135 1211 203 1321 151 1288 z "},"Ī":{"ha":517,"x_min":0,"x_max":0,"o":"m 490 1033 l 26 1033 l 26 1019 l 51 1015 b 160 806 131 999 160 951 l 160 57 b 51 -154 160 -90 131 -137 l 26 -158 l 26 -172 l 490 -172 l 490 -158 l 465 -154 b 357 57 385 -137 357 -90 l 357 806 b 465 1015 357 951 385 999 l 490 1019 z m 11 1217 l 11 1133 l 504 1133 l 504 1217 z "},"Į":{"ha":517,"x_min":0,"x_max":0,"o":"m 490 1033 l 26 1033 l 26 1019 l 51 1015 b 160 806 131 999 160 951 l 160 57 b 51 -154 160 -90 131 -137 l 26 -158 l 26 -172 l 224 -172 b 132 -301 165 -207 132 -253 b 264 -401 132 -361 181 -401 b 407 -292 339 -401 390 -368 l 404 -290 b 306 -374 390 -335 363 -374 b 236 -299 261 -374 236 -349 b 310 -172 236 -247 263 -203 l 490 -172 l 490 -158 l 465 -154 b 357 57 385 -137 357 -90 l 357 806 b 465 1015 357 951 385 999 l 490 1019 z "},"Ɨ":{"ha":517,"x_min":0,"x_max":0,"o":"m 490 1033 l 26 1033 l 26 1019 l 51 1015 b 160 806 131 999 160 951 l 160 547 l -3 547 l -3 468 l 160 468 l 160 57 b 51 -154 160 -90 131 -137 l 26 -158 l 26 -172 l 490 -172 l 490 -158 l 465 -154 b 357 57 385 -137 357 -90 l 357 468 l 440 468 l 440 547 l 357 547 l 357 806 b 465 1015 357 951 385 999 l 490 1019 z "},"Ĩ":{"ha":517,"x_min":0,"x_max":0,"o":"m 490 1033 l 26 1033 l 26 1019 l 51 1015 b 160 806 131 999 160 951 l 160 57 b 51 -154 160 -90 131 -137 l 26 -158 l 26 -172 l 490 -172 l 490 -158 l 465 -154 b 357 57 385 -137 357 -90 l 357 806 b 465 1015 357 951 385 999 l 490 1019 z m 35 1079 l 50 1079 b 133 1185 60 1143 93 1185 b 342 1106 197 1185 243 1106 b 481 1325 440 1106 482 1199 l 465 1325 b 382 1218 457 1263 422 1218 b 174 1296 318 1218 272 1296 b 35 1079 75 1296 33 1206 z "},"J":{"ha":936,"x_min":0,"x_max":0,"o":"m 899 1015 l 924 1019 l 924 1033 l 453 1033 l 453 1019 l 478 1015 b 586 806 558 999 586 951 l 586 257 b 393 -56 586 49 522 -56 b 203 410 225 -56 154 119 l 231 582 l 215 585 l 14 -181 l 24 -186 l 39 -154 b 382 -187 75 -78 178 -187 b 789 258 635 -187 789 -19 l 789 806 b 899 1015 789 951 818 999 z "},"Ĵ":{"ha":936,"x_min":0,"x_max":0,"o":"m 899 1015 l 924 1019 l 924 1033 l 453 1033 l 453 1019 l 478 1015 b 586 806 558 999 586 951 l 586 257 b 393 -56 586 49 522 -56 b 203 410 225 -56 154 119 l 231 582 l 215 585 l 14 -181 l 24 -186 l 39 -154 b 382 -187 75 -78 178 -187 b 789 258 635 -187 789 -19 l 789 806 b 899 1015 789 951 818 999 z m 504 1050 l 513 1039 b 690 1150 571 1068 636 1097 b 869 1039 746 1097 811 1068 l 878 1050 b 690 1313 828 1083 764 1167 b 504 1050 618 1167 554 1083 z "},"K":{"ha":1088,"x_min":0,"x_max":0,"o":"m 631 863 l 396 664 b 357 689 369 642 357 649 l 357 806 b 465 1015 357 951 385 999 l 490 1019 l 490 1033 l 26 1033 l 26 1019 l 51 1015 b 160 806 131 999 160 951 l 160 57 b 51 -154 160 -90 131 -137 l 26 -158 l 26 -172 l 490 -172 l 490 -158 l 465 -154 b 357 57 385 -137 357 -90 l 357 422 b 397 515 357 463 372 493 l 482 586 b 561 583 511 611 540 611 b 664 336 606 526 643 432 l 701 144 b 949 -172 729 7 760 -174 l 1075 -169 l 1075 -157 l 1050 -153 b 925 58 983 -139 954 -75 l 872 299 b 574 658 825 515 721 581 l 826 872 b 1036 1015 892 926 975 1004 l 1061 1019 l 1061 1033 l 606 1033 l 606 1019 l 629 1015 b 631 863 710 999 726 943 z "},"Ǩ":{"ha":1088,"x_min":0,"x_max":0,"o":"m 631 863 l 396 664 b 357 689 369 642 357 649 l 357 806 b 465 1015 357 951 385 999 l 490 1019 l 490 1033 l 26 1033 l 26 1019 l 51 1015 b 160 806 131 999 160 951 l 160 57 b 51 -154 160 -90 131 -137 l 26 -158 l 26 -172 l 490 -172 l 490 -158 l 465 -154 b 357 57 385 -137 357 -90 l 357 422 b 397 515 357 463 372 493 l 482 586 b 561 583 511 611 540 611 b 664 336 606 526 643 432 l 701 144 b 949 -172 729 7 760 -174 l 1075 -169 l 1075 -157 l 1050 -153 b 925 58 983 -139 954 -75 l 872 299 b 574 658 825 515 721 581 l 826 872 b 1036 1015 892 926 975 1004 l 1061 1019 l 1061 1033 l 606 1033 l 606 1019 l 629 1015 b 631 863 710 999 726 943 z m 365 1281 l 357 1269 b 543 1007 407 1236 471 1153 b 731 1269 617 1153 681 1236 l 722 1281 b 543 1169 664 1251 599 1222 b 365 1281 489 1222 424 1251 z "},"Ķ":{"ha":1088,"x_min":0,"x_max":0,"o":"m 631 863 l 396 664 b 357 689 369 642 357 649 l 357 806 b 465 1015 357 951 385 999 l 490 1019 l 490 1033 l 26 1033 l 26 1019 l 51 1015 b 160 806 131 999 160 951 l 160 57 b 51 -154 160 -90 131 -137 l 26 -158 l 26 -172 l 490 -172 l 490 -158 l 465 -154 b 357 57 385 -137 357 -90 l 357 422 b 397 515 357 463 372 493 l 482 586 b 561 583 511 611 540 611 b 664 336 606 526 643 432 l 701 144 b 949 -172 729 7 760 -174 l 1075 -169 l 1075 -157 l 1050 -153 b 925 58 983 -139 954 -75 l 872 299 b 574 658 825 515 721 581 l 826 872 b 1036 1015 892 926 975 1004 l 1061 1019 l 1061 1033 l 606 1033 l 606 1019 l 629 1015 b 631 863 710 999 726 943 z m 436 -344 b 546 -443 436 -412 488 -454 b 453 -614 543 -497 514 -574 l 457 -622 b 653 -349 571 -571 653 -454 b 549 -233 653 -275 613 -233 b 436 -344 482 -233 436 -279 z "},"Ḵ":{"ha":1088,"x_min":0,"x_max":0,"o":"m 631 863 l 396 664 b 357 689 369 642 357 649 l 357 806 b 465 1015 357 951 385 999 l 490 1019 l 490 1033 l 26 1033 l 26 1019 l 51 1015 b 160 806 131 999 160 951 l 160 57 b 51 -154 160 -90 131 -137 l 26 -158 l 26 -172 l 490 -172 l 490 -158 l 465 -154 b 357 57 385 -137 357 -90 l 357 422 b 397 515 357 463 372 493 l 482 586 b 561 583 511 611 540 611 b 664 336 606 526 643 432 l 701 144 b 949 -172 729 7 760 -174 l 1075 -169 l 1075 -157 l 1050 -153 b 925 58 983 -139 954 -75 l 872 299 b 574 658 825 515 721 581 l 826 872 b 1036 1015 892 926 975 1004 l 1061 1019 l 1061 1033 l 606 1033 l 606 1019 l 629 1015 b 631 863 710 999 726 943 z m 792 -387 l 792 -304 l 299 -304 l 299 -387 z "},"L":{"ha":922,"x_min":0,"x_max":0,"o":"m 357 18 l 357 806 b 465 1015 357 951 385 999 l 490 1019 l 490 1033 l 26 1033 l 26 1019 l 51 1015 b 160 806 131 999 160 951 l 160 57 b 51 -154 160 -90 131 -137 l 26 -158 l 26 -172 l 746 -172 b 849 -207 808 -172 849 -174 l 858 -207 l 908 221 l 893 221 l 886 190 b 638 -51 853 64 776 -51 l 414 -51 b 357 18 375 -51 357 -29 z "},"Ĺ":{"ha":922,"x_min":0,"x_max":0,"o":"m 357 18 l 357 806 b 465 1015 357 951 385 999 l 490 1019 l 490 1033 l 389 1033 l 585 1203 l 406 1203 l 343 1033 l 26 1033 l 26 1019 l 51 1015 b 160 806 131 999 160 951 l 160 57 b 51 -154 160 -90 131 -137 l 26 -158 l 26 -172 l 746 -172 b 849 -207 808 -172 849 -174 l 858 -207 l 908 221 l 893 221 l 886 190 b 638 -51 853 64 776 -51 l 414 -51 b 357 18 375 -51 357 -29 z "},"Ľ":{"ha":922,"x_min":0,"x_max":0,"o":"m 357 18 l 357 806 b 465 1015 357 951 385 999 l 490 1019 l 490 1033 l 26 1033 l 26 1019 l 51 1015 b 160 806 131 999 160 951 l 160 57 b 51 -154 160 -90 131 -137 l 26 -158 l 26 -172 l 746 -172 b 849 -207 808 -172 849 -174 l 858 -207 l 908 221 l 893 221 l 886 190 b 638 -51 853 64 776 -51 l 414 -51 b 357 18 375 -51 357 -29 z m 721 708 l 732 708 b 817 996 736 879 817 904 b 726 1097 817 1057 781 1097 b 636 996 672 1097 636 1057 b 721 708 636 904 717 879 z "},"Ḽ":{"ha":922,"x_min":0,"x_max":0,"o":"m 357 18 l 357 806 b 465 1015 357 951 385 999 l 490 1019 l 490 1033 l 26 1033 l 26 1019 l 51 1015 b 160 806 131 999 160 951 l 160 57 b 51 -154 160 -90 131 -137 l 26 -158 l 26 -172 l 746 -172 b 849 -207 808 -172 849 -174 l 858 -207 l 908 221 l 893 221 l 886 190 b 638 -51 853 64 776 -51 l 414 -51 b 357 18 375 -51 357 -29 z m 640 -500 l 649 -489 b 463 -226 599 -456 535 -372 b 275 -489 389 -372 325 -456 l 283 -500 b 463 -389 342 -471 407 -442 b 640 -500 517 -442 582 -471 z "},"Ļ":{"ha":922,"x_min":0,"x_max":0,"o":"m 357 18 l 357 806 b 465 1015 357 951 385 999 l 490 1019 l 490 1033 l 26 1033 l 26 1019 l 51 1015 b 160 806 131 999 160 951 l 160 57 b 51 -154 160 -90 131 -137 l 26 -158 l 26 -172 l 746 -172 b 849 -207 808 -172 849 -174 l 858 -207 l 908 221 l 893 221 l 886 190 b 638 -51 853 64 776 -51 l 414 -51 b 357 18 375 -51 357 -29 z m 353 -344 b 463 -443 353 -412 404 -454 b 369 -614 460 -497 431 -574 l 374 -622 b 569 -349 488 -571 569 -454 b 465 -233 569 -275 529 -233 b 353 -344 399 -233 353 -279 z "},"Ŀ":{"ha":1139,"x_min":0,"x_max":0,"o":"m 357 18 l 357 806 b 465 1015 357 951 385 999 l 490 1019 l 490 1033 l 26 1033 l 26 1019 l 51 1015 b 160 806 131 999 160 951 l 160 57 b 51 -154 160 -90 131 -137 l 26 -158 l 26 -172 l 746 -172 b 849 -207 808 -172 849 -174 l 858 -207 l 908 221 l 893 221 l 886 190 b 638 -51 853 64 776 -51 l 414 -51 b 357 18 375 -51 357 -29 z m 929 485 b 1031 378 929 421 969 378 b 1132 485 1092 378 1132 421 b 1031 592 1132 547 1092 592 b 929 485 969 592 929 547 z "},"Ḷ":{"ha":922,"x_min":0,"x_max":0,"o":"m 357 18 l 357 806 b 465 1015 357 951 385 999 l 490 1019 l 490 1033 l 26 1033 l 26 1019 l 51 1015 b 160 806 131 999 160 951 l 160 57 b 51 -154 160 -90 131 -137 l 26 -158 l 26 -172 l 746 -172 b 849 -207 808 -172 849 -174 l 858 -207 l 908 221 l 893 221 l 886 190 b 638 -51 853 64 776 -51 l 414 -51 b 357 18 375 -51 357 -29 z m 563 -337 b 461 -236 563 -276 522 -236 b 360 -337 401 -236 360 -276 b 461 -439 360 -397 401 -439 b 563 -337 522 -439 563 -397 z "},"Ḹ":{"ha":922,"x_min":0,"x_max":0,"o":"m 357 18 l 357 806 b 465 1015 357 951 385 999 l 490 1019 l 490 1033 l 26 1033 l 26 1019 l 51 1015 b 160 806 131 999 160 951 l 160 57 b 51 -154 160 -90 131 -137 l 26 -158 l 26 -172 l 746 -172 b 849 -207 808 -172 849 -174 l 858 -207 l 908 221 l 893 221 l 886 190 b 638 -51 853 64 776 -51 l 414 -51 b 357 18 375 -51 357 -29 z m 563 -337 b 461 -236 563 -276 522 -236 b 360 -337 401 -236 360 -276 b 461 -439 360 -397 401 -439 b 563 -337 522 -439 563 -397 z m 214 1168 l 214 1085 l 707 1085 l 707 1168 z "},"Ḻ":{"ha":922,"x_min":0,"x_max":0,"o":"m 357 18 l 357 806 b 465 1015 357 951 385 999 l 490 1019 l 490 1033 l 26 1033 l 26 1019 l 51 1015 b 160 806 131 999 160 951 l 160 57 b 51 -154 160 -90 131 -137 l 26 -158 l 26 -172 l 746 -172 b 849 -207 808 -172 849 -174 l 858 -207 l 908 221 l 893 221 l 886 190 b 638 -51 853 64 776 -51 l 414 -51 b 357 18 375 -51 357 -29 z m 708 -387 l 708 -304 l 215 -304 l 215 -387 z "},"Ł":{"ha":922,"x_min":0,"x_max":0,"o":"m 357 18 l 357 385 l 672 499 l 633 603 l 357 501 l 357 806 b 465 1015 357 951 385 999 l 490 1019 l 490 1033 l 26 1033 l 26 1019 l 51 1015 b 160 806 131 999 160 951 l 160 429 l 56 392 l 93 289 l 160 313 l 160 57 b 51 -154 160 -90 131 -137 l 26 -158 l 26 -172 l 746 -172 b 849 -207 808 -172 849 -174 l 858 -207 l 908 221 l 893 221 l 886 190 b 638 -51 853 64 776 -51 l 414 -51 b 357 18 375 -51 357 -29 z "},"M":{"ha":1321,"x_min":0,"x_max":0,"o":"m 293 57 l 293 668 b 328 688 293 707 304 714 l 642 339 l 931 694 b 964 678 954 721 964 717 l 964 57 b 854 -154 964 -90 935 -137 l 831 -158 l 831 -172 l 1294 -172 l 1294 -158 l 1269 -154 b 1161 57 1189 -137 1161 -90 l 1161 806 b 1269 1015 1161 951 1189 999 l 1294 1019 l 1294 1033 l 1044 1033 l 700 597 l 304 1033 l 26 1033 l 26 1019 l 51 1015 b 160 806 131 999 160 951 l 160 57 b 51 -154 160 -90 131 -137 l 26 -158 l 26 -172 l 426 -172 l 426 -158 l 401 -154 b 293 57 321 -137 293 -90 z "},"Ḿ":{"ha":1321,"x_min":0,"x_max":0,"o":"m 293 57 l 293 668 b 328 688 293 707 304 714 l 642 339 l 931 694 b 964 678 954 721 964 717 l 964 57 b 854 -154 964 -90 935 -137 l 831 -158 l 831 -172 l 1294 -172 l 1294 -158 l 1269 -154 b 1161 57 1189 -137 1161 -90 l 1161 806 b 1269 1015 1161 951 1189 999 l 1294 1019 l 1294 1033 l 1044 1033 l 700 597 l 304 1033 l 26 1033 l 26 1019 l 51 1015 b 160 806 131 999 160 951 l 160 57 b 51 -154 160 -90 131 -137 l 26 -158 l 26 -172 l 426 -172 l 426 -158 l 401 -154 b 293 57 321 -137 293 -90 z m 538 906 l 571 906 l 785 1090 l 606 1090 z "},"Ṁ":{"ha":1321,"x_min":0,"x_max":0,"o":"m 293 57 l 293 668 b 328 688 293 707 304 714 l 642 339 l 931 694 b 964 678 954 721 964 717 l 964 57 b 854 -154 964 -90 935 -137 l 831 -158 l 831 -172 l 1294 -172 l 1294 -158 l 1269 -154 b 1161 57 1189 -137 1161 -90 l 1161 806 b 1269 1015 1161 951 1189 999 l 1294 1019 l 1294 1033 l 1044 1033 l 700 597 l 304 1033 l 26 1033 l 26 1019 l 51 1015 b 160 806 131 999 160 951 l 160 57 b 51 -154 160 -90 131 -137 l 26 -158 l 26 -172 l 426 -172 l 426 -158 l 401 -154 b 293 57 321 -137 293 -90 z m 560 1006 b 661 904 560 944 600 904 b 763 1006 721 904 763 944 b 661 1107 763 1065 721 1107 b 560 1006 600 1107 560 1065 z "},"Ṃ":{"ha":1321,"x_min":0,"x_max":0,"o":"m 293 57 l 293 668 b 328 688 293 707 304 714 l 642 339 l 931 694 b 964 678 954 721 964 717 l 964 57 b 854 -154 964 -90 935 -137 l 831 -158 l 831 -172 l 1294 -172 l 1294 -158 l 1269 -154 b 1161 57 1189 -137 1161 -90 l 1161 806 b 1269 1015 1161 951 1189 999 l 1294 1019 l 1294 1033 l 1044 1033 l 700 597 l 304 1033 l 26 1033 l 26 1019 l 51 1015 b 160 806 131 999 160 951 l 160 57 b 51 -154 160 -90 131 -137 l 26 -158 l 26 -172 l 426 -172 l 426 -158 l 401 -154 b 293 57 321 -137 293 -90 z m 763 -337 b 661 -236 763 -276 722 -236 b 560 -337 601 -236 560 -276 b 661 -439 560 -397 601 -439 b 763 -337 722 -439 763 -397 z "},"N":{"ha":1149,"x_min":0,"x_max":0,"o":"m 293 57 l 293 588 b 338 607 293 647 307 654 l 844 -172 l 1122 -172 l 1122 -158 l 1097 -154 b 989 57 1018 -137 989 -90 l 989 806 b 1097 1015 989 951 1018 999 l 1122 1019 l 1122 1033 l 722 1033 l 722 1019 l 747 1015 b 857 806 828 999 857 951 l 857 275 b 811 256 857 215 842 210 l 304 1033 l 26 1033 l 26 1019 l 51 1015 b 160 806 131 999 160 951 l 160 57 b 51 -154 160 -90 131 -137 l 26 -158 l 26 -172 l 426 -172 l 426 -158 l 401 -154 b 293 57 321 -137 293 -90 z "},"Ń":{"ha":1149,"x_min":0,"x_max":0,"o":"m 293 57 l 293 588 b 338 607 293 647 307 654 l 844 -172 l 1122 -172 l 1122 -158 l 1097 -154 b 989 57 1018 -137 989 -90 l 989 806 b 1097 1015 989 951 1018 999 l 1122 1019 l 1122 1033 l 722 1033 l 722 1019 l 747 1015 b 857 806 828 999 857 951 l 857 275 b 811 256 857 215 842 210 l 304 1033 l 26 1033 l 26 1019 l 51 1015 b 160 806 131 999 160 951 l 160 57 b 51 -154 160 -90 131 -137 l 26 -158 l 26 -172 l 426 -172 l 426 -158 l 401 -154 b 293 57 321 -137 293 -90 z m 450 1018 l 483 1018 l 697 1203 l 518 1203 z "},"Ň":{"ha":1149,"x_min":0,"x_max":0,"o":"m 293 57 l 293 588 b 338 607 293 647 307 654 l 844 -172 l 1122 -172 l 1122 -158 l 1097 -154 b 989 57 1018 -137 989 -90 l 989 806 b 1097 1015 989 951 1018 999 l 1122 1019 l 1122 1033 l 722 1033 l 722 1019 l 747 1015 b 857 806 828 999 857 951 l 857 275 b 811 256 857 215 842 210 l 304 1033 l 26 1033 l 26 1019 l 51 1015 b 160 806 131 999 160 951 l 160 57 b 51 -154 160 -90 131 -137 l 26 -158 l 26 -172 l 426 -172 l 426 -158 l 401 -154 b 293 57 321 -137 293 -90 z m 394 1281 l 386 1269 b 572 1007 436 1236 500 1153 b 760 1269 646 1153 710 1236 l 751 1281 b 572 1169 693 1251 628 1222 b 394 1281 518 1222 453 1251 z "},"Ṋ":{"ha":1149,"x_min":0,"x_max":0,"o":"m 293 57 l 293 588 b 338 607 293 647 307 654 l 844 -172 l 1122 -172 l 1122 -158 l 1097 -154 b 989 57 1018 -137 989 -90 l 989 806 b 1097 1015 989 951 1018 999 l 1122 1019 l 1122 1033 l 722 1033 l 722 1019 l 747 1015 b 857 806 828 999 857 951 l 857 275 b 811 256 857 215 842 210 l 304 1033 l 26 1033 l 26 1019 l 51 1015 b 160 806 131 999 160 951 l 160 57 b 51 -154 160 -90 131 -137 l 26 -158 l 26 -172 l 426 -172 l 426 -158 l 401 -154 b 293 57 321 -137 293 -90 z m 753 -500 l 761 -489 b 575 -226 711 -456 647 -372 b 388 -489 501 -372 438 -456 l 396 -500 b 575 -389 454 -471 519 -442 b 753 -500 629 -442 694 -471 z "},"Ņ":{"ha":1149,"x_min":0,"x_max":0,"o":"m 293 57 l 293 588 b 338 607 293 647 307 654 l 844 -172 l 1122 -172 l 1122 -158 l 1097 -154 b 989 57 1018 -137 989 -90 l 989 806 b 1097 1015 989 951 1018 999 l 1122 1019 l 1122 1033 l 722 1033 l 722 1019 l 747 1015 b 857 806 828 999 857 951 l 857 275 b 811 256 857 215 842 210 l 304 1033 l 26 1033 l 26 1019 l 51 1015 b 160 806 131 999 160 951 l 160 57 b 51 -154 160 -90 131 -137 l 26 -158 l 26 -172 l 426 -172 l 426 -158 l 401 -154 b 293 57 321 -137 293 -90 z m 465 -344 b 575 -443 465 -412 517 -454 b 482 -614 572 -497 543 -574 l 486 -622 b 682 -349 600 -571 682 -454 b 578 -233 682 -275 642 -233 b 465 -344 511 -233 465 -279 z "},"Ṅ":{"ha":1149,"x_min":0,"x_max":0,"o":"m 293 57 l 293 588 b 338 607 293 647 307 654 l 844 -172 l 1122 -172 l 1122 -158 l 1097 -154 b 989 57 1018 -137 989 -90 l 989 806 b 1097 1015 989 951 1018 999 l 1122 1019 l 1122 1033 l 722 1033 l 722 1019 l 747 1015 b 857 806 828 999 857 951 l 857 275 b 811 256 857 215 842 210 l 304 1033 l 26 1033 l 26 1019 l 51 1015 b 160 806 131 999 160 951 l 160 57 b 51 -154 160 -90 131 -137 l 26 -158 l 26 -172 l 426 -172 l 426 -158 l 401 -154 b 293 57 321 -137 293 -90 z m 472 1118 b 574 1017 472 1057 513 1017 b 675 1118 633 1017 675 1057 b 574 1219 675 1178 633 1219 b 472 1118 513 1219 472 1178 z "},"Ṇ":{"ha":1149,"x_min":0,"x_max":0,"o":"m 293 57 l 293 588 b 338 607 293 647 307 654 l 844 -172 l 1122 -172 l 1122 -158 l 1097 -154 b 989 57 1018 -137 989 -90 l 989 806 b 1097 1015 989 951 1018 999 l 1122 1019 l 1122 1033 l 722 1033 l 722 1019 l 747 1015 b 857 806 828 999 857 951 l 857 275 b 811 256 857 215 842 210 l 304 1033 l 26 1033 l 26 1019 l 51 1015 b 160 806 131 999 160 951 l 160 57 b 51 -154 160 -90 131 -137 l 26 -158 l 26 -172 l 426 -172 l 426 -158 l 401 -154 b 293 57 321 -137 293 -90 z m 675 -337 b 574 -236 675 -276 635 -236 b 472 -337 514 -236 472 -276 b 574 -439 472 -397 514 -439 b 675 -337 635 -439 675 -397 z "},"Ṉ":{"ha":1149,"x_min":0,"x_max":0,"o":"m 293 57 l 293 588 b 338 607 293 647 307 654 l 844 -172 l 1122 -172 l 1122 -158 l 1097 -154 b 989 57 1018 -137 989 -90 l 989 806 b 1097 1015 989 951 1018 999 l 1122 1019 l 1122 1033 l 722 1033 l 722 1019 l 747 1015 b 857 806 828 999 857 951 l 857 275 b 811 256 857 215 842 210 l 304 1033 l 26 1033 l 26 1019 l 51 1015 b 160 806 131 999 160 951 l 160 57 b 51 -154 160 -90 131 -137 l 26 -158 l 26 -172 l 426 -172 l 426 -158 l 401 -154 b 293 57 321 -137 293 -90 z m 821 -387 l 821 -304 l 328 -304 l 328 -387 z "},"Ñ":{"ha":1149,"x_min":0,"x_max":0,"o":"m 293 57 l 293 588 b 338 607 293 647 307 654 l 844 -172 l 1122 -172 l 1122 -158 l 1097 -154 b 989 57 1018 -137 989 -90 l 989 806 b 1097 1015 989 951 1018 999 l 1122 1019 l 1122 1033 l 722 1033 l 722 1019 l 747 1015 b 857 806 828 999 857 951 l 857 275 b 811 256 857 215 842 210 l 304 1033 l 294 1033 b 407 1136 310 1096 354 1136 b 686 1057 492 1136 553 1057 b 872 1276 818 1057 874 1150 l 851 1276 b 740 1169 840 1214 793 1169 b 460 1247 654 1169 593 1247 b 274 1033 329 1247 274 1158 l 26 1033 l 26 1019 l 51 1015 b 160 806 131 999 160 951 l 160 57 b 51 -154 160 -90 131 -137 l 26 -158 l 26 -172 l 426 -172 l 426 -158 l 401 -154 b 293 57 321 -137 293 -90 z "},"Ŋ":{"ha":974,"x_min":0,"x_max":0,"o":"m 249 197 l 249 657 b 286 674 249 708 260 714 l 682 53 b 544 -164 679 -92 633 -164 b 429 149 474 -164 390 -119 l 442 242 l 429 244 l 361 7 l 361 11 l 340 15 b 249 197 272 29 249 71 z m 22 0 l 360 0 l 285 -261 l 293 -265 l 306 -237 b 542 -267 338 -172 386 -267 b 838 128 740 -267 838 -121 l 838 844 b 931 1026 838 971 863 1013 l 951 1031 l 951 1042 l 613 1042 l 613 1031 l 633 1026 b 726 844 701 1013 726 971 l 726 386 b 688 369 726 335 714 329 l 258 1042 l 22 1042 l 22 1031 l 43 1026 b 136 844 111 1013 136 971 l 136 197 b 43 15 136 71 111 29 l 22 11 z "},"O":{"ha":1143,"x_min":0,"x_max":0,"o":"m 571 1049 b 39 431 249 1049 39 792 b 571 -187 39 69 249 -187 b 1104 431 896 -187 1104 69 b 571 1049 1104 792 896 1049 z m 571 -53 b 256 432 369 -53 256 140 b 571 914 256 724 367 914 b 888 432 776 914 888 724 b 571 -53 888 140 775 -53 z "},"Ó":{"ha":1143,"x_min":0,"x_max":0,"o":"m 571 1049 b 39 431 249 1049 39 792 b 571 -187 39 69 249 -187 b 1104 431 896 -187 1104 69 b 571 1049 1104 792 896 1049 z m 571 -53 b 256 432 369 -53 256 140 b 571 914 256 724 367 914 b 888 432 776 914 888 724 b 571 -53 888 140 775 -53 z m 447 1067 l 481 1067 l 694 1251 l 515 1251 z "},"Ǒ":{"ha":1143,"x_min":0,"x_max":0,"o":"m 571 1049 b 39 431 249 1049 39 792 b 571 -187 39 69 249 -187 b 1104 431 896 -187 1104 69 b 571 1049 1104 792 896 1049 z m 571 -53 b 256 432 369 -53 256 140 b 571 914 256 724 367 914 b 888 432 776 914 888 724 b 571 -53 888 140 775 -53 z m 392 1329 l 383 1318 b 569 1056 433 1285 497 1201 b 757 1318 643 1201 707 1285 l 749 1329 b 569 1218 690 1300 625 1271 b 392 1329 515 1271 450 1300 z "},"Ô":{"ha":1143,"x_min":0,"x_max":0,"o":"m 571 1049 b 39 431 249 1049 39 792 b 571 -187 39 69 249 -187 b 1104 431 896 -187 1104 69 b 571 1049 1104 792 896 1049 z m 571 -53 b 256 432 369 -53 256 140 b 571 914 256 724 367 914 b 888 432 776 914 888 724 b 571 -53 888 140 775 -53 z m 383 1067 l 392 1056 b 569 1167 450 1085 515 1114 b 749 1056 625 1114 690 1085 l 757 1067 b 569 1329 707 1100 643 1183 b 383 1067 497 1183 433 1100 z "},"Ố":{"ha":1143,"x_min":0,"x_max":0,"o":"m 571 1049 b 39 431 249 1049 39 792 b 571 -187 39 69 249 -187 b 1104 431 896 -187 1104 69 b 571 1049 1104 792 896 1049 z m 571 -53 b 256 432 369 -53 256 140 b 571 914 256 724 367 914 b 888 432 776 914 888 724 b 571 -53 888 140 775 -53 z m 383 1067 l 392 1056 b 569 1167 450 1085 515 1114 b 749 1056 625 1114 690 1085 l 757 1067 b 569 1329 707 1100 643 1183 b 383 1067 497 1183 433 1100 z m 447 1394 l 481 1394 l 694 1579 l 515 1579 z "},"Ộ":{"ha":1143,"x_min":0,"x_max":0,"o":"m 571 1049 b 39 431 249 1049 39 792 b 571 -187 39 69 249 -187 b 1104 431 896 -187 1104 69 b 571 1049 1104 792 896 1049 z m 571 -53 b 256 432 369 -53 256 140 b 571 914 256 724 367 914 b 888 432 776 914 888 724 b 571 -53 888 140 775 -53 z m 672 -337 b 571 -236 672 -276 632 -236 b 469 -337 511 -236 469 -276 b 571 -439 469 -397 511 -439 b 672 -337 632 -439 672 -397 z m 383 1067 l 392 1056 b 569 1167 450 1085 515 1114 b 749 1056 625 1114 690 1085 l 757 1067 b 569 1329 707 1100 643 1183 b 383 1067 497 1183 433 1100 z "},"Ồ":{"ha":1143,"x_min":0,"x_max":0,"o":"m 571 1049 b 39 431 249 1049 39 792 b 571 -187 39 69 249 -187 b 1104 431 896 -187 1104 69 b 571 1049 1104 792 896 1049 z m 571 -53 b 256 432 369 -53 256 140 b 571 914 256 724 367 914 b 888 432 776 914 888 724 b 571 -53 888 140 775 -53 z m 383 1067 l 392 1056 b 569 1167 450 1085 515 1114 b 749 1056 625 1114 690 1085 l 757 1067 b 569 1329 707 1100 643 1183 b 383 1067 497 1183 433 1100 z m 447 1579 l 661 1394 l 694 1394 l 626 1579 z "},"Ổ":{"ha":1143,"x_min":0,"x_max":0,"o":"m 571 1049 b 39 431 249 1049 39 792 b 571 -187 39 69 249 -187 b 1104 431 896 -187 1104 69 b 571 1049 1104 792 896 1049 z m 571 -53 b 256 432 369 -53 256 140 b 571 914 256 724 367 914 b 888 432 776 914 888 724 b 571 -53 888 140 775 -53 z m 383 1067 l 392 1056 b 569 1167 450 1085 515 1114 b 749 1056 625 1114 690 1085 l 757 1067 b 569 1329 707 1100 643 1183 b 383 1067 497 1183 433 1100 z m 447 1539 l 450 1538 b 549 1621 464 1582 492 1621 b 618 1546 593 1621 618 1596 b 519 1406 618 1486 582 1435 l 533 1378 b 722 1549 651 1414 722 1478 b 590 1649 722 1608 674 1649 b 447 1539 515 1649 464 1615 z "},"Ỗ":{"ha":1143,"x_min":0,"x_max":0,"o":"m 571 1049 b 39 431 249 1049 39 792 b 571 -187 39 69 249 -187 b 1104 431 896 -187 1104 69 b 571 1049 1104 792 896 1049 z m 571 -53 b 256 432 369 -53 256 140 b 571 914 256 724 367 914 b 888 432 776 914 888 724 b 571 -53 888 140 775 -53 z m 383 1067 l 392 1056 b 569 1167 450 1085 515 1114 b 749 1056 625 1114 690 1085 l 757 1067 b 569 1329 707 1100 643 1183 b 383 1067 497 1183 433 1100 z m 347 1407 l 363 1407 b 446 1513 372 1471 406 1513 b 654 1433 510 1513 556 1433 b 793 1653 753 1433 794 1526 l 778 1653 b 694 1546 769 1590 735 1546 b 486 1624 631 1546 585 1624 b 347 1407 388 1624 346 1533 z "},"Ö":{"ha":1143,"x_min":0,"x_max":0,"o":"m 571 1049 b 39 431 249 1049 39 792 b 571 -187 39 69 249 -187 b 1104 431 896 -187 1104 69 b 571 1049 1104 792 896 1049 z m 571 -53 b 256 432 369 -53 256 140 b 571 914 256 724 367 914 b 888 432 776 914 888 724 b 571 -53 888 140 775 -53 z m 350 1171 b 446 1076 350 1114 389 1076 b 542 1171 503 1076 542 1114 b 446 1267 542 1229 503 1267 b 350 1171 389 1267 350 1229 z m 599 1171 b 696 1076 599 1114 638 1076 b 790 1171 751 1076 790 1114 b 696 1267 790 1229 751 1267 b 599 1171 638 1267 599 1229 z "},"Ȫ":{"ha":1143,"x_min":0,"x_max":0,"o":"m 571 1049 b 39 431 249 1049 39 792 b 571 -187 39 69 249 -187 b 1104 431 896 -187 1104 69 b 571 1049 1104 792 896 1049 z m 571 -53 b 256 432 369 -53 256 140 b 571 914 256 724 367 914 b 888 432 776 914 888 724 b 571 -53 888 140 775 -53 z m 350 1171 b 446 1076 350 1114 389 1076 b 542 1171 503 1076 542 1114 b 446 1267 542 1229 503 1267 b 350 1171 389 1267 350 1229 z m 599 1171 b 696 1076 599 1114 638 1076 b 790 1171 751 1076 790 1114 b 696 1267 790 1229 751 1267 b 599 1171 638 1267 599 1229 z m 324 1461 l 324 1378 l 817 1378 l 817 1461 z "},"Ọ":{"ha":1143,"x_min":0,"x_max":0,"o":"m 571 1049 b 39 431 249 1049 39 792 b 571 -187 39 69 249 -187 b 1104 431 896 -187 1104 69 b 571 1049 1104 792 896 1049 z m 571 -53 b 256 432 369 -53 256 140 b 571 914 256 724 367 914 b 888 432 776 914 888 724 b 571 -53 888 140 775 -53 z m 672 -337 b 571 -236 672 -276 632 -236 b 469 -337 511 -236 469 -276 b 571 -439 469 -397 511 -439 b 672 -337 632 -439 672 -397 z "},"Ò":{"ha":1143,"x_min":0,"x_max":0,"o":"m 571 1049 b 39 431 249 1049 39 792 b 571 -187 39 69 249 -187 b 1104 431 896 -187 1104 69 b 571 1049 1104 792 896 1049 z m 571 -53 b 256 432 369 -53 256 140 b 571 914 256 724 367 914 b 888 432 776 914 888 724 b 571 -53 888 140 775 -53 z m 447 1251 l 661 1067 l 694 1067 l 626 1251 z "},"Ỏ":{"ha":1143,"x_min":0,"x_max":0,"o":"m 571 1049 b 39 431 249 1049 39 792 b 571 -187 39 69 249 -187 b 1104 431 896 -187 1104 69 b 571 1049 1104 792 896 1049 z m 571 -53 b 256 432 369 -53 256 140 b 571 914 256 724 367 914 b 888 432 776 914 888 724 b 571 -53 888 140 775 -53 z m 447 1211 l 450 1210 b 549 1293 464 1254 492 1293 b 618 1218 593 1293 618 1268 b 519 1078 618 1158 582 1107 l 533 1050 b 722 1221 651 1086 722 1150 b 590 1321 722 1281 674 1321 b 447 1211 515 1321 464 1288 z "},"Ơ":{"ha":1143,"x_min":0,"x_max":0,"o":"m 571 1049 b 39 431 249 1049 39 792 b 571 -187 39 69 249 -187 b 1104 431 896 -187 1104 69 b 967 867 1104 607 1054 757 b 1179 1069 1081 928 1161 978 l 1024 1069 b 954 881 1049 981 1015 917 b 571 1049 863 986 731 1049 z m 571 -53 b 256 432 369 -53 256 140 b 571 914 256 724 367 914 b 888 432 776 914 888 724 b 571 -53 888 140 775 -53 z "},"Ớ":{"ha":1143,"x_min":0,"x_max":0,"o":"m 571 1049 b 39 431 249 1049 39 792 b 571 -187 39 69 249 -187 b 1104 431 896 -187 1104 69 b 967 867 1104 607 1054 757 b 1179 1069 1081 928 1161 978 l 1024 1069 b 954 881 1049 981 1015 917 b 571 1049 863 986 731 1049 z m 571 -53 b 256 432 369 -53 256 140 b 571 914 256 724 367 914 b 888 432 776 914 888 724 b 571 -53 888 140 775 -53 z m 447 1067 l 481 1067 l 694 1251 l 515 1251 z "},"Ợ":{"ha":1143,"x_min":0,"x_max":0,"o":"m 571 1049 b 39 431 249 1049 39 792 b 571 -187 39 69 249 -187 b 1104 431 896 -187 1104 69 b 967 867 1104 607 1054 757 b 1179 1069 1081 928 1161 978 l 1024 1069 b 954 881 1049 981 1015 917 b 571 1049 863 986 731 1049 z m 571 -53 b 256 432 369 -53 256 140 b 571 914 256 724 367 914 b 888 432 776 914 888 724 b 571 -53 888 140 775 -53 z m 672 -337 b 571 -236 672 -276 632 -236 b 469 -337 511 -236 469 -276 b 571 -439 469 -397 511 -439 b 672 -337 632 -439 672 -397 z "},"Ờ":{"ha":1143,"x_min":0,"x_max":0,"o":"m 571 1049 b 39 431 249 1049 39 792 b 571 -187 39 69 249 -187 b 1104 431 896 -187 1104 69 b 967 867 1104 607 1054 757 b 1179 1069 1081 928 1161 978 l 1024 1069 b 954 881 1049 981 1015 917 b 571 1049 863 986 731 1049 z m 571 -53 b 256 432 369 -53 256 140 b 571 914 256 724 367 914 b 888 432 776 914 888 724 b 571 -53 888 140 775 -53 z m 447 1251 l 661 1067 l 694 1067 l 626 1251 z "},"Ở":{"ha":1143,"x_min":0,"x_max":0,"o":"m 571 1049 b 39 431 249 1049 39 792 b 571 -187 39 69 249 -187 b 1104 431 896 -187 1104 69 b 967 867 1104 607 1054 757 b 1179 1069 1081 928 1161 978 l 1024 1069 b 954 881 1049 981 1015 917 b 571 1049 863 986 731 1049 z m 571 -53 b 256 432 369 -53 256 140 b 571 914 256 724 367 914 b 888 432 776 914 888 724 b 571 -53 888 140 775 -53 z m 447 1211 l 450 1210 b 549 1293 464 1254 492 1293 b 618 1218 593 1293 618 1268 b 519 1078 618 1158 582 1107 l 533 1050 b 722 1221 651 1086 722 1150 b 590 1321 722 1281 674 1321 b 447 1211 515 1321 464 1288 z "},"Ỡ":{"ha":1143,"x_min":0,"x_max":0,"o":"m 571 1049 b 39 431 249 1049 39 792 b 571 -187 39 69 249 -187 b 1104 431 896 -187 1104 69 b 967 867 1104 607 1054 757 b 1179 1069 1081 928 1161 978 l 1024 1069 b 954 881 1049 981 1015 917 b 571 1049 863 986 731 1049 z m 571 -53 b 256 432 369 -53 256 140 b 571 914 256 724 367 914 b 888 432 776 914 888 724 b 571 -53 888 140 775 -53 z m 222 1079 l 246 1079 b 376 1185 261 1143 313 1185 b 701 1106 476 1185 547 1106 b 918 1325 856 1106 921 1199 l 894 1325 b 764 1218 882 1263 826 1218 b 439 1296 664 1218 593 1296 b 222 1079 285 1296 219 1206 z "},"Ő":{"ha":1143,"x_min":0,"x_max":0,"o":"m 571 1049 b 39 431 249 1049 39 792 b 571 -187 39 69 249 -187 b 1104 431 896 -187 1104 69 b 571 1049 1104 792 896 1049 z m 571 -53 b 256 432 369 -53 256 140 b 571 914 256 724 367 914 b 888 432 776 914 888 724 b 571 -53 888 140 775 -53 z m 336 1067 l 369 1067 l 583 1251 l 404 1251 z m 557 1067 l 590 1067 l 804 1251 l 625 1251 z "},"Ō":{"ha":1143,"x_min":0,"x_max":0,"o":"m 571 1049 b 39 431 249 1049 39 792 b 571 -187 39 69 249 -187 b 1104 431 896 -187 1104 69 b 571 1049 1104 792 896 1049 z m 571 -53 b 256 432 369 -53 256 140 b 571 914 256 724 367 914 b 888 432 776 914 888 724 b 571 -53 888 140 775 -53 z m 324 1217 l 324 1133 l 817 1133 l 817 1217 z "},"Ṓ":{"ha":1143,"x_min":0,"x_max":0,"o":"m 571 1049 b 39 431 249 1049 39 792 b 571 -187 39 69 249 -187 b 1104 431 896 -187 1104 69 b 571 1049 1104 792 896 1049 z m 571 -53 b 256 432 369 -53 256 140 b 571 914 256 724 367 914 b 888 432 776 914 888 724 b 571 -53 888 140 775 -53 z m 324 1217 l 324 1133 l 817 1133 l 817 1217 z m 447 1282 l 481 1282 l 694 1467 l 515 1467 z "},"Ṑ":{"ha":1143,"x_min":0,"x_max":0,"o":"m 571 1049 b 39 431 249 1049 39 792 b 571 -187 39 69 249 -187 b 1104 431 896 -187 1104 69 b 571 1049 1104 792 896 1049 z m 571 -53 b 256 432 369 -53 256 140 b 571 914 256 724 367 914 b 888 432 776 914 888 724 b 571 -53 888 140 775 -53 z m 324 1217 l 324 1133 l 817 1133 l 817 1217 z m 447 1467 l 661 1282 l 694 1282 l 626 1467 z "},"Ɔ":{"ha":931,"x_min":0,"x_max":0,"o":"m -128 788 l -114 782 b 265 1096 -58 1010 90 1096 b 675 613 522 1096 675 910 b 325 128 675 319 526 128 b 44 592 100 128 15 371 l 67 764 l 50 767 l -110 -1 l -99 -4 l -83 28 b 328 -6 -46 103 101 -6 b 892 622 667 -6 892 240 b 372 1231 892 982 693 1231 b -128 788 119 1231 -72 1076 z "},"Ø":{"ha":1143,"x_min":0,"x_max":0,"o":"m 571 1049 b 39 431 249 1049 39 792 b 128 67 39 290 71 165 l 85 0 l 172 0 b 571 -187 265 -118 403 -187 b 1104 431 896 -187 1104 69 b 828 985 1104 685 1001 886 l 865 1042 l 767 1042 l 751 1019 b 571 1049 697 1039 636 1049 z m 571 -53 b 294 171 439 -53 344 31 l 743 854 b 888 432 838 778 888 628 b 571 -53 888 140 775 -53 z m 256 432 b 571 914 256 724 367 914 b 671 896 607 914 642 908 l 268 279 b 256 432 260 326 256 378 z "},"Ǿ":{"ha":1143,"x_min":0,"x_max":0,"o":"m 571 1049 b 39 431 249 1049 39 792 b 128 67 39 290 71 165 l 85 0 l 172 0 b 571 -187 265 -118 403 -187 b 1104 431 896 -187 1104 69 b 828 985 1104 685 1001 886 l 865 1042 l 767 1042 l 751 1019 b 571 1049 697 1039 636 1049 z m 571 -53 b 294 171 439 -53 344 31 l 743 854 b 888 432 838 778 888 628 b 571 -53 888 140 775 -53 z m 447 1067 l 481 1067 l 694 1251 l 515 1251 z m 256 432 b 571 914 256 724 367 914 b 671 896 607 914 642 908 l 268 279 b 256 432 260 326 256 378 z "},"Õ":{"ha":1143,"x_min":0,"x_max":0,"o":"m 571 1049 b 39 431 249 1049 39 792 b 571 -187 39 69 249 -187 b 1104 431 896 -187 1104 69 b 571 1049 1104 792 896 1049 z m 571 -53 b 256 432 369 -53 256 140 b 571 914 256 724 367 914 b 888 432 776 914 888 724 b 571 -53 888 140 775 -53 z m 347 1079 l 363 1079 b 446 1185 372 1143 406 1185 b 654 1106 510 1185 556 1106 b 793 1325 753 1106 794 1199 l 778 1325 b 694 1218 769 1263 735 1218 b 486 1296 631 1218 585 1296 b 347 1079 388 1296 346 1206 z "},"Ṍ":{"ha":1143,"x_min":0,"x_max":0,"o":"m 571 1049 b 39 431 249 1049 39 792 b 571 -187 39 69 249 -187 b 1104 431 896 -187 1104 69 b 571 1049 1104 792 896 1049 z m 571 -53 b 256 432 369 -53 256 140 b 571 914 256 724 367 914 b 888 432 776 914 888 724 b 571 -53 888 140 775 -53 z m 347 1079 l 363 1079 b 446 1185 372 1143 406 1185 b 654 1106 510 1185 556 1106 b 793 1325 753 1106 794 1199 l 778 1325 b 694 1218 769 1263 735 1218 b 486 1296 631 1218 585 1296 b 347 1079 388 1296 346 1206 z m 447 1390 l 481 1390 l 694 1575 l 515 1575 z "},"Œ":{"ha":1415,"x_min":0,"x_max":0,"o":"m 936 164 l 936 608 b 974 656 936 640 949 657 b 1165 332 1074 651 1138 544 l 1182 221 l 1194 222 l 1143 856 l 1135 856 l 1132 829 b 986 711 1125 743 1086 711 l 974 711 b 936 758 949 711 936 726 l 936 878 b 983 938 936 918 951 938 l 1138 938 b 1347 729 1254 938 1319 838 l 1353 703 l 1367 703 l 1324 1094 l 1315 1094 b 1229 1042 1315 1065 1307 1042 l 703 1042 b 485 1056 664 1042 525 1056 b 33 521 210 1056 33 833 b 485 -14 33 208 210 -14 b 744 0 525 -14 707 0 l 1271 0 b 1358 -53 1349 0 1358 -24 l 1365 -53 l 1408 339 l 1396 339 l 1389 313 b 1179 104 1361 204 1297 104 l 983 104 b 936 164 951 104 936 124 z m 485 103 b 217 522 313 103 217 269 b 485 939 217 774 311 939 b 769 522 658 939 769 774 b 485 103 769 269 657 103 z "},"P":{"ha":999,"x_min":0,"x_max":0,"o":"m 551 606 l 404 606 b 357 664 372 606 357 625 l 357 854 b 404 913 357 893 372 913 l 553 913 b 763 768 697 913 763 865 b 551 606 763 658 682 606 z m 357 57 l 357 483 b 404 542 357 522 372 542 l 546 542 b 972 781 844 542 972 607 b 563 1033 972 953 844 1033 l 26 1033 l 26 1019 l 51 1015 b 160 806 131 999 160 951 l 160 57 b 51 -154 160 -90 131 -137 l 26 -158 l 26 -172 l 490 -172 l 490 -158 l 465 -154 b 357 57 385 -137 357 -90 z "},"Þ":{"ha":846,"x_min":0,"x_max":0,"o":"m 467 394 l 303 394 l 303 660 l 468 660 b 646 535 590 660 646 619 b 467 394 646 440 578 394 z m 415 1042 l 22 1042 l 22 1031 l 43 1026 b 136 844 111 1013 136 971 l 136 197 b 43 15 136 71 111 29 l 22 11 l 22 0 l 415 0 l 415 11 l 394 15 b 303 197 326 29 303 71 l 303 339 l 463 339 b 824 546 715 339 824 396 b 476 764 824 694 715 764 l 303 764 l 303 844 b 394 1026 303 971 326 1013 l 415 1031 z "},"Q":{"ha":1161,"x_min":0,"x_max":0,"o":"m 949 -43 l 694 11 b 697 42 642 22 647 32 b 1104 540 949 90 1104 283 b 571 1050 1104 839 896 1050 b 39 540 249 1050 39 839 b 335 75 39 324 150 153 l 333 75 l 778 -147 b 1156 -119 951 -235 1068 -215 l 1265 -1 l 1258 6 l 1207 -22 b 949 -43 1158 -51 1058 -67 z m 571 143 b 256 542 369 143 256 301 b 571 940 256 782 367 940 b 888 542 776 940 888 782 b 571 143 888 301 775 143 z "},"R":{"ha":1088,"x_min":0,"x_max":0,"o":"m 550 613 l 406 613 b 357 672 372 613 357 632 l 357 853 b 406 913 357 893 372 913 l 551 913 b 760 776 693 913 760 868 b 550 613 760 679 685 613 z m 357 57 l 357 488 b 432 540 357 524 381 540 b 664 336 576 540 638 464 l 701 144 b 949 -172 729 7 760 -174 l 1075 -169 l 1075 -157 l 1050 -153 b 925 58 983 -139 954 -75 l 872 299 b 511 572 836 463 714 557 b 969 801 818 572 969 647 b 561 1033 969 942 849 1033 l 26 1033 l 26 1019 l 51 1015 b 160 806 131 999 160 951 l 160 57 b 51 -154 160 -90 131 -137 l 26 -158 l 26 -172 l 490 -172 l 490 -158 l 465 -154 b 357 57 385 -137 357 -90 z "},"Ŕ":{"ha":1088,"x_min":0,"x_max":0,"o":"m 550 613 l 406 613 b 357 672 372 613 357 632 l 357 853 b 406 913 357 893 372 913 l 551 913 b 760 776 693 913 760 868 b 550 613 760 679 685 613 z m 357 57 l 357 488 b 432 540 357 524 381 540 b 664 336 576 540 638 464 l 701 144 b 949 -172 729 7 760 -174 l 1075 -169 l 1075 -157 l 1050 -153 b 925 58 983 -139 954 -75 l 872 299 b 511 572 836 463 714 557 b 969 801 818 572 969 647 b 561 1033 969 942 849 1033 l 472 1033 l 668 1203 l 489 1203 l 426 1033 l 26 1033 l 26 1019 l 51 1015 b 160 806 131 999 160 951 l 160 57 b 51 -154 160 -90 131 -137 l 26 -158 l 26 -172 l 490 -172 l 490 -158 l 465 -154 b 357 57 385 -137 357 -90 z "},"Ř":{"ha":1088,"x_min":0,"x_max":0,"o":"m 550 613 l 406 613 b 357 672 372 613 357 632 l 357 853 b 406 913 357 893 372 913 l 551 913 b 760 776 693 913 760 868 b 550 613 760 679 685 613 z m 357 57 l 357 488 b 432 540 357 524 381 540 b 664 336 576 540 638 464 l 701 144 b 949 -172 729 7 760 -174 l 1075 -169 l 1075 -157 l 1050 -153 b 925 58 983 -139 954 -75 l 872 299 b 511 572 836 463 714 557 b 969 801 818 572 969 647 b 561 1033 969 942 849 1033 l 557 1033 b 731 1269 625 1163 683 1238 l 722 1281 b 543 1169 664 1251 599 1222 b 365 1281 489 1222 424 1251 l 357 1269 b 529 1033 404 1238 463 1163 l 26 1033 l 26 1019 l 51 1015 b 160 806 131 999 160 951 l 160 57 b 51 -154 160 -90 131 -137 l 26 -158 l 26 -172 l 490 -172 l 490 -158 l 465 -154 b 357 57 385 -137 357 -90 z "},"Ŗ":{"ha":1088,"x_min":0,"x_max":0,"o":"m 550 613 l 406 613 b 357 672 372 613 357 632 l 357 853 b 406 913 357 893 372 913 l 551 913 b 760 776 693 913 760 868 b 550 613 760 679 685 613 z m 357 57 l 357 488 b 432 540 357 524 381 540 b 664 336 576 540 638 464 l 701 144 b 949 -172 729 7 760 -174 l 1075 -169 l 1075 -157 l 1050 -153 b 925 58 983 -139 954 -75 l 872 299 b 511 572 836 463 714 557 b 969 801 818 572 969 647 b 561 1033 969 942 849 1033 l 26 1033 l 26 1019 l 51 1015 b 160 806 131 999 160 951 l 160 57 b 51 -154 160 -90 131 -137 l 26 -158 l 26 -172 l 490 -172 l 490 -158 l 465 -154 b 357 57 385 -137 357 -90 z m 436 -344 b 546 -443 436 -412 488 -454 b 453 -614 543 -497 514 -574 l 457 -622 b 653 -349 571 -571 653 -454 b 549 -233 653 -275 613 -233 b 436 -344 482 -233 436 -279 z "},"Ṝ":{"ha":1088,"x_min":0,"x_max":0,"o":"m 550 613 l 406 613 b 357 672 372 613 357 632 l 357 853 b 406 913 357 893 372 913 l 551 913 b 760 776 693 913 760 868 b 550 613 760 679 685 613 z m 357 57 l 357 488 b 432 540 357 524 381 540 b 664 336 576 540 638 464 l 701 144 b 949 -172 729 7 760 -174 l 1075 -169 l 1075 -157 l 1050 -153 b 925 58 983 -139 954 -75 l 872 299 b 511 572 836 463 714 557 b 969 801 818 572 969 647 b 561 1033 969 942 849 1033 l 26 1033 l 26 1019 l 51 1015 b 160 806 131 999 160 951 l 160 57 b 51 -154 160 -90 131 -137 l 26 -158 l 26 -172 l 490 -172 l 490 -158 l 465 -154 b 357 57 385 -137 357 -90 z m 646 -337 b 544 -236 646 -276 606 -236 b 443 -337 485 -236 443 -276 b 544 -439 443 -397 485 -439 b 646 -337 606 -439 646 -397 z m 297 1168 l 297 1085 l 790 1085 l 790 1168 z "},"Ṟ":{"ha":1088,"x_min":0,"x_max":0,"o":"m 550 613 l 406 613 b 357 672 372 613 357 632 l 357 853 b 406 913 357 893 372 913 l 551 913 b 760 776 693 913 760 868 b 550 613 760 679 685 613 z m 357 57 l 357 488 b 432 540 357 524 381 540 b 664 336 576 540 638 464 l 701 144 b 949 -172 729 7 760 -174 l 1075 -169 l 1075 -157 l 1050 -153 b 925 58 983 -139 954 -75 l 872 299 b 511 572 836 463 714 557 b 969 801 818 572 969 647 b 561 1033 969 942 849 1033 l 26 1033 l 26 1019 l 51 1015 b 160 806 131 999 160 951 l 160 57 b 51 -154 160 -90 131 -137 l 26 -158 l 26 -172 l 490 -172 l 490 -158 l 465 -154 b 357 57 385 -137 357 -90 z m 792 -387 l 792 -304 l 299 -304 l 299 -387 z "},"S":{"ha":1010,"x_min":0,"x_max":0,"o":"m 285 760 b 526 917 283 846 372 917 b 851 629 728 917 864 797 l 844 536 l 860 533 l 958 1038 l 947 1040 l 933 1008 b 528 1050 900 931 804 1050 b 83 717 233 1050 83 913 b 775 117 85 297 768 413 b 518 -57 778 11 679 -57 b 171 307 276 -57 160 93 l 179 417 l 163 421 l 49 -144 l 60 -149 l 75 -117 b 508 -190 107 -37 197 -190 b 974 165 817 -190 974 -40 b 285 760 971 593 290 504 z "},"Ś":{"ha":1010,"x_min":0,"x_max":0,"o":"m 285 760 b 526 917 283 846 372 917 b 851 629 728 917 864 797 l 844 536 l 860 533 l 958 1038 l 947 1040 l 933 1008 b 528 1050 900 931 804 1050 b 449 1046 500 1050 474 1049 l 629 1203 l 450 1203 l 389 1039 b 83 717 186 1001 83 879 b 775 117 85 297 768 413 b 518 -57 778 11 679 -57 b 171 307 276 -57 160 93 l 179 417 l 163 421 l 49 -144 l 60 -149 l 75 -117 b 508 -190 107 -37 197 -190 b 974 165 817 -190 974 -40 b 285 760 971 593 290 504 z "},"Š":{"ha":1010,"x_min":0,"x_max":0,"o":"m 285 760 b 526 917 283 846 372 917 b 851 629 728 917 864 797 l 844 536 l 860 533 l 958 1038 l 947 1040 l 933 1008 b 528 1050 900 931 804 1050 b 692 1269 590 1169 647 1239 l 683 1281 b 504 1169 625 1251 560 1222 b 326 1281 450 1222 385 1251 l 318 1269 b 483 1049 363 1239 419 1169 b 83 717 218 1036 83 903 b 775 117 85 297 768 413 b 518 -57 778 11 679 -57 b 171 307 276 -57 160 93 l 179 417 l 163 421 l 49 -144 l 60 -149 l 75 -117 b 508 -190 107 -37 197 -190 b 974 165 817 -190 974 -40 b 285 760 971 593 290 504 z "},"Ş":{"ha":1010,"x_min":0,"x_max":0,"o":"m 285 760 b 526 917 283 846 372 917 b 851 629 728 917 864 797 l 844 536 l 860 533 l 958 1038 l 947 1040 l 933 1008 b 528 1050 900 931 804 1050 b 83 717 233 1050 83 913 b 775 117 85 297 768 413 b 518 -57 778 11 679 -57 b 171 307 276 -57 160 93 l 179 417 l 163 421 l 49 -144 l 60 -149 l 75 -117 b 465 -189 106 -42 189 -176 l 383 -343 l 392 -349 b 494 -289 413 -310 449 -289 b 583 -376 550 -289 583 -321 b 485 -469 583 -435 546 -469 b 390 -406 442 -469 406 -453 l 388 -407 b 529 -497 400 -465 449 -497 b 688 -374 636 -497 688 -449 b 518 -247 688 -297 633 -247 b 496 -249 510 -247 503 -247 l 528 -190 b 974 165 824 -183 974 -36 b 285 760 971 593 290 504 z "},"Ŝ":{"ha":1010,"x_min":0,"x_max":0,"o":"m 285 760 b 526 917 283 846 372 917 b 851 629 728 917 864 797 l 844 536 l 860 533 l 958 1038 l 947 1040 l 933 1008 b 665 1039 906 944 838 1013 b 504 1281 619 1082 565 1160 b 325 1022 435 1140 374 1058 b 83 717 164 974 83 861 b 775 117 85 297 768 413 b 518 -57 778 11 679 -57 b 171 307 276 -57 160 93 l 179 417 l 163 421 l 49 -144 l 60 -149 l 75 -117 b 508 -190 107 -37 197 -190 b 974 165 817 -190 974 -40 b 285 760 971 593 290 504 z m 389 1039 b 504 1118 429 1060 468 1083 b 606 1047 536 1088 571 1065 b 528 1050 581 1049 556 1050 b 389 1039 478 1050 431 1046 z "},"Ș":{"ha":1010,"x_min":0,"x_max":0,"o":"m 285 760 b 526 917 283 846 372 917 b 851 629 728 917 864 797 l 844 536 l 860 533 l 958 1038 l 947 1040 l 933 1008 b 528 1050 900 931 804 1050 b 83 717 233 1050 83 913 b 775 117 85 297 768 413 b 518 -57 778 11 679 -57 b 171 307 276 -57 160 93 l 179 417 l 163 421 l 49 -144 l 60 -149 l 75 -117 b 508 -190 107 -37 197 -190 b 974 165 817 -190 974 -40 b 285 760 971 593 290 504 z m 397 -344 b 507 -443 397 -412 449 -454 b 414 -614 504 -497 475 -574 l 418 -622 b 614 -349 532 -571 614 -454 b 510 -233 614 -275 574 -233 b 397 -344 443 -233 397 -279 z "},"Ṣ":{"ha":1010,"x_min":0,"x_max":0,"o":"m 285 760 b 526 917 283 846 372 917 b 851 629 728 917 864 797 l 844 536 l 860 533 l 958 1038 l 947 1040 l 933 1008 b 528 1050 900 931 804 1050 b 83 717 233 1050 83 913 b 775 117 85 297 768 413 b 518 -57 778 11 679 -57 b 171 307 276 -57 160 93 l 179 417 l 163 421 l 49 -144 l 60 -149 l 75 -117 b 508 -190 107 -37 197 -190 b 974 165 817 -190 974 -40 b 285 760 971 593 290 504 z m 607 -337 b 506 -236 607 -276 567 -236 b 404 -337 446 -236 404 -276 b 506 -439 404 -397 446 -439 b 607 -337 567 -439 607 -397 z "},"ẞ":{"ha":939,"x_min":0,"x_max":0,"o":"m 415 608 l 415 590 b 704 347 618 597 704 526 b 560 132 704 210 653 132 b 435 253 493 132 464 174 l 425 249 l 490 0 b 882 331 696 -50 882 107 b 556 618 882 515 754 625 b 819 835 740 651 819 717 b 544 1056 819 968 719 1056 b 172 550 307 1056 172 894 l 172 197 b 81 15 172 71 149 29 l 60 11 l 60 0 l 339 0 l 339 568 b 522 938 339 808 400 938 b 643 815 597 938 643 890 b 415 608 643 711 554 631 z "},"T":{"ha":981,"x_min":0,"x_max":0,"o":"m 285 913 l 336 913 b 393 843 374 913 393 890 l 393 57 b 283 -154 393 -90 364 -137 l 258 -158 l 258 -172 l 722 -172 l 722 -158 l 697 -154 b 589 57 618 -137 589 -90 l 589 843 b 646 913 589 890 607 913 l 697 913 b 944 672 836 913 911 797 l 951 642 l 968 642 l 917 1094 l 907 1094 b 806 1033 907 1060 897 1033 l 175 1033 b 74 1094 85 1033 74 1060 l 65 1094 l 14 642 l 29 642 l 38 672 b 285 913 71 797 146 913 z "},"Ŧ":{"ha":981,"x_min":0,"x_max":0,"o":"m 285 913 l 336 913 b 393 843 374 913 393 890 l 393 444 l 182 444 l 182 335 l 393 335 l 393 57 b 283 -154 393 -90 364 -137 l 258 -158 l 258 -172 l 722 -172 l 722 -158 l 697 -154 b 589 57 618 -137 589 -90 l 589 335 l 797 335 l 797 444 l 589 444 l 589 843 b 646 913 589 890 607 913 l 697 913 b 944 672 836 913 911 797 l 951 642 l 968 642 l 917 1094 l 907 1094 b 806 1033 907 1060 897 1033 l 175 1033 b 74 1094 85 1033 74 1060 l 65 1094 l 14 642 l 29 642 l 38 672 b 285 913 71 797 146 913 z "},"Ť":{"ha":981,"x_min":0,"x_max":0,"o":"m 285 913 l 336 913 b 393 843 374 913 393 890 l 393 57 b 283 -154 393 -90 364 -137 l 258 -158 l 258 -172 l 722 -172 l 722 -158 l 697 -154 b 589 57 618 -137 589 -90 l 589 843 b 646 913 589 890 607 913 l 697 913 b 944 672 836 913 911 797 l 951 642 l 968 642 l 917 1094 l 907 1094 b 806 1033 907 1060 897 1033 l 503 1033 b 676 1269 571 1163 629 1238 l 668 1281 b 489 1169 610 1251 544 1222 b 311 1281 435 1222 369 1251 l 303 1269 b 475 1033 350 1238 408 1163 l 175 1033 b 74 1094 85 1033 74 1060 l 65 1094 l 14 642 l 29 642 l 38 672 b 285 913 71 797 146 913 z "},"Ţ":{"ha":981,"x_min":0,"x_max":0,"o":"m 285 913 l 336 913 b 393 843 374 913 393 890 l 393 57 b 283 -154 393 -90 364 -137 l 258 -158 l 258 -172 l 458 -172 l 368 -343 l 376 -349 b 479 -289 397 -310 433 -289 b 568 -376 535 -289 568 -321 b 469 -469 568 -435 531 -469 b 375 -406 426 -469 390 -453 l 372 -407 b 514 -497 385 -465 433 -497 b 672 -374 621 -497 672 -449 b 503 -247 672 -297 618 -247 b 481 -249 494 -247 488 -247 l 522 -172 l 722 -172 l 722 -158 l 697 -154 b 589 57 618 -137 589 -90 l 589 843 b 646 913 589 890 607 913 l 697 913 b 944 672 836 913 911 797 l 951 642 l 968 642 l 917 1094 l 907 1094 b 806 1033 907 1060 897 1033 l 175 1033 b 74 1094 85 1033 74 1060 l 65 1094 l 14 642 l 29 642 l 38 672 b 285 913 71 797 146 913 z "},"Ṱ":{"ha":981,"x_min":0,"x_max":0,"o":"m 285 913 l 336 913 b 393 843 374 913 393 890 l 393 57 b 283 -154 393 -90 364 -137 l 258 -158 l 258 -172 l 722 -172 l 722 -158 l 697 -154 b 589 57 618 -137 589 -90 l 589 843 b 646 913 589 890 607 913 l 697 913 b 944 672 836 913 911 797 l 951 642 l 968 642 l 917 1094 l 907 1094 b 806 1033 907 1060 897 1033 l 175 1033 b 74 1094 85 1033 74 1060 l 65 1094 l 14 642 l 29 642 l 38 672 b 285 913 71 797 146 913 z m 669 -500 l 678 -489 b 492 -226 628 -456 564 -372 b 304 -489 418 -372 354 -456 l 313 -500 b 492 -389 371 -471 436 -442 b 669 -500 546 -442 611 -471 z "},"Ț":{"ha":981,"x_min":0,"x_max":0,"o":"m 285 913 l 336 913 b 393 843 374 913 393 890 l 393 57 b 283 -154 393 -90 364 -137 l 258 -158 l 258 -172 l 722 -172 l 722 -158 l 697 -154 b 589 57 618 -137 589 -90 l 589 843 b 646 913 589 890 607 913 l 697 913 b 944 672 836 913 911 797 l 951 642 l 968 642 l 917 1094 l 907 1094 b 806 1033 907 1060 897 1033 l 175 1033 b 74 1094 85 1033 74 1060 l 65 1094 l 14 642 l 29 642 l 38 672 b 285 913 71 797 146 913 z m 382 -344 b 492 -443 382 -412 433 -454 b 399 -614 489 -497 460 -574 l 403 -622 b 599 -349 517 -571 599 -454 b 494 -233 599 -275 558 -233 b 382 -344 428 -233 382 -279 z "},"Ṭ":{"ha":981,"x_min":0,"x_max":0,"o":"m 285 913 l 336 913 b 393 843 374 913 393 890 l 393 57 b 283 -154 393 -90 364 -137 l 258 -158 l 258 -172 l 722 -172 l 722 -158 l 697 -154 b 589 57 618 -137 589 -90 l 589 843 b 646 913 589 890 607 913 l 697 913 b 944 672 836 913 911 797 l 951 642 l 968 642 l 917 1094 l 907 1094 b 806 1033 907 1060 897 1033 l 175 1033 b 74 1094 85 1033 74 1060 l 65 1094 l 14 642 l 29 642 l 38 672 b 285 913 71 797 146 913 z m 592 -337 b 490 -236 592 -276 551 -236 b 389 -337 431 -236 389 -276 b 490 -439 389 -397 431 -439 b 592 -337 551 -439 592 -397 z "},"Ṯ":{"ha":981,"x_min":0,"x_max":0,"o":"m 285 913 l 336 913 b 393 843 374 913 393 890 l 393 57 b 283 -154 393 -90 364 -137 l 258 -158 l 258 -172 l 722 -172 l 722 -158 l 697 -154 b 589 57 618 -137 589 -90 l 589 843 b 646 913 589 890 607 913 l 697 913 b 944 672 836 913 911 797 l 951 642 l 968 642 l 917 1094 l 907 1094 b 806 1033 907 1060 897 1033 l 175 1033 b 74 1094 85 1033 74 1060 l 65 1094 l 14 642 l 29 642 l 38 672 b 285 913 71 797 146 913 z m 738 -387 l 738 -304 l 244 -304 l 244 -387 z "},"U":{"ha":1132,"x_min":0,"x_max":0,"o":"m 563 -187 b 985 258 819 -187 985 -31 l 985 806 b 1093 1015 985 951 1014 999 l 1119 1019 l 1119 1033 l 654 1033 l 654 1019 l 679 1015 b 788 806 760 999 788 951 l 788 257 b 563 -56 788 42 714 -56 b 343 257 413 -56 343 42 l 343 806 b 453 1015 343 951 372 999 l 478 1019 l 478 1033 l 14 1033 l 14 1019 l 39 1015 b 147 806 118 999 147 951 l 147 258 b 563 -187 147 -31 306 -187 z "},"Ú":{"ha":1132,"x_min":0,"x_max":0,"o":"m 563 -187 b 985 258 819 -187 985 -31 l 985 806 b 1093 1015 985 951 1014 999 l 1119 1019 l 1119 1033 l 654 1033 l 654 1019 l 679 1015 b 788 806 760 999 788 951 l 788 257 b 563 -56 788 42 714 -56 b 343 257 413 -56 343 42 l 343 806 b 453 1015 343 951 372 999 l 469 1018 l 476 1018 l 690 1203 l 511 1203 l 449 1033 l 14 1033 l 14 1019 l 39 1015 b 147 806 118 999 147 951 l 147 258 b 563 -187 147 -31 306 -187 z "},"Ŭ":{"ha":1132,"x_min":0,"x_max":0,"o":"m 563 -187 b 985 258 819 -187 985 -31 l 985 806 b 1093 1015 985 951 1014 999 l 1119 1019 l 1119 1033 l 654 1033 l 654 1019 l 679 1015 b 788 806 760 999 788 951 l 788 257 b 563 -56 788 42 714 -56 b 343 257 413 -56 343 42 l 343 806 b 453 1015 343 951 372 999 l 478 1019 l 478 1033 l 14 1033 l 14 1019 l 39 1015 b 147 806 118 999 147 951 l 147 258 b 563 -187 147 -31 306 -187 z m 567 1124 b 443 1278 494 1124 442 1189 l 432 1278 b 565 1007 414 1115 468 1007 b 701 1278 663 1007 719 1115 l 690 1278 b 567 1124 692 1189 639 1124 z "},"Ǔ":{"ha":1132,"x_min":0,"x_max":0,"o":"m 563 -187 b 985 258 819 -187 985 -31 l 985 806 b 1093 1015 985 951 1014 999 l 1119 1019 l 1119 1033 l 654 1033 l 654 1019 l 679 1015 b 788 806 760 999 788 951 l 788 257 b 563 -56 788 42 714 -56 b 343 257 413 -56 343 42 l 343 806 b 453 1015 343 951 372 999 l 478 1019 l 478 1033 l 14 1033 l 14 1019 l 39 1015 b 147 806 118 999 147 951 l 147 258 b 563 -187 147 -31 306 -187 z m 388 1281 l 379 1269 b 565 1007 429 1236 493 1153 b 753 1269 639 1153 703 1236 l 744 1281 b 565 1169 686 1251 621 1222 b 388 1281 511 1222 446 1251 z "},"Û":{"ha":1132,"x_min":0,"x_max":0,"o":"m 563 -187 b 985 258 819 -187 985 -31 l 985 806 b 1093 1015 985 951 1014 999 l 1119 1019 l 1119 1033 l 733 1033 b 565 1281 686 1074 629 1153 b 399 1033 503 1153 446 1074 l 14 1033 l 14 1019 l 39 1015 b 147 806 118 999 147 951 l 147 258 b 563 -187 147 -31 306 -187 z m 343 257 l 343 806 b 453 1015 343 951 372 999 l 478 1019 l 478 1033 l 440 1033 b 565 1118 483 1056 526 1081 b 692 1033 604 1081 649 1056 l 654 1033 l 654 1019 l 679 1015 b 788 806 760 999 788 951 l 788 257 b 563 -56 788 42 714 -56 b 343 257 413 -56 343 42 z "},"Ü":{"ha":1132,"x_min":0,"x_max":0,"o":"m 563 -187 b 985 258 819 -187 985 -31 l 985 806 b 1093 1015 985 951 1014 999 l 1119 1019 l 1119 1033 l 726 1033 b 786 1122 763 1046 786 1078 b 692 1218 786 1181 747 1218 b 594 1122 633 1218 594 1181 b 656 1033 594 1078 618 1046 l 654 1019 l 679 1015 b 788 806 760 999 788 951 l 788 257 b 563 -56 788 42 714 -56 b 343 257 413 -56 343 42 l 343 806 b 453 1015 343 951 372 999 l 478 1019 l 478 1033 b 538 1122 514 1046 538 1078 b 442 1218 538 1181 499 1218 b 346 1122 385 1218 346 1181 b 406 1033 346 1078 369 1046 l 14 1033 l 14 1019 l 39 1015 b 147 806 118 999 147 951 l 147 258 b 563 -187 147 -31 306 -187 z "},"Ǘ":{"ha":1132,"x_min":0,"x_max":0,"o":"m 563 -187 b 985 258 819 -187 985 -31 l 985 806 b 1093 1015 985 951 1014 999 l 1119 1019 l 1119 1033 l 726 1033 b 786 1122 763 1046 786 1078 b 692 1218 786 1181 747 1218 b 594 1122 633 1218 594 1181 b 656 1033 594 1078 618 1046 l 654 1019 l 679 1015 b 788 806 760 999 788 951 l 788 257 b 563 -56 788 42 714 -56 b 343 257 413 -56 343 42 l 343 806 b 453 1015 343 951 372 999 l 478 1019 l 478 1033 b 538 1122 514 1046 538 1078 b 442 1218 538 1181 499 1218 b 346 1122 385 1218 346 1181 b 406 1033 346 1078 369 1046 l 14 1033 l 14 1019 l 39 1015 b 147 806 118 999 147 951 l 147 258 b 563 -187 147 -31 306 -187 z m 443 1263 l 476 1263 l 690 1447 l 511 1447 z "},"Ǚ":{"ha":1132,"x_min":0,"x_max":0,"o":"m 563 -187 b 985 258 819 -187 985 -31 l 985 806 b 1093 1015 985 951 1014 999 l 1119 1019 l 1119 1033 l 726 1033 b 786 1122 763 1046 786 1078 b 692 1218 786 1181 747 1218 b 594 1122 633 1218 594 1181 b 656 1033 594 1078 618 1046 l 654 1019 l 679 1015 b 788 806 760 999 788 951 l 788 257 b 563 -56 788 42 714 -56 b 343 257 413 -56 343 42 l 343 806 b 453 1015 343 951 372 999 l 478 1019 l 478 1033 b 538 1122 514 1046 538 1078 b 442 1218 538 1181 499 1218 b 346 1122 385 1218 346 1181 b 406 1033 346 1078 369 1046 l 14 1033 l 14 1019 l 39 1015 b 147 806 118 999 147 951 l 147 258 b 563 -187 147 -31 306 -187 z m 388 1525 l 379 1514 b 565 1251 429 1481 493 1397 b 753 1514 639 1397 703 1481 l 744 1525 b 565 1414 686 1496 621 1467 b 388 1525 511 1467 446 1496 z "},"Ǜ":{"ha":1132,"x_min":0,"x_max":0,"o":"m 563 -187 b 985 258 819 -187 985 -31 l 985 806 b 1093 1015 985 951 1014 999 l 1119 1019 l 1119 1033 l 726 1033 b 786 1122 763 1046 786 1078 b 692 1218 786 1181 747 1218 b 594 1122 633 1218 594 1181 b 656 1033 594 1078 618 1046 l 654 1019 l 679 1015 b 788 806 760 999 788 951 l 788 257 b 563 -56 788 42 714 -56 b 343 257 413 -56 343 42 l 343 806 b 453 1015 343 951 372 999 l 478 1019 l 478 1033 b 538 1122 514 1046 538 1078 b 442 1218 538 1181 499 1218 b 346 1122 385 1218 346 1181 b 406 1033 346 1078 369 1046 l 14 1033 l 14 1019 l 39 1015 b 147 806 118 999 147 951 l 147 258 b 563 -187 147 -31 306 -187 z m 443 1447 l 657 1263 l 690 1263 l 622 1447 z "},"Ǖ":{"ha":1132,"x_min":0,"x_max":0,"o":"m 563 -187 b 985 258 819 -187 985 -31 l 985 806 b 1093 1015 985 951 1014 999 l 1119 1019 l 1119 1033 l 726 1033 b 786 1122 763 1046 786 1078 b 692 1218 786 1181 747 1218 b 594 1122 633 1218 594 1181 b 656 1033 594 1078 618 1046 l 654 1019 l 679 1015 b 788 806 760 999 788 951 l 788 257 b 563 -56 788 42 714 -56 b 343 257 413 -56 343 42 l 343 806 b 453 1015 343 951 372 999 l 478 1019 l 478 1033 b 538 1122 514 1046 538 1078 b 442 1218 538 1181 499 1218 b 346 1122 385 1218 346 1181 b 406 1033 346 1078 369 1046 l 14 1033 l 14 1019 l 39 1015 b 147 806 118 999 147 951 l 147 258 b 563 -187 147 -31 306 -187 z m 319 1413 l 319 1329 l 813 1329 l 813 1413 z "},"Ụ":{"ha":1132,"x_min":0,"x_max":0,"o":"m 563 -187 b 985 258 819 -187 985 -31 l 985 806 b 1093 1015 985 951 1014 999 l 1119 1019 l 1119 1033 l 654 1033 l 654 1019 l 679 1015 b 788 806 760 999 788 951 l 788 257 b 563 -56 788 42 714 -56 b 343 257 413 -56 343 42 l 343 806 b 453 1015 343 951 372 999 l 478 1019 l 478 1033 l 14 1033 l 14 1019 l 39 1015 b 147 806 118 999 147 951 l 147 258 b 563 -187 147 -31 306 -187 z m 668 -337 b 567 -236 668 -276 628 -236 b 465 -337 507 -236 465 -276 b 567 -439 465 -397 507 -439 b 668 -337 628 -439 668 -397 z "},"Ù":{"ha":1132,"x_min":0,"x_max":0,"o":"m 563 -187 b 985 258 819 -187 985 -31 l 985 806 b 1093 1015 985 951 1014 999 l 1119 1019 l 1119 1033 l 685 1033 l 622 1203 l 443 1203 l 654 1021 l 656 1019 l 657 1018 l 663 1018 l 679 1015 b 788 806 760 999 788 951 l 788 257 b 563 -56 788 42 714 -56 b 343 257 413 -56 343 42 l 343 806 b 453 1015 343 951 372 999 l 478 1019 l 478 1033 l 14 1033 l 14 1019 l 39 1015 b 147 806 118 999 147 951 l 147 258 b 563 -187 147 -31 306 -187 z "},"Ủ":{"ha":1132,"x_min":0,"x_max":0,"o":"m 563 -187 b 985 258 819 -187 985 -31 l 985 806 b 1093 1015 985 951 1014 999 l 1119 1019 l 1119 1033 l 654 1033 l 654 1019 l 679 1015 b 788 806 760 999 788 951 l 788 257 b 563 -56 788 42 714 -56 b 343 257 413 -56 343 42 l 343 806 b 453 1015 343 951 372 999 l 478 1019 l 478 1033 l 14 1033 l 14 1019 l 39 1015 b 147 806 118 999 147 951 l 147 258 b 563 -187 147 -31 306 -187 z m 443 1163 l 446 1161 b 544 1244 460 1206 488 1244 b 614 1169 589 1244 614 1219 b 515 1029 614 1110 578 1058 l 529 1001 b 718 1172 647 1038 718 1101 b 586 1272 718 1232 669 1272 b 443 1163 511 1272 460 1239 z "},"Ư":{"ha":1132,"x_min":0,"x_max":0,"o":"m 563 -187 b 985 258 819 -187 985 -31 l 985 806 b 1093 1015 985 951 1014 999 l 1119 1019 l 1119 1033 l 1039 1033 b 1178 1194 1114 1079 1164 1125 l 1022 1194 b 989 1033 1042 1125 1026 1071 l 654 1033 l 654 1019 l 679 1015 b 788 806 760 999 788 951 l 788 257 b 563 -56 788 42 714 -56 b 343 257 413 -56 343 42 l 343 806 b 453 1015 343 951 372 999 l 478 1019 l 478 1033 l 14 1033 l 14 1019 l 39 1015 b 147 806 118 999 147 951 l 147 258 b 563 -187 147 -31 306 -187 z "},"Ứ":{"ha":1132,"x_min":0,"x_max":0,"o":"m 563 -187 b 985 258 819 -187 985 -31 l 985 806 b 1093 1015 985 951 1014 999 l 1119 1019 l 1119 1033 l 1039 1033 b 1178 1194 1114 1079 1164 1125 l 1022 1194 b 989 1033 1042 1125 1026 1071 l 654 1033 l 654 1019 l 679 1015 b 788 806 760 999 788 951 l 788 257 b 563 -56 788 42 714 -56 b 343 257 413 -56 343 42 l 343 806 b 453 1015 343 951 372 999 l 469 1018 l 476 1018 l 690 1203 l 511 1203 l 449 1033 l 14 1033 l 14 1019 l 39 1015 b 147 806 118 999 147 951 l 147 258 b 563 -187 147 -31 306 -187 z "},"Ự":{"ha":1132,"x_min":0,"x_max":0,"o":"m 563 -187 b 985 258 819 -187 985 -31 l 985 806 b 1093 1015 985 951 1014 999 l 1119 1019 l 1119 1033 l 1039 1033 b 1178 1194 1114 1079 1164 1125 l 1022 1194 b 989 1033 1042 1125 1026 1071 l 654 1033 l 654 1019 l 679 1015 b 788 806 760 999 788 951 l 788 257 b 563 -56 788 42 714 -56 b 343 257 413 -56 343 42 l 343 806 b 453 1015 343 951 372 999 l 478 1019 l 478 1033 l 14 1033 l 14 1019 l 39 1015 b 147 806 118 999 147 951 l 147 258 b 563 -187 147 -31 306 -187 z m 668 -337 b 567 -236 668 -276 628 -236 b 465 -337 507 -236 465 -276 b 567 -439 465 -397 507 -439 b 668 -337 628 -439 668 -397 z "},"Ừ":{"ha":1132,"x_min":0,"x_max":0,"o":"m 563 -187 b 985 258 819 -187 985 -31 l 985 806 b 1093 1015 985 951 1014 999 l 1119 1019 l 1119 1033 l 1039 1033 b 1178 1194 1114 1079 1164 1125 l 1022 1194 b 989 1033 1042 1125 1026 1071 l 685 1033 l 622 1203 l 443 1203 l 654 1021 l 656 1019 l 657 1018 l 663 1018 l 679 1015 b 788 806 760 999 788 951 l 788 257 b 563 -56 788 42 714 -56 b 343 257 413 -56 343 42 l 343 806 b 453 1015 343 951 372 999 l 478 1019 l 478 1033 l 14 1033 l 14 1019 l 39 1015 b 147 806 118 999 147 951 l 147 258 b 563 -187 147 -31 306 -187 z "},"Ử":{"ha":1132,"x_min":0,"x_max":0,"o":"m 563 -187 b 985 258 819 -187 985 -31 l 985 806 b 1093 1015 985 951 1014 999 l 1119 1019 l 1119 1033 l 1039 1033 b 1178 1194 1114 1079 1164 1125 l 1022 1194 b 989 1033 1042 1125 1026 1071 l 654 1033 l 654 1019 l 679 1015 b 788 806 760 999 788 951 l 788 257 b 563 -56 788 42 714 -56 b 343 257 413 -56 343 42 l 343 806 b 453 1015 343 951 372 999 l 478 1019 l 478 1033 l 14 1033 l 14 1019 l 39 1015 b 147 806 118 999 147 951 l 147 258 b 563 -187 147 -31 306 -187 z m 443 1163 l 446 1161 b 544 1244 460 1206 488 1244 b 614 1169 589 1244 614 1219 b 515 1029 614 1110 578 1058 l 529 1001 b 718 1172 647 1038 718 1101 b 586 1272 718 1232 669 1272 b 443 1163 511 1272 460 1239 z "},"Ữ":{"ha":1132,"x_min":0,"x_max":0,"o":"m 563 -187 b 985 258 819 -187 985 -31 l 985 806 b 1093 1015 985 951 1014 999 l 1119 1019 l 1119 1033 l 1039 1033 b 1178 1194 1114 1079 1164 1125 l 1022 1194 b 989 1033 1042 1125 1026 1071 l 654 1033 l 654 1019 l 679 1015 b 788 806 760 999 788 951 l 788 257 b 563 -56 788 42 714 -56 b 343 257 413 -56 343 42 l 343 806 b 453 1015 343 951 372 999 l 478 1019 l 478 1033 l 358 1033 b 442 1136 369 1096 401 1136 b 650 1057 506 1136 551 1057 b 789 1276 749 1057 790 1150 l 774 1276 b 690 1169 765 1214 731 1169 b 482 1247 626 1169 581 1247 b 343 1033 385 1247 342 1158 l 14 1033 l 14 1019 l 39 1015 b 147 806 118 999 147 951 l 147 258 b 563 -187 147 -31 306 -187 z "},"Ű":{"ha":1132,"x_min":0,"x_max":0,"o":"m 563 -187 b 985 258 819 -187 985 -31 l 985 806 b 1093 1015 985 951 1014 999 l 1119 1019 l 1119 1033 l 654 1033 l 654 1019 l 679 1015 b 788 806 760 999 788 951 l 788 257 b 563 -56 788 42 714 -56 b 343 257 413 -56 343 42 l 343 806 b 453 1015 343 951 372 999 l 478 1019 l 478 1033 l 383 1033 l 579 1203 l 400 1203 l 338 1033 l 14 1033 l 14 1019 l 39 1015 b 147 806 118 999 147 951 l 147 258 b 563 -187 147 -31 306 -187 z m 553 1018 l 586 1018 l 800 1203 l 621 1203 z "},"Ū":{"ha":1132,"x_min":0,"x_max":0,"o":"m 563 -187 b 985 258 819 -187 985 -31 l 985 806 b 1093 1015 985 951 1014 999 l 1119 1019 l 1119 1033 l 654 1033 l 654 1019 l 679 1015 b 788 806 760 999 788 951 l 788 257 b 563 -56 788 42 714 -56 b 343 257 413 -56 343 42 l 343 806 b 453 1015 343 951 372 999 l 478 1019 l 478 1033 l 14 1033 l 14 1019 l 39 1015 b 147 806 118 999 147 951 l 147 258 b 563 -187 147 -31 306 -187 z m 319 1168 l 319 1085 l 813 1085 l 813 1168 z "},"Ų":{"ha":1132,"x_min":0,"x_max":0,"o":"m 563 -187 l 576 -187 b 511 -299 535 -219 511 -258 b 643 -399 511 -358 560 -399 b 786 -289 718 -399 769 -365 l 783 -287 b 685 -371 769 -332 742 -371 b 615 -296 640 -371 615 -346 b 681 -175 615 -247 639 -206 b 985 258 869 -133 985 17 l 985 806 b 1093 1015 985 951 1014 999 l 1119 1019 l 1119 1033 l 654 1033 l 654 1019 l 679 1015 b 788 806 760 999 788 951 l 788 257 b 563 -56 788 42 714 -56 b 343 257 413 -56 343 42 l 343 806 b 453 1015 343 951 372 999 l 478 1019 l 478 1033 l 14 1033 l 14 1019 l 39 1015 b 147 806 118 999 147 951 l 147 258 b 563 -187 147 -31 306 -187 z "},"Ů":{"ha":1132,"x_min":0,"x_max":0,"o":"m 563 -187 b 985 258 819 -187 985 -31 l 985 806 b 1093 1015 985 951 1014 999 l 1119 1019 l 1119 1033 l 660 1033 b 718 1157 696 1060 718 1103 b 567 1308 718 1247 657 1308 b 415 1157 476 1308 415 1247 b 474 1033 415 1103 438 1060 l 14 1033 l 14 1019 l 39 1015 b 147 806 118 999 147 951 l 147 258 b 563 -187 147 -31 306 -187 z m 511 1157 b 567 1258 511 1217 533 1258 b 622 1157 600 1258 622 1217 b 567 1056 622 1097 600 1056 b 511 1157 533 1056 511 1097 z m 343 257 l 343 806 b 453 1015 343 951 372 999 l 478 1019 l 478 1031 b 567 1006 501 1014 532 1006 b 654 1029 600 1006 631 1014 l 654 1019 l 679 1015 b 788 806 760 999 788 951 l 788 257 b 563 -56 788 42 714 -56 b 343 257 413 -56 343 42 z "},"Ũ":{"ha":1132,"x_min":0,"x_max":0,"o":"m 563 -187 b 985 258 819 -187 985 -31 l 985 806 b 1093 1015 985 951 1014 999 l 1119 1019 l 1119 1033 l 654 1033 l 654 1019 l 679 1015 b 788 806 760 999 788 951 l 788 257 b 563 -56 788 42 714 -56 b 343 257 413 -56 343 42 l 343 806 b 453 1015 343 951 372 999 l 478 1019 l 478 1033 l 358 1033 b 442 1136 369 1096 401 1136 b 650 1057 506 1136 551 1057 b 789 1276 749 1057 790 1150 l 774 1276 b 690 1169 765 1214 731 1169 b 482 1247 626 1169 581 1247 b 343 1033 385 1247 342 1158 l 14 1033 l 14 1019 l 39 1015 b 147 806 118 999 147 951 l 147 258 b 563 -187 147 -31 306 -187 z "},"V":{"ha":1079,"x_min":0,"x_max":0,"o":"m 783 806 l 597 81 b 561 82 583 24 575 25 l 388 806 b 451 1015 351 957 378 1001 l 476 1019 l 476 1033 l 7 1033 l 7 1019 l 31 1015 b 186 806 111 999 151 947 l 369 57 b 332 -154 403 -83 413 -137 l 307 -158 l 307 -172 l 807 -172 l 807 -158 l 782 -154 b 721 57 701 -137 683 -90 l 914 806 b 1049 1015 956 968 975 1001 l 1072 1019 l 1072 1033 l 674 1033 l 674 1019 l 699 1015 b 783 806 789 997 817 935 z "},"W":{"ha":1625,"x_min":0,"x_max":0,"o":"m 1328 806 l 1175 85 b 1136 85 1158 6 1153 6 l 988 806 b 1069 1015 956 957 996 1001 l 1093 1019 l 1093 1033 l 628 1033 l 628 1019 l 653 1015 b 728 807 721 1003 751 914 l 568 85 b 529 85 550 6 546 6 l 381 806 b 447 1015 349 957 374 1001 l 472 1019 l 472 1033 l 7 1033 l 7 1019 l 31 1015 b 186 806 115 999 158 942 l 343 57 b 306 -154 372 -83 385 -137 l 281 -158 l 281 -172 l 746 -172 l 746 -158 l 728 -154 b 686 57 647 -133 657 -90 l 818 686 l 949 57 b 919 -154 978 -83 999 -133 l 901 -158 l 901 -172 l 1385 -172 l 1385 -158 l 1360 -154 b 1299 57 1281 -137 1268 -90 l 1460 806 b 1593 1015 1494 963 1517 1001 l 1618 1019 l 1618 1033 l 1219 1033 l 1219 1019 l 1244 1015 b 1328 806 1332 997 1357 939 z "},"Ẃ":{"ha":1625,"x_min":0,"x_max":0,"o":"m 1328 806 l 1175 85 b 1136 85 1158 6 1153 6 l 988 806 b 1069 1015 956 957 996 1001 l 1093 1019 l 1093 1033 l 742 1033 l 938 1203 l 758 1203 l 696 1033 l 628 1033 l 628 1019 l 653 1015 b 728 807 721 1003 751 914 l 568 85 b 529 85 550 6 546 6 l 381 806 b 447 1015 349 957 374 1001 l 472 1019 l 472 1033 l 7 1033 l 7 1019 l 31 1015 b 186 806 115 999 158 942 l 343 57 b 306 -154 372 -83 385 -137 l 281 -158 l 281 -172 l 746 -172 l 746 -158 l 728 -154 b 686 57 647 -133 657 -90 l 818 686 l 949 57 b 919 -154 978 -83 999 -133 l 901 -158 l 901 -172 l 1385 -172 l 1385 -158 l 1360 -154 b 1299 57 1281 -137 1268 -90 l 1460 806 b 1593 1015 1494 963 1517 1001 l 1618 1019 l 1618 1033 l 1219 1033 l 1219 1019 l 1244 1015 b 1328 806 1332 997 1357 939 z "},"Ŵ":{"ha":1625,"x_min":0,"x_max":0,"o":"m 1328 806 l 1175 85 b 1136 85 1158 6 1153 6 l 988 806 b 1069 1015 956 957 996 1001 l 1093 1019 l 1093 1033 l 981 1033 b 813 1281 933 1074 876 1153 b 646 1033 750 1153 693 1074 l 628 1033 l 628 1019 l 626 1018 l 635 1007 l 651 1015 b 728 807 721 1003 751 914 l 568 85 b 529 85 550 6 546 6 l 381 806 b 447 1015 349 957 374 1001 l 472 1019 l 472 1033 l 7 1033 l 7 1019 l 31 1015 b 186 806 115 999 158 942 l 343 57 b 306 -154 372 -83 385 -137 l 281 -158 l 281 -172 l 746 -172 l 746 -158 l 728 -154 b 686 57 647 -133 657 -90 l 818 686 l 949 57 b 919 -154 978 -83 999 -133 l 901 -158 l 901 -172 l 1385 -172 l 1385 -158 l 1360 -154 b 1299 57 1281 -137 1268 -90 l 1460 806 b 1593 1015 1494 963 1517 1001 l 1618 1019 l 1618 1033 l 1219 1033 l 1219 1019 l 1244 1015 b 1328 806 1332 997 1357 939 z m 688 1033 b 813 1118 731 1056 774 1081 b 939 1033 851 1081 896 1056 z "},"Ẅ":{"ha":1625,"x_min":0,"x_max":0,"o":"m 1328 806 l 1175 85 b 1136 85 1158 6 1153 6 l 988 806 b 1069 1015 956 957 996 1001 l 1093 1019 l 1093 1033 l 974 1033 b 1033 1122 1010 1046 1033 1078 b 939 1218 1033 1181 994 1218 b 842 1122 881 1218 842 1181 b 903 1033 842 1078 865 1046 l 725 1033 b 785 1122 761 1046 785 1078 b 689 1218 785 1181 746 1218 b 593 1122 632 1218 593 1181 b 653 1033 593 1078 617 1046 l 628 1033 l 628 1019 l 653 1015 b 728 807 721 1003 751 914 l 568 85 b 529 85 550 6 546 6 l 381 806 b 447 1015 349 957 374 1001 l 472 1019 l 472 1033 l 7 1033 l 7 1019 l 31 1015 b 186 806 115 999 158 942 l 343 57 b 306 -154 372 -83 385 -137 l 281 -158 l 281 -172 l 746 -172 l 746 -158 l 728 -154 b 686 57 647 -133 657 -90 l 818 686 l 949 57 b 919 -154 978 -83 999 -133 l 901 -158 l 901 -172 l 1385 -172 l 1385 -158 l 1360 -154 b 1299 57 1281 -137 1268 -90 l 1460 806 b 1593 1015 1494 963 1517 1001 l 1618 1019 l 1618 1033 l 1219 1033 l 1219 1019 l 1244 1015 b 1328 806 1332 997 1357 939 z "},"Ẁ":{"ha":1625,"x_min":0,"x_max":0,"o":"m 1328 806 l 1175 85 b 1136 85 1158 6 1153 6 l 988 806 b 1069 1015 956 957 996 1001 l 1093 1019 l 1093 1033 l 932 1033 l 869 1203 l 690 1203 l 886 1033 l 628 1033 l 628 1019 l 653 1015 b 728 807 721 1003 751 914 l 568 85 b 529 85 550 6 546 6 l 381 806 b 447 1015 349 957 374 1001 l 472 1019 l 472 1033 l 7 1033 l 7 1019 l 31 1015 b 186 806 115 999 158 942 l 343 57 b 306 -154 372 -83 385 -137 l 281 -158 l 281 -172 l 746 -172 l 746 -158 l 728 -154 b 686 57 647 -133 657 -90 l 818 686 l 949 57 b 919 -154 978 -83 999 -133 l 901 -158 l 901 -172 l 1385 -172 l 1385 -158 l 1360 -154 b 1299 57 1281 -137 1268 -90 l 1460 806 b 1593 1015 1494 963 1517 1001 l 1618 1019 l 1618 1033 l 1219 1033 l 1219 1019 l 1244 1015 b 1328 806 1332 997 1357 939 z "},"X":{"ha":1088,"x_min":0,"x_max":0,"o":"m 397 57 l 494 233 b 547 233 513 265 529 265 l 642 57 b 589 -154 701 -54 681 -144 l 540 -158 l 540 -172 l 1081 -172 l 1081 -158 l 1056 -154 b 871 57 990 -142 954 -101 l 640 488 l 815 806 b 993 1015 903 965 935 1004 l 1018 1019 l 1018 1033 l 633 1033 l 633 1019 l 658 1015 b 671 806 736 1001 740 931 l 596 667 b 543 667 576 635 561 635 l 469 806 b 490 1015 404 929 410 999 l 515 1019 l 515 1033 l 31 1033 l 31 1019 l 57 1015 b 240 806 122 1003 154 967 l 450 415 l 254 57 b 31 -154 189 -64 110 -139 l 7 -158 l 7 -172 l 478 -172 l 478 -158 l 442 -151 b 397 57 356 -132 338 -53 z "},"Y":{"ha":957,"x_min":0,"x_max":0,"o":"m 678 853 l 543 510 b 504 508 526 464 521 463 l 376 836 b 407 1015 336 940 349 1008 l 446 1019 l 446 1033 l 7 1033 l 7 1019 l 31 1015 b 181 807 86 1004 117 974 l 389 261 l 389 57 b 281 -154 389 -90 361 -137 l 256 -158 l 256 -172 l 721 -172 l 721 -158 l 694 -154 b 586 57 615 -137 586 -90 l 586 283 l 789 806 b 926 1015 839 931 854 1001 l 951 1019 l 951 1033 l 614 1033 l 614 1019 l 639 1015 b 678 853 710 1001 721 960 z "},"Ý":{"ha":957,"x_min":0,"x_max":0,"o":"m 678 853 l 543 510 b 504 508 526 464 521 463 l 376 836 b 407 1015 336 940 349 1008 l 446 1019 l 446 1033 l 407 1033 l 603 1203 l 424 1203 l 361 1033 l 7 1033 l 7 1019 l 31 1015 b 181 807 86 1004 117 974 l 389 261 l 389 57 b 281 -154 389 -90 361 -137 l 256 -158 l 256 -172 l 721 -172 l 721 -158 l 694 -154 b 586 57 615 -137 586 -90 l 586 283 l 789 806 b 926 1015 839 931 854 1001 l 951 1019 l 951 1033 l 614 1033 l 614 1019 l 639 1015 b 678 853 710 1001 721 960 z "},"Ŷ":{"ha":957,"x_min":0,"x_max":0,"o":"m 678 853 l 543 510 b 504 508 526 464 521 463 l 376 836 b 407 1015 336 940 349 1008 l 446 1019 l 446 1033 l 353 1033 b 478 1118 396 1056 439 1081 b 614 1028 519 1078 568 1051 l 614 1019 l 639 1015 l 642 1015 l 657 1007 l 660 1010 b 678 853 711 992 717 949 z m 7 1019 l 31 1015 b 181 807 86 1004 117 974 l 389 261 l 389 57 b 281 -154 389 -90 361 -137 l 256 -158 l 256 -172 l 721 -172 l 721 -158 l 694 -154 b 586 57 615 -137 586 -90 l 586 283 l 789 806 b 926 1015 839 931 854 1001 l 951 1019 l 951 1033 l 646 1033 b 478 1281 599 1074 542 1153 b 311 1033 415 1153 358 1074 l 7 1033 z "},"Ÿ":{"ha":957,"x_min":0,"x_max":0,"o":"m 678 853 l 543 510 b 504 508 526 464 521 463 l 376 836 b 407 1015 336 940 349 1008 l 446 1019 l 446 1033 l 390 1033 b 450 1122 426 1046 450 1078 b 354 1218 450 1181 411 1218 b 258 1122 297 1218 258 1181 b 318 1033 258 1078 282 1046 l 7 1033 l 7 1019 l 31 1015 b 181 807 86 1004 117 974 l 389 261 l 389 57 b 281 -154 389 -90 361 -137 l 256 -158 l 256 -172 l 721 -172 l 721 -158 l 694 -154 b 586 57 615 -137 586 -90 l 586 283 l 789 806 b 926 1015 839 931 854 1001 l 951 1019 l 951 1033 l 639 1033 b 699 1122 675 1046 699 1078 b 604 1218 699 1181 660 1218 b 507 1122 546 1218 507 1181 b 604 1028 507 1065 546 1028 b 614 1028 607 1028 611 1028 l 614 1019 l 639 1015 b 678 853 710 1001 721 960 z "},"Ẏ":{"ha":957,"x_min":0,"x_max":0,"o":"m 678 853 l 543 510 b 504 508 526 464 521 463 l 376 836 b 407 1015 336 940 349 1008 l 446 1019 l 446 1021 b 479 1017 456 1018 467 1017 b 581 1118 539 1017 581 1057 b 479 1219 581 1178 539 1219 b 378 1118 418 1219 378 1178 b 419 1033 378 1081 393 1050 l 7 1033 l 7 1019 l 31 1015 b 181 807 86 1004 117 974 l 389 261 l 389 57 b 281 -154 389 -90 361 -137 l 256 -158 l 256 -172 l 721 -172 l 721 -158 l 694 -154 b 586 57 615 -137 586 -90 l 586 283 l 789 806 b 926 1015 839 931 854 1001 l 951 1019 l 951 1033 l 614 1033 l 614 1019 l 639 1015 b 678 853 710 1001 721 960 z "},"Ỵ":{"ha":957,"x_min":0,"x_max":0,"o":"m 678 853 l 543 510 b 504 508 526 464 521 463 l 376 836 b 407 1015 336 940 349 1008 l 446 1019 l 446 1033 l 7 1033 l 7 1019 l 31 1015 b 181 807 86 1004 117 974 l 389 261 l 389 57 b 281 -154 389 -90 361 -137 l 256 -158 l 256 -172 l 721 -172 l 721 -158 l 694 -154 b 586 57 615 -137 586 -90 l 586 283 l 789 806 b 926 1015 839 931 854 1001 l 951 1019 l 951 1033 l 614 1033 l 614 1019 l 639 1015 b 678 853 710 1001 721 960 z m 581 -337 b 479 -236 581 -276 540 -236 b 378 -337 419 -236 378 -276 b 479 -439 378 -397 419 -439 b 581 -337 540 -439 581 -397 z "},"Ỳ":{"ha":957,"x_min":0,"x_max":0,"o":"m 678 853 l 543 510 b 504 508 526 464 521 463 l 376 836 b 407 1015 336 940 349 1008 l 446 1019 l 446 1033 l 7 1033 l 7 1019 l 31 1015 b 181 807 86 1004 117 974 l 389 261 l 389 57 b 281 -154 389 -90 361 -137 l 256 -158 l 256 -172 l 721 -172 l 721 -158 l 694 -154 b 586 57 615 -137 586 -90 l 586 283 l 789 806 b 926 1015 839 931 854 1001 l 951 1019 l 951 1033 l 614 1033 l 614 1019 l 639 1015 b 678 853 710 1001 721 960 z m 356 1203 l 569 1018 l 603 1018 l 535 1203 z "},"Ỷ":{"ha":957,"x_min":0,"x_max":0,"o":"m 678 853 l 543 510 b 504 508 526 464 521 463 l 376 836 b 407 1015 336 940 349 1008 l 433 1018 l 442 1001 b 631 1172 560 1038 631 1101 b 499 1272 631 1232 582 1272 b 356 1163 424 1272 372 1239 l 358 1161 b 457 1244 372 1206 400 1244 b 526 1169 501 1244 526 1219 b 436 1033 526 1113 493 1063 l 7 1033 l 7 1019 l 31 1015 b 181 807 86 1004 117 974 l 389 261 l 389 57 b 281 -154 389 -90 361 -137 l 256 -158 l 256 -172 l 721 -172 l 721 -158 l 694 -154 b 586 57 615 -137 586 -90 l 586 283 l 789 806 b 926 1015 839 931 854 1001 l 951 1019 l 951 1033 l 614 1033 l 614 1019 l 639 1015 b 678 853 710 1001 721 960 z "},"Ȳ":{"ha":957,"x_min":0,"x_max":0,"o":"m 678 853 l 543 510 b 504 508 526 464 521 463 l 376 836 b 407 1015 336 940 349 1008 l 446 1019 l 446 1033 l 7 1033 l 7 1019 l 31 1015 b 181 807 86 1004 117 974 l 389 261 l 389 57 b 281 -154 389 -90 361 -137 l 256 -158 l 256 -172 l 721 -172 l 721 -158 l 694 -154 b 586 57 615 -137 586 -90 l 586 283 l 789 806 b 926 1015 839 931 854 1001 l 951 1019 l 951 1033 l 614 1033 l 614 1019 l 639 1015 b 678 853 710 1001 721 960 z m 232 1168 l 232 1085 l 725 1085 l 725 1168 z "},"Ỹ":{"ha":957,"x_min":0,"x_max":0,"o":"m 678 853 l 543 510 b 504 508 526 464 521 463 l 376 836 b 407 1015 336 940 349 1008 l 446 1019 l 446 1033 l 271 1033 b 354 1136 282 1096 314 1136 b 563 1057 418 1136 464 1057 b 701 1276 661 1057 703 1150 l 686 1276 b 603 1169 678 1214 643 1169 b 394 1247 539 1169 493 1247 b 256 1033 297 1247 254 1158 l 7 1033 l 7 1019 l 31 1015 b 181 807 86 1004 117 974 l 389 261 l 389 57 b 281 -154 389 -90 361 -137 l 256 -158 l 256 -172 l 721 -172 l 721 -158 l 694 -154 b 586 57 615 -137 586 -90 l 586 283 l 789 806 b 926 1015 839 931 854 1001 l 951 1019 l 951 1033 l 614 1033 l 614 1019 l 639 1015 b 678 853 710 1001 721 960 z "},"Z":{"ha":986,"x_min":0,"x_max":0,"o":"m 385 913 l 561 913 b 586 854 597 913 606 893 l 160 -25 b 28 -154 119 -106 74 -143 l 7 -158 l 7 -172 l 765 -172 b 864 -207 821 -172 864 -165 l 872 -207 l 935 300 l 919 303 l 908 263 b 657 -50 869 110 831 -50 l 425 -50 b 399 8 388 -50 381 -31 l 757 746 b 961 1015 861 963 907 1001 l 979 1019 l 979 1033 l 279 1033 b 165 1093 167 1033 165 1067 l 156 1093 l 83 536 l 99 535 l 126 642 b 385 913 175 831 243 913 z "},"Ź":{"ha":986,"x_min":0,"x_max":0,"o":"m 385 913 l 561 913 b 586 854 597 913 606 893 l 160 -25 b 28 -154 119 -106 74 -143 l 7 -158 l 7 -172 l 765 -172 b 864 -207 821 -172 864 -165 l 872 -207 l 935 300 l 919 303 l 908 263 b 657 -50 869 110 831 -50 l 425 -50 b 399 8 388 -50 381 -31 l 757 746 b 961 1015 861 963 907 1001 l 979 1019 l 979 1033 l 279 1033 b 165 1093 167 1033 165 1067 l 156 1093 l 83 536 l 99 535 l 126 642 b 385 913 175 831 243 913 z m 382 1050 l 415 1050 l 629 1235 l 450 1235 z "},"Ž":{"ha":986,"x_min":0,"x_max":0,"o":"m 385 913 l 561 913 b 586 854 597 913 606 893 l 160 -25 b 28 -154 119 -106 74 -143 l 7 -158 l 7 -172 l 765 -172 b 864 -207 821 -172 864 -165 l 872 -207 l 935 300 l 919 303 l 908 263 b 657 -50 869 110 831 -50 l 425 -50 b 399 8 388 -50 381 -31 l 757 746 b 961 1015 861 963 907 1001 l 979 1019 l 979 1033 l 279 1033 b 165 1093 167 1033 165 1067 l 156 1093 l 83 536 l 99 535 l 126 642 b 385 913 175 831 243 913 z m 326 1313 l 318 1301 b 504 1039 368 1268 432 1185 b 692 1301 578 1185 642 1268 l 683 1313 b 504 1201 625 1283 560 1254 b 326 1313 450 1254 385 1283 z "},"Ż":{"ha":986,"x_min":0,"x_max":0,"o":"m 385 913 l 561 913 b 586 854 597 913 606 893 l 160 -25 b 28 -154 119 -106 74 -143 l 7 -158 l 7 -172 l 765 -172 b 864 -207 821 -172 864 -165 l 872 -207 l 935 300 l 919 303 l 908 263 b 657 -50 869 110 831 -50 l 425 -50 b 399 8 388 -50 381 -31 l 757 746 b 961 1015 861 963 907 1001 l 979 1019 l 979 1033 l 279 1033 b 165 1093 167 1033 165 1067 l 156 1093 l 83 536 l 99 535 l 126 642 b 385 913 175 831 243 913 z m 404 1150 b 506 1049 404 1089 444 1049 b 607 1150 565 1049 607 1089 b 506 1251 607 1210 565 1251 b 404 1150 444 1251 404 1210 z "},"Ẓ":{"ha":986,"x_min":0,"x_max":0,"o":"m 385 913 l 561 913 b 586 854 597 913 606 893 l 160 -25 b 28 -154 119 -106 74 -143 l 7 -158 l 7 -172 l 765 -172 b 864 -207 821 -172 864 -165 l 872 -207 l 935 300 l 919 303 l 908 263 b 657 -50 869 110 831 -50 l 425 -50 b 399 8 388 -50 381 -31 l 757 746 b 961 1015 861 963 907 1001 l 979 1019 l 979 1033 l 279 1033 b 165 1093 167 1033 165 1067 l 156 1093 l 83 536 l 99 535 l 126 642 b 385 913 175 831 243 913 z m 594 -337 b 493 -236 594 -276 554 -236 b 392 -337 433 -236 392 -276 b 493 -439 392 -397 433 -439 b 594 -337 554 -439 594 -397 z "},"Ẕ":{"ha":986,"x_min":0,"x_max":0,"o":"m 385 913 l 561 913 b 586 854 597 913 606 893 l 160 -25 b 28 -154 119 -106 74 -143 l 7 -158 l 7 -172 l 765 -172 b 864 -207 821 -172 864 -165 l 872 -207 l 935 300 l 919 303 l 908 263 b 657 -50 869 110 831 -50 l 425 -50 b 399 8 388 -50 381 -31 l 757 746 b 961 1015 861 963 907 1001 l 979 1019 l 979 1033 l 279 1033 b 165 1093 167 1033 165 1067 l 156 1093 l 83 536 l 99 535 l 126 642 b 385 913 175 831 243 913 z m 740 -387 l 740 -304 l 247 -304 l 247 -387 z "},"Ꞌ":{"ha":517,"x_min":0,"x_max":0,"o":"m 490 1033 l 26 1033 l 26 1019 l 51 1015 b 160 806 131 999 160 951 l 160 57 b 51 -154 160 -90 131 -137 l 26 -158 l 26 -172 l 490 -172 l 490 -158 l 465 -154 b 357 57 385 -137 357 -90 l 357 806 b 465 1015 357 951 385 999 l 490 1019 z "},"a":{"ha":779,"x_min":0,"x_max":0,"o":"m 447 342 l 482 197 b 431 15 513 75 501 28 l 408 11 l 408 0 l 774 0 l 774 11 l 753 15 b 640 197 685 29 671 74 l 524 686 b 549 833 500 783 493 819 l 565 838 l 565 846 l 204 846 l 204 838 l 219 833 b 261 686 275 819 286 789 l 142 206 b 26 15 104 57 89 28 l 6 11 l 6 0 l 315 0 l 315 11 l 294 15 b 242 206 219 31 208 71 l 275 342 b 317 381 282 368 296 381 l 406 381 b 447 342 426 381 440 368 z m 308 471 l 350 643 b 364 706 358 674 363 699 b 375 643 364 696 369 668 l 417 471 b 393 432 424 444 415 432 l 331 432 b 308 471 308 432 301 444 z "},"á":{"ha":779,"x_min":0,"x_max":0,"o":"m 447 342 l 482 197 b 431 15 513 75 501 28 l 408 11 l 408 0 l 774 0 l 774 11 l 753 15 b 640 197 685 29 671 74 l 524 686 b 549 833 500 783 493 819 l 565 838 l 565 846 l 204 846 l 204 838 l 219 833 b 261 686 275 819 286 789 l 142 206 b 26 15 104 57 89 28 l 6 11 l 6 0 l 315 0 l 315 11 l 294 15 b 242 206 219 31 208 71 l 275 342 b 317 381 282 368 296 381 l 406 381 b 447 342 426 381 440 368 z m 308 471 l 350 643 b 364 706 358 674 363 699 b 375 643 364 696 369 668 l 417 471 b 393 432 424 444 415 432 l 331 432 b 308 471 308 432 301 444 z m 267 911 l 300 911 l 514 1096 l 335 1096 z "},"ă":{"ha":779,"x_min":0,"x_max":0,"o":"m 447 342 l 482 197 b 431 15 513 75 501 28 l 408 11 l 408 0 l 774 0 l 774 11 l 753 15 b 640 197 685 29 671 74 l 524 686 b 549 833 500 783 493 819 l 565 838 l 565 846 l 204 846 l 204 838 l 219 833 b 261 686 275 819 286 789 l 142 206 b 26 15 104 57 89 28 l 6 11 l 6 0 l 315 0 l 315 11 l 294 15 b 242 206 219 31 208 71 l 275 342 b 317 381 282 368 296 381 l 406 381 b 447 342 426 381 440 368 z m 308 471 l 350 643 b 364 706 358 674 363 699 b 375 643 364 696 369 668 l 417 471 b 393 432 424 444 415 432 l 331 432 b 308 471 308 432 301 444 z m 390 1017 b 267 1171 318 1017 265 1082 l 256 1171 b 389 900 238 1008 292 900 b 525 1171 486 900 543 1008 l 514 1171 b 390 1017 515 1082 463 1017 z "},"ắ":{"ha":779,"x_min":0,"x_max":0,"o":"m 447 342 l 482 197 b 431 15 513 75 501 28 l 408 11 l 408 0 l 774 0 l 774 11 l 753 15 b 640 197 685 29 671 74 l 524 686 b 549 833 500 783 493 819 l 565 838 l 565 846 l 204 846 l 204 838 l 219 833 b 261 686 275 819 286 789 l 142 206 b 26 15 104 57 89 28 l 6 11 l 6 0 l 315 0 l 315 11 l 294 15 b 242 206 219 31 208 71 l 275 342 b 317 381 282 368 296 381 l 406 381 b 447 342 426 381 440 368 z m 308 471 l 350 643 b 364 706 358 674 363 699 b 375 643 364 696 369 668 l 417 471 b 393 432 424 444 415 432 l 331 432 b 308 471 308 432 301 444 z m 390 1017 b 267 1171 318 1017 265 1082 l 256 1171 b 389 900 238 1008 292 900 b 525 1171 486 900 543 1008 l 514 1171 b 390 1017 515 1082 463 1017 z m 267 1236 l 300 1236 l 514 1421 l 335 1421 z "},"ặ":{"ha":779,"x_min":0,"x_max":0,"o":"m 447 342 l 482 197 b 431 15 513 75 501 28 l 408 11 l 408 0 l 774 0 l 774 11 l 753 15 b 640 197 685 29 671 74 l 524 686 b 549 833 500 783 493 819 l 565 838 l 565 846 l 204 846 l 204 838 l 219 833 b 261 686 275 819 286 789 l 142 206 b 26 15 104 57 89 28 l 6 11 l 6 0 l 315 0 l 315 11 l 294 15 b 242 206 219 31 208 71 l 275 342 b 317 381 282 368 296 381 l 406 381 b 447 342 426 381 440 368 z m 308 471 l 350 643 b 364 706 358 674 363 699 b 375 643 364 696 369 668 l 417 471 b 393 432 424 444 415 432 l 331 432 b 308 471 308 432 301 444 z m 492 -165 b 390 -64 492 -104 451 -64 b 289 -165 331 -64 289 -104 b 390 -267 289 -225 331 -267 b 492 -165 451 -267 492 -225 z m 390 1017 b 267 1171 318 1017 265 1082 l 256 1171 b 389 900 238 1008 292 900 b 525 1171 486 900 543 1008 l 514 1171 b 390 1017 515 1082 463 1017 z "},"ằ":{"ha":779,"x_min":0,"x_max":0,"o":"m 447 342 l 482 197 b 431 15 513 75 501 28 l 408 11 l 408 0 l 774 0 l 774 11 l 753 15 b 640 197 685 29 671 74 l 524 686 b 549 833 500 783 493 819 l 565 838 l 565 846 l 204 846 l 204 838 l 219 833 b 261 686 275 819 286 789 l 142 206 b 26 15 104 57 89 28 l 6 11 l 6 0 l 315 0 l 315 11 l 294 15 b 242 206 219 31 208 71 l 275 342 b 317 381 282 368 296 381 l 406 381 b 447 342 426 381 440 368 z m 308 471 l 350 643 b 364 706 358 674 363 699 b 375 643 364 696 369 668 l 417 471 b 393 432 424 444 415 432 l 331 432 b 308 471 308 432 301 444 z m 390 1017 b 267 1171 318 1017 265 1082 l 256 1171 b 389 900 238 1008 292 900 b 525 1171 486 900 543 1008 l 514 1171 b 390 1017 515 1082 463 1017 z m 267 1421 l 481 1236 l 514 1236 l 446 1421 z "},"ẳ":{"ha":779,"x_min":0,"x_max":0,"o":"m 447 342 l 482 197 b 431 15 513 75 501 28 l 408 11 l 408 0 l 774 0 l 774 11 l 753 15 b 640 197 685 29 671 74 l 524 686 b 549 833 500 783 493 819 l 565 838 l 565 846 l 204 846 l 204 838 l 219 833 b 261 686 275 819 286 789 l 142 206 b 26 15 104 57 89 28 l 6 11 l 6 0 l 315 0 l 315 11 l 294 15 b 242 206 219 31 208 71 l 275 342 b 317 381 282 368 296 381 l 406 381 b 447 342 426 381 440 368 z m 308 471 l 350 643 b 364 706 358 674 363 699 b 375 643 364 696 369 668 l 417 471 b 393 432 424 444 415 432 l 331 432 b 308 471 308 432 301 444 z m 390 1017 b 267 1171 318 1017 265 1082 l 256 1171 b 389 900 238 1008 292 900 b 525 1171 486 900 543 1008 l 514 1171 b 390 1017 515 1082 463 1017 z m 267 1381 l 269 1379 b 368 1463 283 1424 311 1463 b 438 1388 413 1463 438 1438 b 339 1247 438 1328 401 1276 l 353 1219 b 542 1390 471 1256 542 1319 b 410 1490 542 1450 493 1490 b 267 1381 335 1490 283 1457 z "},"ẵ":{"ha":779,"x_min":0,"x_max":0,"o":"m 447 342 l 482 197 b 431 15 513 75 501 28 l 408 11 l 408 0 l 774 0 l 774 11 l 753 15 b 640 197 685 29 671 74 l 524 686 b 549 833 500 783 493 819 l 565 838 l 565 846 l 204 846 l 204 838 l 219 833 b 261 686 275 819 286 789 l 142 206 b 26 15 104 57 89 28 l 6 11 l 6 0 l 315 0 l 315 11 l 294 15 b 242 206 219 31 208 71 l 275 342 b 317 381 282 368 296 381 l 406 381 b 447 342 426 381 440 368 z m 308 471 l 350 643 b 364 706 358 674 363 699 b 375 643 364 696 369 668 l 417 471 b 393 432 424 444 415 432 l 331 432 b 308 471 308 432 301 444 z m 390 1017 b 267 1171 318 1017 265 1082 l 256 1171 b 389 900 238 1008 292 900 b 525 1171 486 900 543 1008 l 514 1171 b 390 1017 515 1082 463 1017 z m 167 1249 l 182 1249 b 265 1354 192 1313 225 1354 b 474 1275 329 1354 375 1275 b 613 1494 572 1275 614 1368 l 597 1494 b 514 1388 589 1432 554 1388 b 306 1465 450 1388 404 1465 b 167 1249 207 1465 165 1375 z "},"ǎ":{"ha":779,"x_min":0,"x_max":0,"o":"m 447 342 l 482 197 b 431 15 513 75 501 28 l 408 11 l 408 0 l 774 0 l 774 11 l 753 15 b 640 197 685 29 671 74 l 524 686 b 549 833 500 783 493 819 l 565 838 l 565 846 l 204 846 l 204 838 l 219 833 b 261 686 275 819 286 789 l 142 206 b 26 15 104 57 89 28 l 6 11 l 6 0 l 315 0 l 315 11 l 294 15 b 242 206 219 31 208 71 l 275 342 b 317 381 282 368 296 381 l 406 381 b 447 342 426 381 440 368 z m 308 471 l 350 643 b 364 706 358 674 363 699 b 375 643 364 696 369 668 l 417 471 b 393 432 424 444 415 432 l 331 432 b 308 471 308 432 301 444 z m 211 1174 l 203 1163 b 389 900 253 1129 317 1046 b 576 1163 463 1046 526 1129 l 568 1174 b 389 1063 510 1144 444 1115 b 211 1174 335 1115 269 1144 z "},"â":{"ha":779,"x_min":0,"x_max":0,"o":"m 447 342 l 482 197 b 431 15 513 75 501 28 l 408 11 l 408 0 l 774 0 l 774 11 l 753 15 b 640 197 685 29 671 74 l 524 686 b 549 833 500 783 493 819 l 565 838 l 565 846 l 204 846 l 204 838 l 219 833 b 261 686 275 819 286 789 l 142 206 b 26 15 104 57 89 28 l 6 11 l 6 0 l 315 0 l 315 11 l 294 15 b 242 206 219 31 208 71 l 275 342 b 317 381 282 368 296 381 l 406 381 b 447 342 426 381 440 368 z m 308 471 l 350 643 b 364 706 358 674 363 699 b 375 643 364 696 369 668 l 417 471 b 393 432 424 444 415 432 l 331 432 b 308 471 308 432 301 444 z m 203 911 l 211 900 b 389 1011 269 929 335 958 b 568 900 444 958 510 929 l 576 911 b 389 1174 526 944 463 1028 b 203 911 317 1028 253 944 z "},"ấ":{"ha":779,"x_min":0,"x_max":0,"o":"m 447 342 l 482 197 b 431 15 513 75 501 28 l 408 11 l 408 0 l 774 0 l 774 11 l 753 15 b 640 197 685 29 671 74 l 524 686 b 549 833 500 783 493 819 l 565 838 l 565 846 l 204 846 l 204 838 l 219 833 b 261 686 275 819 286 789 l 142 206 b 26 15 104 57 89 28 l 6 11 l 6 0 l 315 0 l 315 11 l 294 15 b 242 206 219 31 208 71 l 275 342 b 317 381 282 368 296 381 l 406 381 b 447 342 426 381 440 368 z m 308 471 l 350 643 b 364 706 358 674 363 699 b 375 643 364 696 369 668 l 417 471 b 393 432 424 444 415 432 l 331 432 b 308 471 308 432 301 444 z m 203 911 l 211 900 b 389 1011 269 929 335 958 b 568 900 444 958 510 929 l 576 911 b 389 1174 526 944 463 1028 b 203 911 317 1028 253 944 z m 267 1239 l 300 1239 l 514 1424 l 335 1424 z "},"ậ":{"ha":779,"x_min":0,"x_max":0,"o":"m 447 342 l 482 197 b 431 15 513 75 501 28 l 408 11 l 408 0 l 774 0 l 774 11 l 753 15 b 640 197 685 29 671 74 l 524 686 b 549 833 500 783 493 819 l 565 838 l 565 846 l 204 846 l 204 838 l 219 833 b 261 686 275 819 286 789 l 142 206 b 26 15 104 57 89 28 l 6 11 l 6 0 l 315 0 l 315 11 l 294 15 b 242 206 219 31 208 71 l 275 342 b 317 381 282 368 296 381 l 406 381 b 447 342 426 381 440 368 z m 308 471 l 350 643 b 364 706 358 674 363 699 b 375 643 364 696 369 668 l 417 471 b 393 432 424 444 415 432 l 331 432 b 308 471 308 432 301 444 z m 492 -165 b 390 -64 492 -104 451 -64 b 289 -165 331 -64 289 -104 b 390 -267 289 -225 331 -267 b 492 -165 451 -267 492 -225 z m 203 911 l 211 900 b 389 1011 269 929 335 958 b 568 900 444 958 510 929 l 576 911 b 389 1174 526 944 463 1028 b 203 911 317 1028 253 944 z "},"ầ":{"ha":779,"x_min":0,"x_max":0,"o":"m 447 342 l 482 197 b 431 15 513 75 501 28 l 408 11 l 408 0 l 774 0 l 774 11 l 753 15 b 640 197 685 29 671 74 l 524 686 b 549 833 500 783 493 819 l 565 838 l 565 846 l 204 846 l 204 838 l 219 833 b 261 686 275 819 286 789 l 142 206 b 26 15 104 57 89 28 l 6 11 l 6 0 l 315 0 l 315 11 l 294 15 b 242 206 219 31 208 71 l 275 342 b 317 381 282 368 296 381 l 406 381 b 447 342 426 381 440 368 z m 308 471 l 350 643 b 364 706 358 674 363 699 b 375 643 364 696 369 668 l 417 471 b 393 432 424 444 415 432 l 331 432 b 308 471 308 432 301 444 z m 203 911 l 211 900 b 389 1011 269 929 335 958 b 568 900 444 958 510 929 l 576 911 b 389 1174 526 944 463 1028 b 203 911 317 1028 253 944 z m 267 1424 l 481 1239 l 514 1239 l 446 1424 z "},"ẩ":{"ha":779,"x_min":0,"x_max":0,"o":"m 447 342 l 482 197 b 431 15 513 75 501 28 l 408 11 l 408 0 l 774 0 l 774 11 l 753 15 b 640 197 685 29 671 74 l 524 686 b 549 833 500 783 493 819 l 565 838 l 565 846 l 204 846 l 204 838 l 219 833 b 261 686 275 819 286 789 l 142 206 b 26 15 104 57 89 28 l 6 11 l 6 0 l 315 0 l 315 11 l 294 15 b 242 206 219 31 208 71 l 275 342 b 317 381 282 368 296 381 l 406 381 b 447 342 426 381 440 368 z m 308 471 l 350 643 b 364 706 358 674 363 699 b 375 643 364 696 369 668 l 417 471 b 393 432 424 444 415 432 l 331 432 b 308 471 308 432 301 444 z m 203 911 l 211 900 b 389 1011 269 929 335 958 b 568 900 444 958 510 929 l 576 911 b 389 1174 526 944 463 1028 b 203 911 317 1028 253 944 z m 267 1383 l 269 1382 b 368 1465 283 1426 311 1465 b 438 1390 413 1465 438 1440 b 339 1250 438 1331 401 1279 l 353 1222 b 542 1393 471 1258 542 1322 b 410 1493 542 1453 493 1493 b 267 1383 335 1493 283 1460 z "},"ẫ":{"ha":779,"x_min":0,"x_max":0,"o":"m 447 342 l 482 197 b 431 15 513 75 501 28 l 408 11 l 408 0 l 774 0 l 774 11 l 753 15 b 640 197 685 29 671 74 l 524 686 b 549 833 500 783 493 819 l 565 838 l 565 846 l 204 846 l 204 838 l 219 833 b 261 686 275 819 286 789 l 142 206 b 26 15 104 57 89 28 l 6 11 l 6 0 l 315 0 l 315 11 l 294 15 b 242 206 219 31 208 71 l 275 342 b 317 381 282 368 296 381 l 406 381 b 447 342 426 381 440 368 z m 308 471 l 350 643 b 364 706 358 674 363 699 b 375 643 364 696 369 668 l 417 471 b 393 432 424 444 415 432 l 331 432 b 308 471 308 432 301 444 z m 203 911 l 211 900 b 389 1011 269 929 335 958 b 568 900 444 958 510 929 l 576 911 b 389 1174 526 944 463 1028 b 203 911 317 1028 253 944 z m 167 1251 l 182 1251 b 265 1357 192 1315 225 1357 b 474 1278 329 1357 375 1278 b 613 1497 572 1278 614 1371 l 597 1497 b 514 1390 589 1435 554 1390 b 306 1468 450 1390 404 1468 b 167 1251 207 1468 165 1378 z "},"ä":{"ha":779,"x_min":0,"x_max":0,"o":"m 447 342 l 482 197 b 431 15 513 75 501 28 l 408 11 l 408 0 l 774 0 l 774 11 l 753 15 b 640 197 685 29 671 74 l 524 686 b 549 833 500 783 493 819 l 565 838 l 565 846 l 204 846 l 204 838 l 219 833 b 261 686 275 819 286 789 l 142 206 b 26 15 104 57 89 28 l 6 11 l 6 0 l 315 0 l 315 11 l 294 15 b 242 206 219 31 208 71 l 275 342 b 317 381 282 368 296 381 l 406 381 b 447 342 426 381 440 368 z m 308 471 l 350 643 b 364 706 358 674 363 699 b 375 643 364 696 369 668 l 417 471 b 393 432 424 444 415 432 l 331 432 b 308 471 308 432 301 444 z m 169 1015 b 265 921 169 958 208 921 b 361 1015 322 921 361 958 b 265 1111 361 1074 322 1111 b 169 1015 208 1111 169 1074 z m 418 1015 b 515 921 418 958 457 921 b 610 1015 571 921 610 958 b 515 1111 610 1074 571 1111 b 418 1015 457 1111 418 1074 z "},"ǟ":{"ha":779,"x_min":0,"x_max":0,"o":"m 447 342 l 482 197 b 431 15 513 75 501 28 l 408 11 l 408 0 l 774 0 l 774 11 l 753 15 b 640 197 685 29 671 74 l 524 686 b 549 833 500 783 493 819 l 565 838 l 565 846 l 204 846 l 204 838 l 219 833 b 261 686 275 819 286 789 l 142 206 b 26 15 104 57 89 28 l 6 11 l 6 0 l 315 0 l 315 11 l 294 15 b 242 206 219 31 208 71 l 275 342 b 317 381 282 368 296 381 l 406 381 b 447 342 426 381 440 368 z m 308 471 l 350 643 b 364 706 358 674 363 699 b 375 643 364 696 369 668 l 417 471 b 393 432 424 444 415 432 l 331 432 b 308 471 308 432 301 444 z m 169 1015 b 265 921 169 958 208 921 b 361 1015 322 921 361 958 b 265 1111 361 1074 322 1111 b 169 1015 208 1111 169 1074 z m 418 1015 b 515 921 418 958 457 921 b 610 1015 571 921 610 958 b 515 1111 610 1074 571 1111 b 418 1015 457 1111 418 1074 z m 143 1306 l 143 1222 l 636 1222 l 636 1306 z "},"ạ":{"ha":779,"x_min":0,"x_max":0,"o":"m 447 342 l 482 197 b 431 15 513 75 501 28 l 408 11 l 408 0 l 774 0 l 774 11 l 753 15 b 640 197 685 29 671 74 l 524 686 b 549 833 500 783 493 819 l 565 838 l 565 846 l 204 846 l 204 838 l 219 833 b 261 686 275 819 286 789 l 142 206 b 26 15 104 57 89 28 l 6 11 l 6 0 l 315 0 l 315 11 l 294 15 b 242 206 219 31 208 71 l 275 342 b 317 381 282 368 296 381 l 406 381 b 447 342 426 381 440 368 z m 308 471 l 350 643 b 364 706 358 674 363 699 b 375 643 364 696 369 668 l 417 471 b 393 432 424 444 415 432 l 331 432 b 308 471 308 432 301 444 z m 492 -165 b 390 -64 492 -104 451 -64 b 289 -165 331 -64 289 -104 b 390 -267 289 -225 331 -267 b 492 -165 451 -267 492 -225 z "},"à":{"ha":779,"x_min":0,"x_max":0,"o":"m 447 342 l 482 197 b 431 15 513 75 501 28 l 408 11 l 408 0 l 774 0 l 774 11 l 753 15 b 640 197 685 29 671 74 l 524 686 b 549 833 500 783 493 819 l 565 838 l 565 846 l 204 846 l 204 838 l 219 833 b 261 686 275 819 286 789 l 142 206 b 26 15 104 57 89 28 l 6 11 l 6 0 l 315 0 l 315 11 l 294 15 b 242 206 219 31 208 71 l 275 342 b 317 381 282 368 296 381 l 406 381 b 447 342 426 381 440 368 z m 308 471 l 350 643 b 364 706 358 674 363 699 b 375 643 364 696 369 668 l 417 471 b 393 432 424 444 415 432 l 331 432 b 308 471 308 432 301 444 z m 267 1096 l 481 911 l 514 911 l 446 1096 z "},"ả":{"ha":779,"x_min":0,"x_max":0,"o":"m 447 342 l 482 197 b 431 15 513 75 501 28 l 408 11 l 408 0 l 774 0 l 774 11 l 753 15 b 640 197 685 29 671 74 l 524 686 b 549 833 500 783 493 819 l 565 838 l 565 846 l 204 846 l 204 838 l 219 833 b 261 686 275 819 286 789 l 142 206 b 26 15 104 57 89 28 l 6 11 l 6 0 l 315 0 l 315 11 l 294 15 b 242 206 219 31 208 71 l 275 342 b 317 381 282 368 296 381 l 406 381 b 447 342 426 381 440 368 z m 308 471 l 350 643 b 364 706 358 674 363 699 b 375 643 364 696 369 668 l 417 471 b 393 432 424 444 415 432 l 331 432 b 308 471 308 432 301 444 z m 267 1056 l 269 1054 b 368 1138 283 1099 311 1138 b 438 1063 413 1138 438 1113 b 339 922 438 1003 401 951 l 353 894 b 542 1065 471 931 542 994 b 410 1165 542 1125 493 1165 b 267 1056 335 1165 283 1132 z "},"ɑ":{"ha":779,"x_min":0,"x_max":0,"o":"m 447 342 l 482 197 b 431 15 513 75 501 28 l 408 11 l 408 0 l 774 0 l 774 11 l 753 15 b 640 197 685 29 671 74 l 524 686 b 549 833 500 783 493 819 l 565 838 l 565 846 l 204 846 l 204 838 l 219 833 b 261 686 275 819 286 789 l 142 206 b 26 15 104 57 89 28 l 6 11 l 6 0 l 315 0 l 315 11 l 294 15 b 242 206 219 31 208 71 l 275 342 b 317 381 282 368 296 381 l 406 381 b 447 342 426 381 440 368 z m 308 471 l 350 643 b 364 706 358 674 363 699 b 375 643 364 696 369 668 l 417 471 b 393 432 424 444 415 432 l 331 432 b 308 471 308 432 301 444 z "},"ā":{"ha":779,"x_min":0,"x_max":0,"o":"m 447 342 l 482 197 b 431 15 513 75 501 28 l 408 11 l 408 0 l 774 0 l 774 11 l 753 15 b 640 197 685 29 671 74 l 524 686 b 549 833 500 783 493 819 l 565 838 l 565 846 l 204 846 l 204 838 l 219 833 b 261 686 275 819 286 789 l 142 206 b 26 15 104 57 89 28 l 6 11 l 6 0 l 315 0 l 315 11 l 294 15 b 242 206 219 31 208 71 l 275 342 b 317 381 282 368 296 381 l 406 381 b 447 342 426 381 440 368 z m 308 471 l 350 643 b 364 706 358 674 363 699 b 375 643 364 696 369 668 l 417 471 b 393 432 424 444 415 432 l 331 432 b 308 471 308 432 301 444 z m 143 1061 l 143 978 l 636 978 l 636 1061 z "},"ą":{"ha":779,"x_min":0,"x_max":0,"o":"m 447 342 l 482 197 b 431 15 513 75 501 28 l 408 11 l 408 0 l 590 0 b 499 -129 532 -35 499 -81 b 631 -229 499 -189 547 -229 b 774 -119 706 -229 757 -196 l 771 -118 b 672 -201 757 -162 729 -201 b 603 -126 628 -201 603 -176 b 676 0 603 -75 629 -31 l 774 0 l 774 11 l 753 15 b 640 197 685 29 671 74 l 524 686 b 549 833 500 783 493 819 l 565 838 l 565 846 l 204 846 l 204 838 l 219 833 b 261 686 275 819 286 789 l 142 206 b 26 15 104 57 89 28 l 6 11 l 6 0 l 315 0 l 315 11 l 294 15 b 242 206 219 31 208 71 l 275 342 b 317 381 282 368 296 381 l 406 381 b 447 342 426 381 440 368 z m 308 471 l 350 643 b 364 706 358 674 363 699 b 375 643 364 696 369 668 l 417 471 b 393 432 424 444 415 432 l 331 432 b 308 471 308 432 301 444 z "},"å":{"ha":779,"x_min":0,"x_max":0,"o":"m 447 342 l 482 197 b 431 15 513 75 501 28 l 408 11 l 408 0 l 774 0 l 774 11 l 753 15 b 640 197 685 29 671 74 l 524 686 b 549 833 500 783 493 819 l 565 838 l 565 846 l 204 846 l 204 838 l 219 833 b 261 686 275 819 286 789 l 142 206 b 26 15 104 57 89 28 l 6 11 l 6 0 l 315 0 l 315 11 l 294 15 b 242 206 219 31 208 71 l 275 342 b 317 381 282 368 296 381 l 406 381 b 447 342 426 381 440 368 z m 308 471 l 350 643 b 364 706 358 674 363 699 b 375 643 364 696 369 668 l 417 471 b 393 432 424 444 415 432 l 331 432 b 308 471 308 432 301 444 z m 239 1050 b 390 899 239 960 300 899 b 542 1050 481 899 542 960 b 390 1201 542 1140 481 1201 b 239 1050 300 1201 239 1140 z m 335 1050 b 390 1151 335 1110 357 1151 b 446 1050 424 1151 446 1110 b 390 949 446 990 424 949 b 335 1050 357 949 335 990 z "},"ã":{"ha":779,"x_min":0,"x_max":0,"o":"m 447 342 l 482 197 b 431 15 513 75 501 28 l 408 11 l 408 0 l 774 0 l 774 11 l 753 15 b 640 197 685 29 671 74 l 524 686 b 549 833 500 783 493 819 l 565 838 l 565 846 l 204 846 l 204 838 l 219 833 b 261 686 275 819 286 789 l 142 206 b 26 15 104 57 89 28 l 6 11 l 6 0 l 315 0 l 315 11 l 294 15 b 242 206 219 31 208 71 l 275 342 b 317 381 282 368 296 381 l 406 381 b 447 342 426 381 440 368 z m 308 471 l 350 643 b 364 706 358 674 363 699 b 375 643 364 696 369 668 l 417 471 b 393 432 424 444 415 432 l 331 432 b 308 471 308 432 301 444 z m 167 924 l 182 924 b 265 1029 192 988 225 1029 b 474 950 329 1029 375 950 b 613 1169 572 950 614 1043 l 597 1169 b 514 1063 589 1107 554 1063 b 306 1140 450 1063 404 1140 b 167 924 207 1140 165 1050 z "},"æ":{"ha":1040,"x_min":0,"x_max":0,"o":"m 503 333 l 503 197 b 419 15 503 71 488 29 l 399 11 l 399 0 l 907 0 b 975 -53 985 0 975 -24 l 982 -53 l 1035 331 l 1025 331 l 1018 304 b 833 96 990 196 951 96 l 694 96 b 658 156 665 96 658 110 l 658 460 b 699 508 658 496 669 508 b 831 360 757 508 813 449 l 863 196 l 874 197 l 831 669 l 824 669 l 821 643 b 699 560 815 564 782 560 b 658 611 671 560 658 576 l 658 690 b 694 750 658 728 671 750 l 797 750 b 979 569 897 750 946 703 l 986 543 l 996 543 l 956 899 l 950 899 b 871 846 950 869 949 846 l 204 846 l 204 838 l 219 833 b 261 686 275 819 286 789 l 142 206 b 26 15 104 57 89 28 l 6 11 l 6 0 l 315 0 l 315 11 l 294 15 b 242 206 219 31 208 71 l 274 335 b 322 381 282 365 297 381 l 464 381 b 503 333 490 381 503 365 z m 308 478 l 350 643 b 376 749 353 658 365 704 l 503 749 l 503 479 b 464 432 503 447 490 432 l 336 432 b 308 478 310 432 301 447 z "},"ǣ":{"ha":1040,"x_min":0,"x_max":0,"o":"m 503 333 l 503 197 b 419 15 503 71 488 29 l 399 11 l 399 0 l 907 0 b 975 -53 985 0 975 -24 l 982 -53 l 1035 331 l 1025 331 l 1018 304 b 833 96 990 196 951 96 l 694 96 b 658 156 665 96 658 110 l 658 460 b 699 508 658 496 669 508 b 831 360 757 508 813 449 l 863 196 l 874 197 l 831 669 l 824 669 l 821 643 b 699 560 815 564 782 560 b 658 611 671 560 658 576 l 658 690 b 694 750 658 728 671 750 l 797 750 b 979 569 897 750 946 703 l 986 543 l 996 543 l 956 899 l 950 899 b 871 846 950 869 949 846 l 204 846 l 204 838 l 219 833 b 261 686 275 819 286 789 l 142 206 b 26 15 104 57 89 28 l 6 11 l 6 0 l 315 0 l 315 11 l 294 15 b 242 206 219 31 208 71 l 274 335 b 322 381 282 365 297 381 l 464 381 b 503 333 490 381 503 365 z m 308 478 l 350 643 b 376 749 353 658 365 704 l 503 749 l 503 479 b 464 432 503 447 490 432 l 336 432 b 308 478 310 432 301 447 z m 272 1061 l 272 978 l 765 978 l 765 1061 z "},"b":{"ha":754,"x_min":0,"x_max":0,"o":"m 43 15 l 22 11 l 22 0 l 397 0 b 721 263 596 0 721 97 b 386 515 721 432 590 524 b 661 685 567 524 661 582 b 375 846 661 790 561 846 l 22 846 l 22 835 l 43 831 b 126 649 111 817 126 775 l 126 197 b 43 15 126 71 111 29 z m 364 540 l 315 540 b 282 582 293 540 282 554 l 282 708 b 315 750 282 736 293 750 l 365 750 b 496 649 460 750 496 711 b 364 540 496 583 458 540 z m 374 96 l 315 96 b 282 138 293 96 282 110 l 282 444 b 315 486 282 472 293 486 l 364 486 b 553 299 499 486 553 431 b 374 96 553 156 490 96 z "},"ḅ":{"ha":754,"x_min":0,"x_max":0,"o":"m 43 15 l 22 11 l 22 0 l 397 0 b 721 263 596 0 721 97 b 386 515 721 432 590 524 b 661 685 567 524 661 582 b 375 846 661 790 561 846 l 22 846 l 22 835 l 43 831 b 126 649 111 817 126 775 l 126 197 b 43 15 126 71 111 29 z m 364 540 l 315 540 b 282 582 293 540 282 554 l 282 708 b 315 750 282 736 293 750 l 365 750 b 496 649 460 750 496 711 b 364 540 496 583 458 540 z m 374 96 l 315 96 b 282 138 293 96 282 110 l 282 444 b 315 486 282 472 293 486 l 364 486 b 553 299 499 486 553 431 b 374 96 553 156 490 96 z m 479 -165 b 378 -64 479 -104 439 -64 b 276 -165 318 -64 276 -104 b 378 -267 276 -225 318 -267 b 479 -165 439 -267 479 -225 z "},"c":{"ha":771,"x_min":0,"x_max":0,"o":"m 731 299 l 722 303 b 468 85 682 143 581 85 b 204 429 304 85 204 210 b 428 757 204 633 290 757 b 632 438 572 757 656 622 l 617 317 l 628 314 l 738 856 l 731 858 l 719 836 b 431 860 693 783 593 860 b 33 417 189 860 33 686 b 392 -14 33 157 178 -14 b 731 299 560 -14 693 94 z "},"ć":{"ha":771,"x_min":0,"x_max":0,"o":"m 731 299 l 722 303 b 468 85 682 143 581 85 b 204 429 304 85 204 210 b 428 757 204 633 290 757 b 632 438 572 757 656 622 l 617 317 l 628 314 l 738 856 l 731 858 l 719 836 b 431 860 693 783 593 860 b 33 417 189 860 33 686 b 392 -14 33 157 178 -14 b 731 299 560 -14 693 94 z m 263 911 l 296 911 l 510 1096 l 331 1096 z "},"č":{"ha":771,"x_min":0,"x_max":0,"o":"m 731 299 l 722 303 b 468 85 682 143 581 85 b 204 429 304 85 204 210 b 428 757 204 633 290 757 b 632 438 572 757 656 622 l 617 317 l 628 314 l 738 856 l 731 858 l 719 836 b 431 860 693 783 593 860 b 33 417 189 860 33 686 b 392 -14 33 157 178 -14 b 731 299 560 -14 693 94 z m 207 1174 l 199 1163 b 385 900 249 1129 313 1046 b 572 1163 458 1046 522 1129 l 564 1174 b 385 1063 506 1144 440 1115 b 207 1174 331 1115 265 1144 z "},"ç":{"ha":771,"x_min":0,"x_max":0,"o":"m 731 299 l 722 303 b 468 85 682 143 581 85 b 204 429 304 85 204 210 b 428 757 204 633 290 757 b 632 438 572 757 656 622 l 617 317 l 628 314 l 738 856 l 731 858 l 719 836 b 431 860 693 783 593 860 b 33 417 189 860 33 686 b 349 -11 33 175 158 10 l 264 -171 l 272 -176 b 375 -117 293 -137 329 -117 b 464 -204 431 -117 464 -149 b 365 -297 464 -262 426 -297 b 271 -233 322 -297 286 -281 l 268 -235 b 410 -325 281 -293 329 -325 b 568 -201 517 -325 568 -276 b 399 -75 568 -125 514 -75 b 376 -76 390 -75 383 -75 l 411 -14 b 731 299 569 -6 694 103 z "},"ĉ":{"ha":771,"x_min":0,"x_max":0,"o":"m 731 299 l 722 303 b 468 85 682 143 581 85 b 204 429 304 85 204 210 b 428 757 204 633 290 757 b 632 438 572 757 656 622 l 617 317 l 628 314 l 738 856 l 731 858 l 719 836 b 431 860 693 783 593 860 b 33 417 189 860 33 686 b 392 -14 33 157 178 -14 b 731 299 560 -14 693 94 z m 199 911 l 207 900 b 385 1011 265 929 331 958 b 564 900 440 958 506 929 l 572 911 b 385 1174 522 944 458 1028 b 199 911 313 1028 249 944 z "},"ċ":{"ha":771,"x_min":0,"x_max":0,"o":"m 731 299 l 722 303 b 468 85 682 143 581 85 b 204 429 304 85 204 210 b 428 757 204 633 290 757 b 632 438 572 757 656 622 l 617 317 l 628 314 l 738 856 l 731 858 l 719 836 b 431 860 693 783 593 860 b 33 417 189 860 33 686 b 392 -14 33 157 178 -14 b 731 299 560 -14 693 94 z m 285 1011 b 386 910 285 950 325 910 b 488 1011 446 910 488 950 b 386 1113 488 1071 446 1113 b 285 1011 325 1113 285 1071 z "},"d":{"ha":853,"x_min":0,"x_max":0,"o":"m 22 0 l 375 0 b 819 422 708 0 819 169 b 375 846 819 699 686 846 l 22 846 l 22 835 l 43 831 b 126 649 111 817 126 775 l 126 197 b 43 15 126 71 111 29 l 22 11 z m 365 96 l 328 96 b 282 154 297 96 282 115 l 282 692 b 328 750 282 731 297 750 l 365 750 b 649 422 558 750 649 651 b 365 96 649 219 578 96 z "},"ď":{"ha":853,"x_min":0,"x_max":0,"o":"m 22 0 l 375 0 b 819 422 708 0 819 169 b 375 846 819 699 686 846 l 22 846 l 22 835 l 43 831 b 126 649 111 817 126 775 l 126 197 b 43 15 126 71 111 29 l 22 11 z m 365 96 l 328 96 b 282 154 297 96 282 115 l 282 692 b 328 750 282 731 297 750 l 365 750 b 649 422 558 750 649 651 b 365 96 649 219 578 96 z m 825 653 l 836 653 b 921 940 840 824 921 849 b 831 1042 921 1001 885 1042 b 740 940 776 1042 740 1001 b 825 653 740 849 821 824 z "},"ḓ":{"ha":853,"x_min":0,"x_max":0,"o":"m 22 0 l 375 0 b 819 422 708 0 819 169 b 375 846 819 699 686 846 l 22 846 l 22 835 l 43 831 b 126 649 111 817 126 775 l 126 197 b 43 15 126 71 111 29 l 22 11 z m 365 96 l 328 96 b 282 154 297 96 282 115 l 282 692 b 328 750 282 731 297 750 l 365 750 b 649 422 558 750 649 651 b 365 96 649 219 578 96 z m 606 -328 l 614 -317 b 428 -54 564 -283 500 -200 b 240 -317 354 -200 290 -283 l 249 -328 b 428 -217 307 -299 372 -269 b 606 -328 482 -269 547 -299 z "},"đ":{"ha":853,"x_min":0,"x_max":0,"o":"m 22 0 l 375 0 b 819 422 708 0 819 169 b 375 846 819 699 686 846 l 22 846 l 22 835 l 43 831 b 126 649 111 817 126 775 l 126 464 l 11 464 l 11 383 l 126 383 l 126 197 b 43 15 126 71 111 29 l 22 11 z m 365 96 l 328 96 b 282 154 297 96 282 115 l 282 383 l 564 383 l 564 464 l 282 464 l 282 692 b 328 750 282 731 297 750 l 365 750 b 649 422 558 750 649 651 b 365 96 649 219 578 96 z "},"ḍ":{"ha":853,"x_min":0,"x_max":0,"o":"m 22 0 l 375 0 b 819 422 708 0 819 169 b 375 846 819 699 686 846 l 22 846 l 22 835 l 43 831 b 126 649 111 817 126 775 l 126 197 b 43 15 126 71 111 29 l 22 11 z m 365 96 l 328 96 b 282 154 297 96 282 115 l 282 692 b 328 750 282 731 297 750 l 365 750 b 649 422 558 750 649 651 b 365 96 649 219 578 96 z m 528 -165 b 426 -64 528 -104 488 -64 b 325 -165 367 -64 325 -104 b 426 -267 325 -225 367 -267 b 528 -165 488 -267 528 -225 z "},"ḏ":{"ha":853,"x_min":0,"x_max":0,"o":"m 22 0 l 375 0 b 819 422 708 0 819 169 b 375 846 819 699 686 846 l 22 846 l 22 835 l 43 831 b 126 649 111 817 126 775 l 126 197 b 43 15 126 71 111 29 l 22 11 z m 365 96 l 328 96 b 282 154 297 96 282 115 l 282 692 b 328 750 282 731 297 750 l 365 750 b 649 422 558 750 649 651 b 365 96 649 219 578 96 z m 674 -215 l 674 -132 l 181 -132 l 181 -215 z "},"ð":{"ha":853,"x_min":0,"x_max":0,"o":"m 22 0 l 375 0 b 819 422 708 0 819 169 b 375 846 819 699 686 846 l 22 846 l 22 835 l 43 831 b 126 649 111 817 126 775 l 126 464 l 11 464 l 11 383 l 126 383 l 126 197 b 43 15 126 71 111 29 l 22 11 z m 365 96 l 328 96 b 282 154 297 96 282 115 l 282 383 l 564 383 l 564 464 l 282 464 l 282 692 b 328 750 282 731 297 750 l 365 750 b 649 422 558 750 649 651 b 365 96 649 219 578 96 z "},"e":{"ha":664,"x_min":0,"x_max":0,"o":"m 282 156 l 282 460 b 322 508 282 496 293 508 b 453 360 381 508 436 449 l 486 196 l 497 197 l 453 669 l 447 669 l 444 643 b 322 560 438 564 406 560 b 282 611 294 560 282 576 l 282 690 b 318 750 282 728 294 750 l 421 750 b 603 569 519 750 569 703 l 608 543 l 619 543 l 579 899 l 574 899 b 494 846 574 869 572 846 l 22 846 l 22 835 l 43 831 b 126 649 111 817 126 775 l 126 197 b 43 15 126 71 111 29 l 22 11 l 22 0 l 531 0 b 599 -53 608 0 599 -24 l 604 -53 l 658 331 l 649 331 l 642 304 b 457 96 614 196 575 96 l 318 96 b 282 156 289 96 282 110 z "},"é":{"ha":664,"x_min":0,"x_max":0,"o":"m 282 156 l 282 460 b 322 508 282 496 293 508 b 453 360 381 508 436 449 l 486 196 l 497 197 l 453 669 l 447 669 l 444 643 b 322 560 438 564 406 560 b 282 611 294 560 282 576 l 282 690 b 318 750 282 728 294 750 l 421 750 b 603 569 519 750 569 703 l 608 543 l 619 543 l 579 899 l 574 899 b 494 846 574 869 572 846 l 22 846 l 22 835 l 43 831 b 126 649 111 817 126 775 l 126 197 b 43 15 126 71 111 29 l 22 11 l 22 0 l 531 0 b 599 -53 608 0 599 -24 l 604 -53 l 658 331 l 649 331 l 642 304 b 457 96 614 196 575 96 l 318 96 b 282 156 289 96 282 110 z m 208 911 l 242 911 l 456 1096 l 276 1096 z "},"ě":{"ha":664,"x_min":0,"x_max":0,"o":"m 282 156 l 282 460 b 322 508 282 496 293 508 b 453 360 381 508 436 449 l 486 196 l 497 197 l 453 669 l 447 669 l 444 643 b 322 560 438 564 406 560 b 282 611 294 560 282 576 l 282 690 b 318 750 282 728 294 750 l 421 750 b 603 569 519 750 569 703 l 608 543 l 619 543 l 579 899 l 574 899 b 494 846 574 869 572 846 l 22 846 l 22 835 l 43 831 b 126 649 111 817 126 775 l 126 197 b 43 15 126 71 111 29 l 22 11 l 22 0 l 531 0 b 599 -53 608 0 599 -24 l 604 -53 l 658 331 l 649 331 l 642 304 b 457 96 614 196 575 96 l 318 96 b 282 156 289 96 282 110 z m 153 1174 l 144 1163 b 331 900 194 1129 258 1046 b 518 1163 404 1046 468 1129 l 510 1174 b 331 1063 451 1144 386 1115 b 153 1174 276 1115 211 1144 z "},"ȩ":{"ha":664,"x_min":0,"x_max":0,"o":"m 282 156 l 282 460 b 322 508 282 496 293 508 b 453 360 381 508 436 449 l 486 196 l 497 197 l 453 669 l 447 669 l 444 643 b 322 560 438 564 406 560 b 282 611 294 560 282 576 l 282 690 b 318 750 282 728 294 750 l 421 750 b 603 569 519 750 569 703 l 608 543 l 619 543 l 579 899 l 574 899 b 494 846 574 869 572 846 l 22 846 l 22 835 l 43 831 b 126 649 111 817 126 775 l 126 197 b 43 15 126 71 111 29 l 22 11 l 22 0 l 300 0 l 210 -171 l 218 -176 b 321 -117 239 -137 275 -117 b 410 -204 376 -117 410 -149 b 311 -297 410 -262 372 -297 b 217 -233 268 -297 232 -281 l 214 -235 b 356 -325 226 -293 275 -325 b 514 -201 463 -325 514 -276 b 344 -75 514 -125 460 -75 b 322 -76 336 -75 329 -75 l 364 0 l 531 0 b 599 -53 608 0 599 -24 l 604 -53 l 658 331 l 649 331 l 642 304 b 457 96 614 196 575 96 l 318 96 b 282 156 289 96 282 110 z "},"ê":{"ha":664,"x_min":0,"x_max":0,"o":"m 282 156 l 282 460 b 322 508 282 496 293 508 b 453 360 381 508 436 449 l 486 196 l 497 197 l 453 669 l 447 669 l 444 643 b 322 560 438 564 406 560 b 282 611 294 560 282 576 l 282 690 b 318 750 282 728 294 750 l 421 750 b 603 569 519 750 569 703 l 608 543 l 619 543 l 579 899 l 574 899 b 494 846 574 869 572 846 l 22 846 l 22 835 l 43 831 b 126 649 111 817 126 775 l 126 197 b 43 15 126 71 111 29 l 22 11 l 22 0 l 531 0 b 599 -53 608 0 599 -24 l 604 -53 l 658 331 l 649 331 l 642 304 b 457 96 614 196 575 96 l 318 96 b 282 156 289 96 282 110 z m 144 911 l 153 900 b 331 1011 211 929 276 958 b 510 900 386 958 451 929 l 518 911 b 331 1174 468 944 404 1028 b 144 911 258 1028 194 944 z "},"ế":{"ha":664,"x_min":0,"x_max":0,"o":"m 282 156 l 282 460 b 322 508 282 496 293 508 b 453 360 381 508 436 449 l 486 196 l 497 197 l 453 669 l 447 669 l 444 643 b 322 560 438 564 406 560 b 282 611 294 560 282 576 l 282 690 b 318 750 282 728 294 750 l 421 750 b 603 569 519 750 569 703 l 608 543 l 619 543 l 579 899 l 574 899 b 494 846 574 869 572 846 l 22 846 l 22 835 l 43 831 b 126 649 111 817 126 775 l 126 197 b 43 15 126 71 111 29 l 22 11 l 22 0 l 531 0 b 599 -53 608 0 599 -24 l 604 -53 l 658 331 l 649 331 l 642 304 b 457 96 614 196 575 96 l 318 96 b 282 156 289 96 282 110 z m 144 911 l 153 900 b 331 1011 211 929 276 958 b 510 900 386 958 451 929 l 518 911 b 331 1174 468 944 404 1028 b 144 911 258 1028 194 944 z m 208 1239 l 242 1239 l 456 1424 l 276 1424 z "},"ệ":{"ha":664,"x_min":0,"x_max":0,"o":"m 282 156 l 282 460 b 322 508 282 496 293 508 b 453 360 381 508 436 449 l 486 196 l 497 197 l 453 669 l 447 669 l 444 643 b 322 560 438 564 406 560 b 282 611 294 560 282 576 l 282 690 b 318 750 282 728 294 750 l 421 750 b 603 569 519 750 569 703 l 608 543 l 619 543 l 579 899 l 574 899 b 494 846 574 869 572 846 l 22 846 l 22 835 l 43 831 b 126 649 111 817 126 775 l 126 197 b 43 15 126 71 111 29 l 22 11 l 22 0 l 531 0 b 599 -53 608 0 599 -24 l 604 -53 l 658 331 l 649 331 l 642 304 b 457 96 614 196 575 96 l 318 96 b 282 156 289 96 282 110 z m 433 -165 b 332 -64 433 -104 393 -64 b 231 -165 272 -64 231 -104 b 332 -267 231 -225 272 -267 b 433 -165 393 -267 433 -225 z m 144 911 l 153 900 b 331 1011 211 929 276 958 b 510 900 386 958 451 929 l 518 911 b 331 1174 468 944 404 1028 b 144 911 258 1028 194 944 z "},"ề":{"ha":664,"x_min":0,"x_max":0,"o":"m 282 156 l 282 460 b 322 508 282 496 293 508 b 453 360 381 508 436 449 l 486 196 l 497 197 l 453 669 l 447 669 l 444 643 b 322 560 438 564 406 560 b 282 611 294 560 282 576 l 282 690 b 318 750 282 728 294 750 l 421 750 b 603 569 519 750 569 703 l 608 543 l 619 543 l 579 899 l 574 899 b 494 846 574 869 572 846 l 22 846 l 22 835 l 43 831 b 126 649 111 817 126 775 l 126 197 b 43 15 126 71 111 29 l 22 11 l 22 0 l 531 0 b 599 -53 608 0 599 -24 l 604 -53 l 658 331 l 649 331 l 642 304 b 457 96 614 196 575 96 l 318 96 b 282 156 289 96 282 110 z m 144 911 l 153 900 b 331 1011 211 929 276 958 b 510 900 386 958 451 929 l 518 911 b 331 1174 468 944 404 1028 b 144 911 258 1028 194 944 z m 208 1424 l 422 1239 l 456 1239 l 388 1424 z "},"ể":{"ha":664,"x_min":0,"x_max":0,"o":"m 282 156 l 282 460 b 322 508 282 496 293 508 b 453 360 381 508 436 449 l 486 196 l 497 197 l 453 669 l 447 669 l 444 643 b 322 560 438 564 406 560 b 282 611 294 560 282 576 l 282 690 b 318 750 282 728 294 750 l 421 750 b 603 569 519 750 569 703 l 608 543 l 619 543 l 579 899 l 574 899 b 494 846 574 869 572 846 l 22 846 l 22 835 l 43 831 b 126 649 111 817 126 775 l 126 197 b 43 15 126 71 111 29 l 22 11 l 22 0 l 531 0 b 599 -53 608 0 599 -24 l 604 -53 l 658 331 l 649 331 l 642 304 b 457 96 614 196 575 96 l 318 96 b 282 156 289 96 282 110 z m 144 911 l 153 900 b 331 1011 211 929 276 958 b 510 900 386 958 451 929 l 518 911 b 331 1174 468 944 404 1028 b 144 911 258 1028 194 944 z m 208 1383 l 211 1382 b 310 1465 225 1426 253 1465 b 379 1390 354 1465 379 1440 b 281 1250 379 1331 343 1279 l 294 1222 b 483 1393 413 1258 483 1322 b 351 1493 483 1453 435 1493 b 208 1383 276 1493 225 1460 z "},"ễ":{"ha":664,"x_min":0,"x_max":0,"o":"m 282 156 l 282 460 b 322 508 282 496 293 508 b 453 360 381 508 436 449 l 486 196 l 497 197 l 453 669 l 447 669 l 444 643 b 322 560 438 564 406 560 b 282 611 294 560 282 576 l 282 690 b 318 750 282 728 294 750 l 421 750 b 603 569 519 750 569 703 l 608 543 l 619 543 l 579 899 l 574 899 b 494 846 574 869 572 846 l 22 846 l 22 835 l 43 831 b 126 649 111 817 126 775 l 126 197 b 43 15 126 71 111 29 l 22 11 l 22 0 l 531 0 b 599 -53 608 0 599 -24 l 604 -53 l 658 331 l 649 331 l 642 304 b 457 96 614 196 575 96 l 318 96 b 282 156 289 96 282 110 z m 144 911 l 153 900 b 331 1011 211 929 276 958 b 510 900 386 958 451 929 l 518 911 b 331 1174 468 944 404 1028 b 144 911 258 1028 194 944 z m 108 1251 l 124 1251 b 207 1357 133 1315 167 1357 b 415 1278 271 1357 317 1278 b 554 1497 514 1278 556 1371 l 539 1497 b 456 1390 531 1435 496 1390 b 247 1468 392 1390 346 1468 b 108 1251 149 1468 107 1378 z "},"ë":{"ha":664,"x_min":0,"x_max":0,"o":"m 282 156 l 282 460 b 322 508 282 496 293 508 b 453 360 381 508 436 449 l 486 196 l 497 197 l 453 669 l 447 669 l 444 643 b 322 560 438 564 406 560 b 282 611 294 560 282 576 l 282 690 b 318 750 282 728 294 750 l 421 750 b 603 569 519 750 569 703 l 608 543 l 619 543 l 579 899 l 574 899 b 494 846 574 869 572 846 l 22 846 l 22 835 l 43 831 b 126 649 111 817 126 775 l 126 197 b 43 15 126 71 111 29 l 22 11 l 22 0 l 531 0 b 599 -53 608 0 599 -24 l 604 -53 l 658 331 l 649 331 l 642 304 b 457 96 614 196 575 96 l 318 96 b 282 156 289 96 282 110 z m 111 1015 b 207 921 111 958 150 921 b 303 1015 264 921 303 958 b 207 1111 303 1074 264 1111 b 111 1015 150 1111 111 1074 z m 360 1015 b 457 921 360 958 399 921 b 551 1015 513 921 551 958 b 457 1111 551 1074 513 1111 b 360 1015 399 1111 360 1074 z "},"ė":{"ha":664,"x_min":0,"x_max":0,"o":"m 282 156 l 282 460 b 322 508 282 496 293 508 b 453 360 381 508 436 449 l 486 196 l 497 197 l 453 669 l 447 669 l 444 643 b 322 560 438 564 406 560 b 282 611 294 560 282 576 l 282 690 b 318 750 282 728 294 750 l 421 750 b 603 569 519 750 569 703 l 608 543 l 619 543 l 579 899 l 574 899 b 494 846 574 869 572 846 l 22 846 l 22 835 l 43 831 b 126 649 111 817 126 775 l 126 197 b 43 15 126 71 111 29 l 22 11 l 22 0 l 531 0 b 599 -53 608 0 599 -24 l 604 -53 l 658 331 l 649 331 l 642 304 b 457 96 614 196 575 96 l 318 96 b 282 156 289 96 282 110 z m 231 1011 b 332 910 231 950 271 910 b 433 1011 392 910 433 950 b 332 1113 433 1071 392 1113 b 231 1011 271 1113 231 1071 z "},"ẹ":{"ha":664,"x_min":0,"x_max":0,"o":"m 282 156 l 282 460 b 322 508 282 496 293 508 b 453 360 381 508 436 449 l 486 196 l 497 197 l 453 669 l 447 669 l 444 643 b 322 560 438 564 406 560 b 282 611 294 560 282 576 l 282 690 b 318 750 282 728 294 750 l 421 750 b 603 569 519 750 569 703 l 608 543 l 619 543 l 579 899 l 574 899 b 494 846 574 869 572 846 l 22 846 l 22 835 l 43 831 b 126 649 111 817 126 775 l 126 197 b 43 15 126 71 111 29 l 22 11 l 22 0 l 531 0 b 599 -53 608 0 599 -24 l 604 -53 l 658 331 l 649 331 l 642 304 b 457 96 614 196 575 96 l 318 96 b 282 156 289 96 282 110 z m 433 -165 b 332 -64 433 -104 393 -64 b 231 -165 272 -64 231 -104 b 332 -267 231 -225 272 -267 b 433 -165 393 -267 433 -225 z "},"è":{"ha":664,"x_min":0,"x_max":0,"o":"m 282 156 l 282 460 b 322 508 282 496 293 508 b 453 360 381 508 436 449 l 486 196 l 497 197 l 453 669 l 447 669 l 444 643 b 322 560 438 564 406 560 b 282 611 294 560 282 576 l 282 690 b 318 750 282 728 294 750 l 421 750 b 603 569 519 750 569 703 l 608 543 l 619 543 l 579 899 l 574 899 b 494 846 574 869 572 846 l 22 846 l 22 835 l 43 831 b 126 649 111 817 126 775 l 126 197 b 43 15 126 71 111 29 l 22 11 l 22 0 l 531 0 b 599 -53 608 0 599 -24 l 604 -53 l 658 331 l 649 331 l 642 304 b 457 96 614 196 575 96 l 318 96 b 282 156 289 96 282 110 z m 208 1096 l 422 911 l 456 911 l 388 1096 z "},"ẻ":{"ha":664,"x_min":0,"x_max":0,"o":"m 282 156 l 282 460 b 322 508 282 496 293 508 b 453 360 381 508 436 449 l 486 196 l 497 197 l 453 669 l 447 669 l 444 643 b 322 560 438 564 406 560 b 282 611 294 560 282 576 l 282 690 b 318 750 282 728 294 750 l 421 750 b 603 569 519 750 569 703 l 608 543 l 619 543 l 579 899 l 574 899 b 494 846 574 869 572 846 l 22 846 l 22 835 l 43 831 b 126 649 111 817 126 775 l 126 197 b 43 15 126 71 111 29 l 22 11 l 22 0 l 531 0 b 599 -53 608 0 599 -24 l 604 -53 l 658 331 l 649 331 l 642 304 b 457 96 614 196 575 96 l 318 96 b 282 156 289 96 282 110 z m 208 1056 l 211 1054 b 310 1138 225 1099 253 1138 b 379 1063 354 1138 379 1113 b 281 922 379 1003 343 951 l 294 894 b 483 1065 413 931 483 994 b 351 1165 483 1125 435 1165 b 208 1056 276 1165 225 1132 z "},"ē":{"ha":664,"x_min":0,"x_max":0,"o":"m 282 156 l 282 460 b 322 508 282 496 293 508 b 453 360 381 508 436 449 l 486 196 l 497 197 l 453 669 l 447 669 l 444 643 b 322 560 438 564 406 560 b 282 611 294 560 282 576 l 282 690 b 318 750 282 728 294 750 l 421 750 b 603 569 519 750 569 703 l 608 543 l 619 543 l 579 899 l 574 899 b 494 846 574 869 572 846 l 22 846 l 22 835 l 43 831 b 126 649 111 817 126 775 l 126 197 b 43 15 126 71 111 29 l 22 11 l 22 0 l 531 0 b 599 -53 608 0 599 -24 l 604 -53 l 658 331 l 649 331 l 642 304 b 457 96 614 196 575 96 l 318 96 b 282 156 289 96 282 110 z m 85 1061 l 85 978 l 578 978 l 578 1061 z "},"ę":{"ha":664,"x_min":0,"x_max":0,"o":"m 282 156 l 282 460 b 322 508 282 496 293 508 b 453 360 381 508 436 449 l 486 196 l 497 197 l 453 669 l 447 669 l 444 643 b 322 560 438 564 406 560 b 282 611 294 560 282 576 l 282 690 b 318 750 282 728 294 750 l 421 750 b 603 569 519 750 569 703 l 608 543 l 619 543 l 579 899 l 574 899 b 494 846 574 869 572 846 l 22 846 l 22 835 l 43 831 b 126 649 111 817 126 775 l 126 197 b 43 15 126 71 111 29 l 22 11 l 22 0 l 486 0 b 394 -129 428 -35 394 -81 b 526 -229 394 -189 443 -229 b 669 -119 601 -229 653 -196 l 667 -118 b 568 -201 653 -162 625 -201 b 499 -126 524 -201 499 -176 b 568 -3 499 -76 524 -33 b 599 -53 604 -10 599 -29 l 604 -53 l 658 331 l 649 331 l 642 304 b 457 96 614 196 575 96 l 318 96 b 282 156 289 96 282 110 z "},"ʃ":{"ha":707,"x_min":0,"x_max":0,"o":"m 574 1043 b 271 686 404 1056 271 910 l 271 117 b 144 -110 271 -39 231 -110 b 25 11 86 -110 43 -76 l 19 38 l 6 38 l 40 -278 l 49 -278 b 133 -226 49 -249 56 -221 b 438 135 304 -239 438 -89 l 438 700 b 563 926 438 856 476 926 b 682 806 621 926 664 893 l 688 779 l 701 779 l 667 1094 l 660 1094 b 574 1043 660 1065 651 1038 z "},"ẽ":{"ha":664,"x_min":0,"x_max":0,"o":"m 282 156 l 282 460 b 322 508 282 496 293 508 b 453 360 381 508 436 449 l 486 196 l 497 197 l 453 669 l 447 669 l 444 643 b 322 560 438 564 406 560 b 282 611 294 560 282 576 l 282 690 b 318 750 282 728 294 750 l 421 750 b 603 569 519 750 569 703 l 608 543 l 619 543 l 579 899 l 574 899 b 494 846 574 869 572 846 l 22 846 l 22 835 l 43 831 b 126 649 111 817 126 775 l 126 197 b 43 15 126 71 111 29 l 22 11 l 22 0 l 531 0 b 599 -53 608 0 599 -24 l 604 -53 l 658 331 l 649 331 l 642 304 b 457 96 614 196 575 96 l 318 96 b 282 156 289 96 282 110 z m 108 924 l 124 924 b 207 1029 133 988 167 1029 b 415 950 271 1029 317 950 b 554 1169 514 950 556 1043 l 539 1169 b 456 1063 531 1107 496 1063 b 247 1140 392 1063 346 1140 b 108 924 149 1140 107 1050 z "},"ǝ":{"ha":664,"x_min":0,"x_max":0,"o":"m 382 690 l 382 386 b 342 338 382 350 371 338 b 211 486 283 338 228 397 l 178 650 l 167 649 l 211 176 l 217 176 l 219 203 b 342 286 226 282 258 286 b 382 235 369 286 382 269 l 382 156 b 346 96 382 118 369 96 l 243 96 b 61 276 144 96 94 143 l 56 303 l 44 303 l 85 -53 l 90 -53 b 169 0 90 -24 92 0 l 642 0 l 642 11 l 621 15 b 538 197 553 29 538 71 l 538 649 b 621 831 538 775 553 817 l 642 835 l 642 846 l 133 846 b 65 899 56 846 65 869 l 60 899 l 6 515 l 15 515 l 22 542 b 207 750 50 650 89 750 l 346 750 b 382 690 375 750 382 736 z "},"ə":{"ha":664,"x_min":0,"x_max":0,"o":"m 382 690 l 382 386 b 342 338 382 350 371 338 b 211 486 283 338 228 397 l 178 650 l 167 649 l 211 176 l 217 176 l 219 203 b 342 286 226 282 258 286 b 382 235 369 286 382 269 l 382 156 b 346 96 382 118 369 96 l 243 96 b 61 276 144 96 94 143 l 56 303 l 44 303 l 85 -53 l 90 -53 b 169 0 90 -24 92 0 l 642 0 l 642 11 l 621 15 b 538 197 553 29 538 71 l 538 649 b 621 831 538 775 553 817 l 642 835 l 642 846 l 133 846 b 65 899 56 846 65 869 l 60 899 l 6 515 l 15 515 l 22 542 b 207 750 50 650 89 750 l 346 750 b 382 690 375 750 382 736 z "},"ʒ":{"ha":703,"x_min":0,"x_max":0,"o":"m 267 750 l 371 750 b 393 700 401 750 408 733 l 108 103 b 19 14 82 46 51 19 l 6 11 l 6 0 l 549 0 b 618 -53 626 0 618 -24 l 624 -53 l 665 331 l 656 331 l 649 304 b 475 96 621 196 593 96 l 329 96 b 306 146 297 96 290 113 l 543 644 b 685 833 615 796 647 829 l 697 835 l 697 846 l 193 846 b 115 899 115 846 115 869 l 108 899 l 58 497 l 68 497 l 86 569 b 267 750 121 703 168 750 z "},"ǯ":{"ha":703,"x_min":0,"x_max":0,"o":"m 267 750 l 371 750 b 393 700 401 750 408 733 l 108 103 b 19 14 82 46 51 19 l 6 11 l 6 0 l 549 0 b 618 -53 626 0 618 -24 l 624 -53 l 665 331 l 656 331 l 649 304 b 475 96 621 196 593 96 l 329 96 b 306 146 297 96 290 113 l 543 644 b 685 833 615 796 647 829 l 697 835 l 697 846 l 193 846 b 115 899 115 846 115 869 l 108 899 l 58 497 l 68 497 l 86 569 b 267 750 121 703 168 750 z m 172 1174 l 164 1163 b 350 900 214 1129 278 1046 b 538 1163 424 1046 488 1129 l 529 1174 b 350 1063 471 1144 406 1115 b 172 1174 296 1115 231 1144 z "},"f":{"ha":622,"x_min":0,"x_max":0,"o":"m 282 197 l 282 461 b 322 510 282 497 293 510 b 446 361 375 510 428 450 l 478 197 l 489 199 l 446 669 l 439 669 l 438 643 b 322 561 431 564 400 561 b 282 613 294 561 282 578 l 282 690 b 318 750 282 728 294 750 l 414 750 b 594 569 513 750 561 703 l 601 543 l 611 543 l 571 899 l 565 899 b 486 846 565 869 564 846 l 22 846 l 22 835 l 43 831 b 126 649 111 817 126 775 l 126 197 b 43 15 126 71 111 29 l 22 11 l 22 0 l 385 0 l 385 11 l 364 15 b 282 197 296 29 282 71 z "},"g":{"ha":828,"x_min":0,"x_max":0,"o":"m 597 219 l 597 165 b 554 99 597 128 582 106 b 464 86 524 90 494 86 b 203 421 293 86 203 204 b 453 757 203 633 290 757 b 644 558 586 757 660 676 l 633 465 l 644 463 l 731 881 l 721 883 l 711 860 b 449 860 688 806 599 860 b 33 413 186 860 33 694 b 442 -14 33 139 179 -14 b 724 49 528 -14 604 3 l 724 219 b 800 367 724 321 743 357 l 817 369 l 817 379 l 419 379 l 419 365 l 478 360 b 597 219 553 353 597 303 z "},"ğ":{"ha":828,"x_min":0,"x_max":0,"o":"m 597 219 l 597 165 b 554 99 597 128 582 106 b 464 86 524 90 494 86 b 203 421 293 86 203 204 b 453 757 203 633 290 757 b 644 558 586 757 660 676 l 633 465 l 644 463 l 731 881 l 721 883 l 711 860 b 449 860 688 806 599 860 b 33 413 186 860 33 694 b 442 -14 33 139 179 -14 b 724 49 528 -14 604 3 l 724 219 b 800 367 724 321 743 357 l 817 369 l 817 379 l 419 379 l 419 365 l 478 360 b 597 219 553 353 597 303 z m 415 1017 b 292 1171 343 1017 290 1082 l 281 1171 b 414 900 263 1008 317 900 b 550 1171 511 900 568 1008 l 539 1171 b 415 1017 540 1082 488 1017 z "},"ǧ":{"ha":828,"x_min":0,"x_max":0,"o":"m 597 219 l 597 165 b 554 99 597 128 582 106 b 464 86 524 90 494 86 b 203 421 293 86 203 204 b 453 757 203 633 290 757 b 644 558 586 757 660 676 l 633 465 l 644 463 l 731 881 l 721 883 l 711 860 b 449 860 688 806 599 860 b 33 413 186 860 33 694 b 442 -14 33 139 179 -14 b 724 49 528 -14 604 3 l 724 219 b 800 367 724 321 743 357 l 817 369 l 817 379 l 419 379 l 419 365 l 478 360 b 597 219 553 353 597 303 z m 236 1174 l 228 1163 b 414 900 278 1129 342 1046 b 601 1163 488 1046 551 1129 l 593 1174 b 414 1063 535 1144 469 1115 b 236 1174 360 1115 294 1144 z "},"ĝ":{"ha":828,"x_min":0,"x_max":0,"o":"m 597 219 l 597 165 b 554 99 597 128 582 106 b 464 86 524 90 494 86 b 203 421 293 86 203 204 b 453 757 203 633 290 757 b 644 558 586 757 660 676 l 633 465 l 644 463 l 731 881 l 721 883 l 711 860 b 449 860 688 806 599 860 b 33 413 186 860 33 694 b 442 -14 33 139 179 -14 b 724 49 528 -14 604 3 l 724 219 b 800 367 724 321 743 357 l 817 369 l 817 379 l 419 379 l 419 365 l 478 360 b 597 219 553 353 597 303 z m 228 911 l 236 900 b 414 1011 294 929 360 958 b 593 900 469 958 535 929 l 601 911 b 414 1174 551 944 488 1028 b 228 911 342 1028 278 944 z "},"ģ":{"ha":828,"x_min":0,"x_max":0,"o":"m 597 219 l 597 165 b 554 99 597 128 582 106 b 464 86 524 90 494 86 b 203 421 293 86 203 204 b 453 757 203 633 290 757 b 644 558 586 757 660 676 l 633 465 l 644 463 l 731 881 l 721 883 l 711 860 b 449 860 688 806 599 860 b 33 413 186 860 33 694 b 442 -14 33 139 179 -14 b 724 49 528 -14 604 3 l 724 219 b 800 367 724 321 743 357 l 817 369 l 817 379 l 419 379 l 419 365 l 478 360 b 597 219 553 353 597 303 z m 524 1018 b 414 1117 524 1086 472 1128 b 507 1288 417 1171 446 1247 l 503 1296 b 307 1022 389 1244 307 1128 b 411 907 307 949 347 907 b 524 1018 478 907 524 953 z "},"ġ":{"ha":828,"x_min":0,"x_max":0,"o":"m 597 219 l 597 165 b 554 99 597 128 582 106 b 464 86 524 90 494 86 b 203 421 293 86 203 204 b 453 757 203 633 290 757 b 644 558 586 757 660 676 l 633 465 l 644 463 l 731 881 l 721 883 l 711 860 b 449 860 688 806 599 860 b 33 413 186 860 33 694 b 442 -14 33 139 179 -14 b 724 49 528 -14 604 3 l 724 219 b 800 367 724 321 743 357 l 817 369 l 817 379 l 419 379 l 419 365 l 478 360 b 597 219 553 353 597 303 z m 314 1011 b 415 910 314 950 354 910 b 517 1011 475 910 517 950 b 415 1113 517 1071 475 1113 b 314 1011 354 1113 314 1071 z "},"ḡ":{"ha":828,"x_min":0,"x_max":0,"o":"m 597 219 l 597 165 b 554 99 597 128 582 106 b 464 86 524 90 494 86 b 203 421 293 86 203 204 b 453 757 203 633 290 757 b 644 558 586 757 660 676 l 633 465 l 644 463 l 731 881 l 721 883 l 711 860 b 449 860 688 806 599 860 b 33 413 186 860 33 694 b 442 -14 33 139 179 -14 b 724 49 528 -14 604 3 l 724 219 b 800 367 724 321 743 357 l 817 369 l 817 379 l 419 379 l 419 365 l 478 360 b 597 219 553 353 597 303 z m 168 1061 l 168 978 l 661 978 l 661 1061 z "},"ǥ":{"ha":828,"x_min":0,"x_max":0,"o":"m 775 174 l 775 283 l 728 283 b 800 367 736 338 757 360 l 817 369 l 817 379 l 419 379 l 419 365 l 478 360 b 586 283 531 354 569 328 l 300 283 l 300 174 l 597 174 l 597 165 b 554 99 597 128 582 106 b 464 86 524 90 494 86 b 203 421 293 86 203 204 b 453 757 203 633 290 757 b 644 558 586 757 660 676 l 633 465 l 644 463 l 731 881 l 721 883 l 711 860 b 449 860 688 806 599 860 b 33 413 186 860 33 694 b 442 -14 33 139 179 -14 b 724 49 528 -14 604 3 l 724 174 z "},"h":{"ha":847,"x_min":0,"x_max":0,"o":"m 282 197 l 282 486 b 310 526 282 513 289 526 l 538 526 b 565 486 558 526 565 513 l 565 197 b 483 15 565 71 551 29 l 463 11 l 463 0 l 825 0 l 825 11 l 804 15 b 721 197 736 29 721 71 l 721 649 b 804 831 721 775 736 817 l 825 835 l 825 846 l 463 846 l 463 835 l 483 831 b 565 649 551 817 565 775 l 565 621 b 538 581 565 594 558 581 l 310 581 b 282 621 289 581 282 594 l 282 649 b 364 831 282 775 296 817 l 385 835 l 385 846 l 22 846 l 22 835 l 43 831 b 126 649 111 817 126 775 l 126 197 b 43 15 126 71 111 29 l 22 11 l 22 0 l 385 0 l 385 11 l 364 15 b 282 197 296 29 282 71 z "},"ħ":{"ha":847,"x_min":0,"x_max":0,"o":"m 282 197 l 282 486 b 310 526 282 513 289 526 l 538 526 b 565 486 558 526 565 513 l 565 197 b 483 15 565 71 551 29 l 463 11 l 463 0 l 825 0 l 825 11 l 804 15 b 721 197 736 29 721 71 l 721 646 l 793 646 l 793 756 l 729 756 b 804 831 739 801 761 822 l 825 835 l 825 846 l 463 846 l 463 835 l 483 831 b 558 756 526 822 549 801 l 289 756 b 364 831 299 801 321 822 l 385 835 l 385 846 l 22 846 l 22 835 l 43 831 b 118 756 86 822 108 801 l 54 756 l 54 646 l 126 646 l 126 197 b 43 15 126 71 111 29 l 22 11 l 22 0 l 385 0 l 385 11 l 364 15 b 282 197 296 29 282 71 z m 282 621 l 282 646 l 565 646 l 565 621 b 538 581 565 594 558 581 l 310 581 b 282 621 289 581 282 594 z "},"ḫ":{"ha":847,"x_min":0,"x_max":0,"o":"m 282 197 l 282 486 b 310 526 282 513 289 526 l 538 526 b 565 486 558 526 565 513 l 565 197 b 483 15 565 71 551 29 l 463 11 l 463 0 l 825 0 l 825 11 l 804 15 b 721 197 736 29 721 71 l 721 649 b 804 831 721 775 736 817 l 825 835 l 825 846 l 463 846 l 463 835 l 483 831 b 565 649 551 817 565 775 l 565 621 b 538 581 565 594 558 581 l 310 581 b 282 621 289 581 282 594 l 282 649 b 364 831 282 775 296 817 l 385 835 l 385 846 l 22 846 l 22 835 l 43 831 b 126 649 111 817 126 775 l 126 197 b 43 15 126 71 111 29 l 22 11 l 22 0 l 385 0 l 385 11 l 364 15 b 282 197 296 29 282 71 z m 424 -197 b 300 -43 351 -197 299 -132 l 289 -43 b 422 -314 271 -206 325 -314 b 558 -43 519 -314 576 -206 l 547 -43 b 424 -197 549 -132 496 -197 z "},"ĥ":{"ha":847,"x_min":0,"x_max":0,"o":"m 282 197 l 282 486 b 310 526 282 513 289 526 l 538 526 b 565 486 558 526 565 513 l 565 197 b 483 15 565 71 551 29 l 463 11 l 463 0 l 825 0 l 825 11 l 804 15 b 721 197 736 29 721 71 l 721 649 b 804 831 721 775 736 817 l 825 835 l 825 846 l 463 846 l 463 835 l 483 831 b 565 649 551 817 565 775 l 565 621 b 538 581 565 594 558 581 l 310 581 b 282 621 289 581 282 594 l 282 649 b 364 831 282 775 296 817 l 385 835 l 385 846 l 22 846 l 22 835 l 43 831 b 126 649 111 817 126 775 l 126 197 b 43 15 126 71 111 29 l 22 11 l 22 0 l 385 0 l 385 11 l 364 15 b 282 197 296 29 282 71 z m 236 911 l 244 900 b 422 1011 303 929 368 958 b 601 900 478 958 543 929 l 610 911 b 422 1174 560 944 496 1028 b 236 911 350 1028 286 944 z "},"ḥ":{"ha":847,"x_min":0,"x_max":0,"o":"m 282 197 l 282 486 b 310 526 282 513 289 526 l 538 526 b 565 486 558 526 565 513 l 565 197 b 483 15 565 71 551 29 l 463 11 l 463 0 l 825 0 l 825 11 l 804 15 b 721 197 736 29 721 71 l 721 649 b 804 831 721 775 736 817 l 825 835 l 825 846 l 463 846 l 463 835 l 483 831 b 565 649 551 817 565 775 l 565 621 b 538 581 565 594 558 581 l 310 581 b 282 621 289 581 282 594 l 282 649 b 364 831 282 775 296 817 l 385 835 l 385 846 l 22 846 l 22 835 l 43 831 b 126 649 111 817 126 775 l 126 197 b 43 15 126 71 111 29 l 22 11 l 22 0 l 385 0 l 385 11 l 364 15 b 282 197 296 29 282 71 z m 525 -165 b 424 -64 525 -104 485 -64 b 322 -165 364 -64 322 -104 b 424 -267 322 -225 364 -267 b 525 -165 485 -267 525 -225 z "},"ẖ":{"ha":847,"x_min":0,"x_max":0,"o":"m 282 197 l 282 486 b 310 526 282 513 289 526 l 538 526 b 565 486 558 526 565 513 l 565 197 b 483 15 565 71 551 29 l 463 11 l 463 0 l 825 0 l 825 11 l 804 15 b 721 197 736 29 721 71 l 721 649 b 804 831 721 775 736 817 l 825 835 l 825 846 l 463 846 l 463 835 l 483 831 b 565 649 551 817 565 775 l 565 621 b 538 581 565 594 558 581 l 310 581 b 282 621 289 581 282 594 l 282 649 b 364 831 282 775 296 817 l 385 835 l 385 846 l 22 846 l 22 835 l 43 831 b 126 649 111 817 126 775 l 126 197 b 43 15 126 71 111 29 l 22 11 l 22 0 l 385 0 l 385 11 l 364 15 b 282 197 296 29 282 71 z m 671 -215 l 671 -132 l 178 -132 l 178 -215 z "},"i":{"ha":407,"x_min":0,"x_max":0,"o":"m 385 846 l 22 846 l 22 835 l 43 831 b 126 649 111 817 126 775 l 126 197 b 43 15 126 71 111 29 l 22 11 l 22 0 l 385 0 l 385 11 l 364 15 b 282 197 296 29 282 71 l 282 649 b 364 831 282 775 296 817 l 385 835 z "},"ı":{"ha":407,"x_min":0,"x_max":0,"o":"m 385 846 l 22 846 l 22 835 l 43 831 b 126 649 111 817 126 775 l 126 197 b 43 15 126 71 111 29 l 22 11 l 22 0 l 385 0 l 385 11 l 364 15 b 282 197 296 29 282 71 l 282 649 b 364 831 282 775 296 817 l 385 835 z "},"í":{"ha":407,"x_min":0,"x_max":0,"o":"m 385 846 l 22 846 l 22 835 l 43 831 b 126 649 111 817 126 775 l 126 197 b 43 15 126 71 111 29 l 22 11 l 22 0 l 385 0 l 385 11 l 364 15 b 282 197 296 29 282 71 l 282 649 b 364 831 282 775 296 817 l 385 835 z m 81 911 l 114 911 l 328 1096 l 149 1096 z "},"ǐ":{"ha":407,"x_min":0,"x_max":0,"o":"m 385 846 l 22 846 l 22 835 l 43 831 b 126 649 111 817 126 775 l 126 197 b 43 15 126 71 111 29 l 22 11 l 22 0 l 385 0 l 385 11 l 364 15 b 282 197 296 29 282 71 l 282 649 b 364 831 282 775 296 817 l 385 835 z m 25 1174 l 17 1163 b 203 900 67 1129 131 1046 b 390 1163 276 1046 340 1129 l 382 1174 b 203 1063 324 1144 258 1115 b 25 1174 149 1115 83 1144 z "},"î":{"ha":407,"x_min":0,"x_max":0,"o":"m 385 846 l 22 846 l 22 835 l 43 831 b 126 649 111 817 126 775 l 126 197 b 43 15 126 71 111 29 l 22 11 l 22 0 l 385 0 l 385 11 l 364 15 b 282 197 296 29 282 71 l 282 649 b 364 831 282 775 296 817 l 385 835 z m 17 911 l 25 900 b 203 1011 83 929 149 958 b 382 900 258 958 324 929 l 390 911 b 203 1174 340 944 276 1028 b 17 911 131 1028 67 944 z "},"ï":{"ha":407,"x_min":0,"x_max":0,"o":"m 385 846 l 22 846 l 22 835 l 43 831 b 126 649 111 817 126 775 l 126 197 b 43 15 126 71 111 29 l 22 11 l 22 0 l 385 0 l 385 11 l 364 15 b 282 197 296 29 282 71 l 282 649 b 364 831 282 775 296 817 l 385 835 z m -17 1015 b 79 921 -17 958 22 921 b 175 1015 136 921 175 958 b 79 1111 175 1074 136 1111 b -17 1015 22 1111 -17 1074 z m 232 1015 b 329 921 232 958 271 921 b 424 1015 385 921 424 958 b 329 1111 424 1074 385 1111 b 232 1015 271 1111 232 1074 z "},"ḯ":{"ha":407,"x_min":0,"x_max":0,"o":"m 385 846 l 22 846 l 22 835 l 43 831 b 126 649 111 817 126 775 l 126 197 b 43 15 126 71 111 29 l 22 11 l 22 0 l 385 0 l 385 11 l 364 15 b 282 197 296 29 282 71 l 282 649 b 364 831 282 775 296 817 l 385 835 z m -17 1015 b 79 921 -17 958 22 921 b 175 1015 136 921 175 958 b 79 1111 175 1074 136 1111 b -17 1015 22 1111 -17 1074 z m 232 1015 b 329 921 232 958 271 921 b 424 1015 385 921 424 958 b 329 1111 424 1074 385 1111 b 232 1015 271 1111 232 1074 z m 81 1156 l 114 1156 l 328 1340 l 149 1340 z "},"ị":{"ha":407,"x_min":0,"x_max":0,"o":"m 385 846 l 22 846 l 22 835 l 43 831 b 126 649 111 817 126 775 l 126 197 b 43 15 126 71 111 29 l 22 11 l 22 0 l 385 0 l 385 11 l 364 15 b 282 197 296 29 282 71 l 282 649 b 364 831 282 775 296 817 l 385 835 z m 306 -165 b 204 -64 306 -104 265 -64 b 103 -165 144 -64 103 -104 b 204 -267 103 -225 144 -267 b 306 -165 265 -267 306 -225 z "},"ì":{"ha":407,"x_min":0,"x_max":0,"o":"m 385 846 l 22 846 l 22 835 l 43 831 b 126 649 111 817 126 775 l 126 197 b 43 15 126 71 111 29 l 22 11 l 22 0 l 385 0 l 385 11 l 364 15 b 282 197 296 29 282 71 l 282 649 b 364 831 282 775 296 817 l 385 835 z m 81 1096 l 294 911 l 328 911 l 260 1096 z "},"ỉ":{"ha":407,"x_min":0,"x_max":0,"o":"m 385 846 l 22 846 l 22 835 l 43 831 b 126 649 111 817 126 775 l 126 197 b 43 15 126 71 111 29 l 22 11 l 22 0 l 385 0 l 385 11 l 364 15 b 282 197 296 29 282 71 l 282 649 b 364 831 282 775 296 817 l 385 835 z m 81 1056 l 83 1054 b 182 1138 97 1099 125 1138 b 251 1063 226 1138 251 1113 b 153 922 251 1003 215 951 l 167 894 b 356 1065 285 931 356 994 b 224 1165 356 1125 307 1165 b 81 1056 149 1165 97 1132 z "},"ī":{"ha":407,"x_min":0,"x_max":0,"o":"m 385 846 l 22 846 l 22 835 l 43 831 b 126 649 111 817 126 775 l 126 197 b 43 15 126 71 111 29 l 22 11 l 22 0 l 385 0 l 385 11 l 364 15 b 282 197 296 29 282 71 l 282 649 b 364 831 282 775 296 817 l 385 835 z m -43 1061 l -43 978 l 450 978 l 450 1061 z "},"į":{"ha":407,"x_min":0,"x_max":0,"o":"m 385 846 l 22 846 l 22 835 l 43 831 b 126 649 111 817 126 775 l 126 197 b 43 15 126 71 111 29 l 22 11 l 22 0 l 178 0 b 60 -143 103 -37 60 -87 b 192 -243 60 -203 108 -243 b 335 -133 267 -243 318 -210 l 332 -132 b 233 -215 318 -176 290 -215 b 164 -140 189 -215 164 -190 b 263 0 164 -81 200 -29 l 385 0 l 385 11 l 364 15 b 282 197 296 29 282 71 l 282 649 b 364 831 282 775 296 817 l 385 835 z m 103 1011 b 204 910 103 950 143 910 b 306 1011 264 910 306 950 b 204 1113 306 1071 264 1113 b 103 1011 143 1113 103 1071 z "},"ɨ":{"ha":407,"x_min":0,"x_max":0,"o":"m 385 846 l 22 846 l 22 835 l 43 831 b 126 649 111 817 126 775 l 126 533 l -12 533 l -12 424 l 126 424 l 126 197 b 43 15 126 71 111 29 l 22 11 l 22 0 l 385 0 l 385 11 l 364 15 b 282 197 296 29 282 71 l 282 424 l 418 424 l 418 533 l 282 533 l 282 649 b 364 831 282 775 296 817 l 385 835 z m 103 1011 b 204 910 103 950 143 910 b 306 1011 264 910 306 950 b 204 1113 306 1071 264 1113 b 103 1011 143 1113 103 1071 z "},"ĩ":{"ha":407,"x_min":0,"x_max":0,"o":"m 385 846 l 22 846 l 22 835 l 43 831 b 126 649 111 817 126 775 l 126 197 b 43 15 126 71 111 29 l 22 11 l 22 0 l 385 0 l 385 11 l 364 15 b 282 197 296 29 282 71 l 282 649 b 364 831 282 775 296 817 l 385 835 z m -19 924 l -4 924 b 79 1029 6 988 39 1029 b 288 950 143 1029 189 950 b 426 1169 386 950 428 1043 l 411 1169 b 328 1063 403 1107 368 1063 b 119 1140 264 1063 218 1140 b -19 924 21 1140 -21 1050 z "}}}
